G04 #@! TF.GenerationSoftware,KiCad,Pcbnew,5.1.2-f72e74a~84~ubuntu18.04.1*
G04 #@! TF.CreationDate,2019-06-01T21:14:53+08:00*
G04 #@! TF.ProjectId,esp12-lora-remote-station,65737031-322d-46c6-9f72-612d72656d6f,rev?*
G04 #@! TF.SameCoordinates,Original*
G04 #@! TF.FileFunction,Legend,Top*
G04 #@! TF.FilePolarity,Positive*
%FSLAX46Y46*%
G04 Gerber Fmt 4.6, Leading zero omitted, Abs format (unit mm)*
G04 Created by KiCad (PCBNEW 5.1.2-f72e74a~84~ubuntu18.04.1) date 2019-06-01 21:14:53*
%MOMM*%
%LPD*%
G04 APERTURE LIST*
%ADD10C,0.120000*%
%ADD11C,0.150000*%
%ADD12C,0.381000*%
%ADD13C,0.127000*%
%ADD14C,0.200000*%
%ADD15C,0.100000*%
G04 APERTURE END LIST*
D10*
X128250000Y-140650000D02*
X129400000Y-140650000D01*
X128250000Y-133350000D02*
X128250000Y-140650000D01*
X133750000Y-133350000D02*
X133750000Y-140650000D01*
X128250000Y-132650000D02*
X129400000Y-132650000D01*
X128250000Y-125350000D02*
X128250000Y-132650000D01*
X133750000Y-125350000D02*
X133750000Y-132650000D01*
X128250000Y-124650000D02*
X129400000Y-124650000D01*
X128250000Y-117350000D02*
X128250000Y-124650000D01*
X133750000Y-117350000D02*
X133750000Y-124650000D01*
X92875000Y-131225000D02*
G75*
G03X92875000Y-131225000I-3000000J0D01*
G01*
X83975000Y-129225000D02*
X83975000Y-125125000D01*
X95775000Y-125125000D02*
X95775000Y-129225000D01*
X95775000Y-133225000D02*
X95775000Y-137325000D01*
X84075000Y-133225000D02*
X84075000Y-137325000D01*
X84075000Y-137325000D02*
X95775000Y-137325000D01*
X86075000Y-138725000D02*
X85775000Y-139025000D01*
X85775000Y-139025000D02*
X85775000Y-138425000D01*
X85775000Y-138425000D02*
X86075000Y-138725000D01*
X83975000Y-125125000D02*
X86575000Y-125125000D01*
X88575000Y-125125000D02*
X91175000Y-125125000D01*
X93175000Y-125125000D02*
X95775000Y-125125000D01*
X89375000Y-131225000D02*
X90375000Y-131225000D01*
X89875000Y-131725000D02*
X89875000Y-130725000D01*
X95185000Y-120696267D02*
X95185000Y-120353733D01*
X94165000Y-120696267D02*
X94165000Y-120353733D01*
X89285000Y-116346267D02*
X89285000Y-116003733D01*
X88265000Y-116346267D02*
X88265000Y-116003733D01*
X86775000Y-116546267D02*
X86775000Y-116203733D01*
X85755000Y-116546267D02*
X85755000Y-116203733D01*
X83415000Y-121735000D02*
X83415000Y-120625000D01*
X84175000Y-121735000D02*
X83415000Y-121735000D01*
X84935000Y-120061529D02*
X84935000Y-119515000D01*
X84935000Y-121735000D02*
X84935000Y-121188471D01*
X84935000Y-119515000D02*
X87410000Y-119515000D01*
X84935000Y-121735000D02*
X87410000Y-121735000D01*
X87410000Y-120317470D02*
X87410000Y-119515000D01*
X87410000Y-121735000D02*
X87410000Y-120932530D01*
X92675000Y-120696267D02*
X92675000Y-120353733D01*
X91655000Y-120696267D02*
X91655000Y-120353733D01*
X84265000Y-116546267D02*
X84265000Y-116203733D01*
X83245000Y-116546267D02*
X83245000Y-116203733D01*
X90165000Y-120696267D02*
X90165000Y-120353733D01*
X89145000Y-120696267D02*
X89145000Y-120353733D01*
X54500000Y-54090000D02*
X60510000Y-54090000D01*
X56750000Y-60910000D02*
X60510000Y-60910000D01*
X60510000Y-54090000D02*
X60510000Y-55350000D01*
X60510000Y-60910000D02*
X60510000Y-59650000D01*
X69170000Y-54370000D02*
X70500000Y-54370000D01*
X69170000Y-55700000D02*
X69170000Y-54370000D01*
X69170000Y-56970000D02*
X71830000Y-56970000D01*
X71830000Y-56970000D02*
X71830000Y-59570000D01*
X69170000Y-56970000D02*
X69170000Y-59570000D01*
X69170000Y-59570000D02*
X71830000Y-59570000D01*
X64520000Y-54370000D02*
X65850000Y-54370000D01*
X64520000Y-55700000D02*
X64520000Y-54370000D01*
X64520000Y-56970000D02*
X67180000Y-56970000D01*
X67180000Y-56970000D02*
X67180000Y-59570000D01*
X64520000Y-56970000D02*
X64520000Y-59570000D01*
X64520000Y-59570000D02*
X67180000Y-59570000D01*
X63428733Y-63390000D02*
X63771267Y-63390000D01*
X63428733Y-62370000D02*
X63771267Y-62370000D01*
X54800000Y-62740000D02*
X54800000Y-63240000D01*
X54550000Y-62990000D02*
X55050000Y-62990000D01*
X55290000Y-65745563D02*
X56354437Y-66810000D01*
X55290000Y-63354437D02*
X56354437Y-62290000D01*
X55290000Y-63354437D02*
X55290000Y-63490000D01*
X55290000Y-65745563D02*
X55290000Y-65610000D01*
X56354437Y-66810000D02*
X59810000Y-66810000D01*
X56354437Y-62290000D02*
X59810000Y-62290000D01*
X59810000Y-62290000D02*
X59810000Y-63490000D01*
X59810000Y-66810000D02*
X59810000Y-65610000D01*
D11*
X121000000Y-94300000D02*
X121000000Y-92300000D01*
X114350000Y-94300000D02*
X121000000Y-94300000D01*
X141650000Y-66500000D02*
X141650000Y-94300000D01*
X114350000Y-66500000D02*
X141650000Y-66500000D01*
X114350000Y-66500000D02*
X114350000Y-94300000D01*
X141650000Y-94300000D02*
X135000000Y-94300000D01*
X135000000Y-94300000D02*
X135000000Y-92300000D01*
X121000000Y-92300000D02*
X135000000Y-92300000D01*
X114500000Y-73000000D02*
X114500000Y-88000000D01*
X114500000Y-88000000D02*
X141500000Y-88000000D01*
X141500000Y-88000000D02*
X141500000Y-73000000D01*
X141500000Y-73000000D02*
X114500000Y-73000000D01*
D10*
X82880000Y-50280000D02*
X99120000Y-50280000D01*
X99120000Y-50280000D02*
X99120000Y-57900000D01*
X99120000Y-73900000D02*
X99120000Y-74520000D01*
X99120000Y-74520000D02*
X97000000Y-74520000D01*
X85000000Y-74520000D02*
X82880000Y-74520000D01*
X82880000Y-74520000D02*
X82880000Y-73900000D01*
X82880000Y-57900000D02*
X82880000Y-50280000D01*
X82880000Y-57900000D02*
X82270000Y-57900000D01*
D12*
X107289990Y-126560500D02*
G75*
G03X107289990Y-126560500I-141990J0D01*
G01*
D10*
X111319000Y-126300000D02*
X112044000Y-126300000D01*
X112044000Y-126300000D02*
X112044000Y-127025000D01*
X107549000Y-131520000D02*
X106824000Y-131520000D01*
X106824000Y-131520000D02*
X106824000Y-130795000D01*
X111319000Y-131520000D02*
X112044000Y-131520000D01*
X112044000Y-131520000D02*
X112044000Y-130795000D01*
X72670000Y-85670000D02*
X74000000Y-85670000D01*
X72670000Y-87000000D02*
X72670000Y-85670000D01*
X72670000Y-88270000D02*
X75330000Y-88270000D01*
X75330000Y-88270000D02*
X75330000Y-90870000D01*
X72670000Y-88270000D02*
X72670000Y-90870000D01*
X72670000Y-90870000D02*
X75330000Y-90870000D01*
X134670000Y-59330000D02*
X134670000Y-58000000D01*
X136000000Y-59330000D02*
X134670000Y-59330000D01*
X137270000Y-59330000D02*
X137270000Y-56670000D01*
X137270000Y-56670000D02*
X139870000Y-56670000D01*
X137270000Y-59330000D02*
X139870000Y-59330000D01*
X139870000Y-59330000D02*
X139870000Y-56670000D01*
X52785000Y-99205000D02*
X54115000Y-99205000D01*
X52785000Y-100535000D02*
X52785000Y-99205000D01*
X52785000Y-101805000D02*
X55445000Y-101805000D01*
X55445000Y-101805000D02*
X55445000Y-104405000D01*
X52785000Y-101805000D02*
X52785000Y-104405000D01*
X52785000Y-104405000D02*
X55445000Y-104405000D01*
X107330000Y-73330000D02*
X106000000Y-73330000D01*
X107330000Y-72000000D02*
X107330000Y-73330000D01*
X107330000Y-70730000D02*
X104670000Y-70730000D01*
X104670000Y-70730000D02*
X104670000Y-68130000D01*
X107330000Y-70730000D02*
X107330000Y-68130000D01*
X107330000Y-68130000D02*
X104670000Y-68130000D01*
X140330000Y-106330000D02*
X139000000Y-106330000D01*
X140330000Y-105000000D02*
X140330000Y-106330000D01*
X140330000Y-103730000D02*
X137670000Y-103730000D01*
X137670000Y-103730000D02*
X137670000Y-101130000D01*
X140330000Y-103730000D02*
X140330000Y-101130000D01*
X140330000Y-101130000D02*
X137670000Y-101130000D01*
X139670000Y-126670000D02*
X141000000Y-126670000D01*
X139670000Y-128000000D02*
X139670000Y-126670000D01*
X139670000Y-129270000D02*
X142330000Y-129270000D01*
X142330000Y-129270000D02*
X142330000Y-136950000D01*
X139670000Y-129270000D02*
X139670000Y-136950000D01*
X139670000Y-136950000D02*
X142330000Y-136950000D01*
X132610000Y-114900000D02*
X132610000Y-112450000D01*
X129390000Y-113100000D02*
X129390000Y-114900000D01*
X111300000Y-139687500D02*
X111300000Y-140137500D01*
X111300000Y-139687500D02*
X111750000Y-139687500D01*
X116900000Y-140237500D02*
X116450000Y-140237500D01*
X116900000Y-142087500D02*
X116900000Y-140237500D01*
X109100000Y-144637500D02*
X109100000Y-144387500D01*
X116900000Y-144637500D02*
X116900000Y-144387500D01*
X109100000Y-142087500D02*
X109100000Y-140237500D01*
X109100000Y-140237500D02*
X109550000Y-140237500D01*
D11*
X57910000Y-123700000D02*
X57935000Y-123700000D01*
X65960000Y-123700000D02*
X65935000Y-123700000D01*
X65960000Y-128350000D02*
X65935000Y-128350000D01*
X57860000Y-129425000D02*
X57860000Y-123700000D01*
X65960000Y-128350000D02*
X65960000Y-123700000D01*
D12*
X134724805Y-105095500D02*
G75*
G03X134724805Y-105095500I-200805J0D01*
G01*
D11*
X134025000Y-101350000D02*
X131975000Y-101350000D01*
X134730000Y-104650000D02*
X131975000Y-104650000D01*
D10*
X61725000Y-86375000D02*
X58200000Y-86375000D01*
X61725000Y-86375000D02*
X63605000Y-86375000D01*
X61725000Y-91555000D02*
X59845000Y-91555000D01*
X61725000Y-91555000D02*
X63605000Y-91555000D01*
X95850000Y-104060000D02*
X92150000Y-104060000D01*
X95850000Y-97940000D02*
X95850000Y-104060000D01*
X92150000Y-97940000D02*
X95850000Y-97940000D01*
X92150000Y-104060000D02*
X92150000Y-97940000D01*
X87850000Y-104060000D02*
X84150000Y-104060000D01*
X87850000Y-97940000D02*
X87850000Y-104060000D01*
X84150000Y-97940000D02*
X87850000Y-97940000D01*
X84150000Y-104060000D02*
X84150000Y-97940000D01*
X79850000Y-104060000D02*
X76150000Y-104060000D01*
X79850000Y-97940000D02*
X79850000Y-104060000D01*
X76150000Y-97940000D02*
X79850000Y-97940000D01*
X76150000Y-104060000D02*
X76150000Y-97940000D01*
X109850000Y-89215000D02*
X106150000Y-89215000D01*
X109850000Y-83095000D02*
X109850000Y-89215000D01*
X106150000Y-83095000D02*
X109850000Y-83095000D01*
X106150000Y-89215000D02*
X106150000Y-83095000D01*
X99850000Y-89215000D02*
X96150000Y-89215000D01*
X99850000Y-83095000D02*
X99850000Y-89215000D01*
X96150000Y-83095000D02*
X99850000Y-83095000D01*
X96150000Y-89215000D02*
X96150000Y-83095000D01*
X105000000Y-57320000D02*
X105800000Y-57320000D01*
X105000000Y-53880000D02*
X105800000Y-53880000D01*
X53490000Y-127853733D02*
X53490000Y-128196267D01*
X54510000Y-127853733D02*
X54510000Y-128196267D01*
X136475000Y-62456267D02*
X136475000Y-62113733D01*
X135455000Y-62456267D02*
X135455000Y-62113733D01*
X138985000Y-62456267D02*
X138985000Y-62113733D01*
X137965000Y-62456267D02*
X137965000Y-62113733D01*
X118625000Y-63171267D02*
X118625000Y-62828733D01*
X117605000Y-63171267D02*
X117605000Y-62828733D01*
X132115000Y-63171267D02*
X132115000Y-62828733D01*
X131095000Y-63171267D02*
X131095000Y-62828733D01*
X129510000Y-63171267D02*
X129510000Y-62828733D01*
X128490000Y-63171267D02*
X128490000Y-62828733D01*
X58171267Y-100490000D02*
X57828733Y-100490000D01*
X58171267Y-101510000D02*
X57828733Y-101510000D01*
X58171267Y-102490000D02*
X57828733Y-102490000D01*
X58171267Y-103510000D02*
X57828733Y-103510000D01*
X141510000Y-116676267D02*
X141510000Y-116333733D01*
X140490000Y-116676267D02*
X140490000Y-116333733D01*
X89490000Y-100703733D02*
X89490000Y-101046267D01*
X90510000Y-100703733D02*
X90510000Y-101046267D01*
X81490000Y-100703733D02*
X81490000Y-101046267D01*
X82510000Y-100703733D02*
X82510000Y-101046267D01*
X73490000Y-100828733D02*
X73490000Y-101171267D01*
X74510000Y-100828733D02*
X74510000Y-101171267D01*
X108046267Y-77490000D02*
X107703733Y-77490000D01*
X108046267Y-78510000D02*
X107703733Y-78510000D01*
X103490000Y-88828733D02*
X103490000Y-89171267D01*
X104510000Y-88828733D02*
X104510000Y-89171267D01*
X94490000Y-85828733D02*
X94490000Y-86171267D01*
X95510000Y-85828733D02*
X95510000Y-86171267D01*
X104510000Y-81171267D02*
X104510000Y-80828733D01*
X103490000Y-81171267D02*
X103490000Y-80828733D01*
X113490000Y-124828733D02*
X113490000Y-125171267D01*
X114510000Y-124828733D02*
X114510000Y-125171267D01*
X119510000Y-129171267D02*
X119510000Y-128828733D01*
X118490000Y-129171267D02*
X118490000Y-128828733D01*
X107828733Y-124510000D02*
X108171267Y-124510000D01*
X107828733Y-123490000D02*
X108171267Y-123490000D01*
X75828733Y-61510000D02*
X76171267Y-61510000D01*
X75828733Y-60490000D02*
X76171267Y-60490000D01*
X76171267Y-55490000D02*
X75828733Y-55490000D01*
X76171267Y-56510000D02*
X75828733Y-56510000D01*
X74510000Y-74171267D02*
X74510000Y-73828733D01*
X73490000Y-74171267D02*
X73490000Y-73828733D01*
X77510000Y-69171267D02*
X77510000Y-68828733D01*
X76490000Y-69171267D02*
X76490000Y-68828733D01*
X74510000Y-69046267D02*
X74510000Y-68703733D01*
X73490000Y-69046267D02*
X73490000Y-68703733D01*
X55490000Y-123828733D02*
X55490000Y-124171267D01*
X56510000Y-123828733D02*
X56510000Y-124171267D01*
X55453733Y-120935000D02*
X55796267Y-120935000D01*
X55453733Y-119915000D02*
X55796267Y-119915000D01*
X55453733Y-118425000D02*
X55796267Y-118425000D01*
X55453733Y-117405000D02*
X55796267Y-117405000D01*
X126510000Y-100171267D02*
X126510000Y-99828733D01*
X125490000Y-100171267D02*
X125490000Y-99828733D01*
X134510000Y-107171267D02*
X134510000Y-106828733D01*
X133490000Y-107171267D02*
X133490000Y-106828733D01*
X132510000Y-107046267D02*
X132510000Y-106703733D01*
X131490000Y-107046267D02*
X131490000Y-106703733D01*
X59828733Y-94510000D02*
X60171267Y-94510000D01*
X59828733Y-93490000D02*
X60171267Y-93490000D01*
X70171267Y-85490000D02*
X69828733Y-85490000D01*
X70171267Y-86510000D02*
X69828733Y-86510000D01*
X70171267Y-87490000D02*
X69828733Y-87490000D01*
X70171267Y-88510000D02*
X69828733Y-88510000D01*
D13*
X117698500Y-124047500D02*
X118358900Y-124047500D01*
X117698500Y-125952500D02*
X118358900Y-125952500D01*
X116301500Y-125000000D02*
X115641100Y-125000000D01*
X116301500Y-126498600D02*
X116301500Y-123501400D01*
X116301500Y-123501400D02*
X117698500Y-123501400D01*
X117698500Y-123501400D02*
X117698500Y-126498600D01*
X117698500Y-126498600D02*
X116301500Y-126498600D01*
X116698500Y-128047500D02*
X117358900Y-128047500D01*
X116698500Y-129952500D02*
X117358900Y-129952500D01*
X115301500Y-129000000D02*
X114641100Y-129000000D01*
X115301500Y-130498600D02*
X115301500Y-127501400D01*
X115301500Y-127501400D02*
X116698500Y-127501400D01*
X116698500Y-127501400D02*
X116698500Y-130498600D01*
X116698500Y-130498600D02*
X115301500Y-130498600D01*
D10*
X126000000Y-62300000D02*
X126000000Y-63700000D01*
X125300000Y-64400000D02*
X124700000Y-64400000D01*
X124000000Y-63700000D02*
X124000000Y-62300000D01*
X124700000Y-61600000D02*
X125300000Y-61600000D01*
X125300000Y-61600000D02*
G75*
G02X126000000Y-62300000I0J-700000D01*
G01*
X124000000Y-62300000D02*
G75*
G02X124700000Y-61600000I700000J0D01*
G01*
X124700000Y-64400000D02*
G75*
G02X124000000Y-63700000I0J700000D01*
G01*
X126000000Y-63700000D02*
G75*
G02X125300000Y-64400000I-700000J0D01*
G01*
X140000000Y-113050000D02*
X140000000Y-111650000D01*
X140700000Y-110950000D02*
X141300000Y-110950000D01*
X142000000Y-111650000D02*
X142000000Y-113050000D01*
X141300000Y-113750000D02*
X140700000Y-113750000D01*
X140700000Y-113750000D02*
G75*
G02X140000000Y-113050000I0J700000D01*
G01*
X142000000Y-113050000D02*
G75*
G02X141300000Y-113750000I-700000J0D01*
G01*
X141300000Y-110950000D02*
G75*
G02X142000000Y-111650000I0J-700000D01*
G01*
X140000000Y-111650000D02*
G75*
G02X140700000Y-110950000I700000J0D01*
G01*
X71000000Y-66875000D02*
X71000000Y-69675000D01*
X71000000Y-69675000D02*
X69000000Y-69675000D01*
X69000000Y-69675000D02*
X69000000Y-66875000D01*
X69000000Y-66875000D02*
X71000000Y-66875000D01*
X74050000Y-130000000D02*
X69950000Y-130000000D01*
X69950000Y-130000000D02*
X69950000Y-128000000D01*
X69950000Y-128000000D02*
X74050000Y-128000000D01*
X74050000Y-128000000D02*
X74050000Y-130000000D01*
X73300000Y-127800000D02*
X73600000Y-127500000D01*
X73600000Y-127500000D02*
X73000000Y-127500000D01*
X73300000Y-127800000D02*
X73000000Y-127500000D01*
X74050000Y-126000000D02*
X69950000Y-126000000D01*
X69950000Y-126000000D02*
X69950000Y-124000000D01*
X69950000Y-124000000D02*
X74050000Y-124000000D01*
X74050000Y-124000000D02*
X74050000Y-126000000D01*
X73300000Y-123800000D02*
X73600000Y-123500000D01*
X73600000Y-123500000D02*
X73000000Y-123500000D01*
X73300000Y-123800000D02*
X73000000Y-123500000D01*
X74050000Y-122000000D02*
X69950000Y-122000000D01*
X69950000Y-122000000D02*
X69950000Y-120000000D01*
X69950000Y-120000000D02*
X74050000Y-120000000D01*
X74050000Y-120000000D02*
X74050000Y-122000000D01*
X73300000Y-119800000D02*
X73600000Y-119500000D01*
X73600000Y-119500000D02*
X73000000Y-119500000D01*
X73300000Y-119800000D02*
X73000000Y-119500000D01*
X52000000Y-124700000D02*
X52000000Y-123300000D01*
X52700000Y-122600000D02*
X53300000Y-122600000D01*
X54000000Y-123300000D02*
X54000000Y-124700000D01*
X53300000Y-125400000D02*
X52700000Y-125400000D01*
X52700000Y-125400000D02*
G75*
G02X52000000Y-124700000I0J700000D01*
G01*
X54000000Y-124700000D02*
G75*
G02X53300000Y-125400000I-700000J0D01*
G01*
X53300000Y-122600000D02*
G75*
G02X54000000Y-123300000I0J-700000D01*
G01*
X52000000Y-123300000D02*
G75*
G02X52700000Y-122600000I700000J0D01*
G01*
X129465000Y-99300000D02*
X129465000Y-100700000D01*
X128765000Y-101400000D02*
X128165000Y-101400000D01*
X127465000Y-100700000D02*
X127465000Y-99300000D01*
X128165000Y-98600000D02*
X128765000Y-98600000D01*
X128765000Y-98600000D02*
G75*
G02X129465000Y-99300000I0J-700000D01*
G01*
X127465000Y-99300000D02*
G75*
G02X128165000Y-98600000I700000J0D01*
G01*
X128165000Y-101400000D02*
G75*
G02X127465000Y-100700000I0J700000D01*
G01*
X129465000Y-100700000D02*
G75*
G02X128765000Y-101400000I-700000J0D01*
G01*
X65000000Y-83300000D02*
X65000000Y-84700000D01*
X64300000Y-85400000D02*
X63700000Y-85400000D01*
X63000000Y-84700000D02*
X63000000Y-83300000D01*
X63700000Y-82600000D02*
X64300000Y-82600000D01*
X64300000Y-82600000D02*
G75*
G02X65000000Y-83300000I0J-700000D01*
G01*
X63000000Y-83300000D02*
G75*
G02X63700000Y-82600000I700000J0D01*
G01*
X63700000Y-85400000D02*
G75*
G02X63000000Y-84700000I0J700000D01*
G01*
X65000000Y-84700000D02*
G75*
G02X64300000Y-85400000I-700000J0D01*
G01*
X110730000Y-65580000D02*
X109400000Y-65580000D01*
X110730000Y-64250000D02*
X110730000Y-65580000D01*
X110730000Y-62980000D02*
X108070000Y-62980000D01*
X108070000Y-62980000D02*
X108070000Y-52760000D01*
X110730000Y-62980000D02*
X110730000Y-52760000D01*
X110730000Y-52760000D02*
X108070000Y-52760000D01*
X73330000Y-111670000D02*
X73330000Y-113000000D01*
X72000000Y-111670000D02*
X73330000Y-111670000D01*
X70730000Y-111670000D02*
X70730000Y-114330000D01*
X70730000Y-114330000D02*
X52890000Y-114330000D01*
X70730000Y-111670000D02*
X52890000Y-111670000D01*
X52890000Y-111670000D02*
X52890000Y-114330000D01*
X53070000Y-138730000D02*
X53070000Y-137400000D01*
X54400000Y-138730000D02*
X53070000Y-138730000D01*
X55670000Y-138730000D02*
X55670000Y-136070000D01*
X55670000Y-136070000D02*
X73510000Y-136070000D01*
X55670000Y-138730000D02*
X73510000Y-138730000D01*
X73510000Y-138730000D02*
X73510000Y-136070000D01*
X52890000Y-85240000D02*
X54000000Y-85240000D01*
X52890000Y-86000000D02*
X52890000Y-85240000D01*
X54563471Y-86760000D02*
X55110000Y-86760000D01*
X52890000Y-86760000D02*
X53436529Y-86760000D01*
X55110000Y-86760000D02*
X55110000Y-91775000D01*
X52890000Y-86760000D02*
X52890000Y-91775000D01*
X54307530Y-91775000D02*
X55110000Y-91775000D01*
X52890000Y-91775000D02*
X53692470Y-91775000D01*
D14*
X120665000Y-62900000D02*
X120665000Y-63100000D01*
D15*
X120765000Y-63050000D02*
X120565000Y-63050000D01*
X120365000Y-63200000D02*
X120965000Y-63200000D01*
X120665000Y-62800000D02*
X120365000Y-63200000D01*
X120465000Y-63100000D02*
X120865000Y-63100000D01*
X120965000Y-63200000D02*
X120665000Y-62800000D01*
D10*
X119930000Y-62200000D02*
X119930000Y-64485000D01*
X119930000Y-64485000D02*
X121400000Y-64485000D01*
X121400000Y-64485000D02*
X121400000Y-62200000D01*
D14*
X141000000Y-119900000D02*
X141000000Y-120100000D01*
D15*
X141100000Y-120050000D02*
X140900000Y-120050000D01*
X140700000Y-120200000D02*
X141300000Y-120200000D01*
X141000000Y-119800000D02*
X140700000Y-120200000D01*
X140800000Y-120100000D02*
X141200000Y-120100000D01*
X141300000Y-120200000D02*
X141000000Y-119800000D01*
D10*
X140265000Y-119200000D02*
X140265000Y-121485000D01*
X140265000Y-121485000D02*
X141735000Y-121485000D01*
X141735000Y-121485000D02*
X141735000Y-119200000D01*
X104735000Y-86535000D02*
X104735000Y-84075000D01*
X103265000Y-86535000D02*
X104735000Y-86535000D01*
X103265000Y-84075000D02*
X103265000Y-86535000D01*
D14*
X76312500Y-64000000D02*
X76112500Y-64000000D01*
D15*
X76162500Y-64100000D02*
X76162500Y-63900000D01*
X76012500Y-63700000D02*
X76012500Y-64300000D01*
X76412500Y-64000000D02*
X76012500Y-63700000D01*
X76112500Y-63800000D02*
X76112500Y-64200000D01*
X76012500Y-64300000D02*
X76412500Y-64000000D01*
D10*
X77012500Y-63265000D02*
X74727500Y-63265000D01*
X74727500Y-63265000D02*
X74727500Y-64735000D01*
X74727500Y-64735000D02*
X77012500Y-64735000D01*
D14*
X56000000Y-127900000D02*
X56000000Y-128100000D01*
D15*
X56100000Y-128050000D02*
X55900000Y-128050000D01*
X55700000Y-128200000D02*
X56300000Y-128200000D01*
X56000000Y-127800000D02*
X55700000Y-128200000D01*
X55800000Y-128100000D02*
X56200000Y-128100000D01*
X56300000Y-128200000D02*
X56000000Y-127800000D01*
D10*
X55265000Y-127200000D02*
X55265000Y-129485000D01*
X55265000Y-129485000D02*
X56735000Y-129485000D01*
X56735000Y-129485000D02*
X56735000Y-127200000D01*
D14*
X124000000Y-99900000D02*
X124000000Y-100100000D01*
D15*
X124100000Y-100050000D02*
X123900000Y-100050000D01*
X123700000Y-100200000D02*
X124300000Y-100200000D01*
X124000000Y-99800000D02*
X123700000Y-100200000D01*
X123800000Y-100100000D02*
X124200000Y-100100000D01*
X124300000Y-100200000D02*
X124000000Y-99800000D01*
D10*
X123265000Y-99200000D02*
X123265000Y-101485000D01*
X123265000Y-101485000D02*
X124735000Y-101485000D01*
X124735000Y-101485000D02*
X124735000Y-99200000D01*
D14*
X64100000Y-94000000D02*
X63900000Y-94000000D01*
D15*
X63950000Y-94100000D02*
X63950000Y-93900000D01*
X63800000Y-93700000D02*
X63800000Y-94300000D01*
X64200000Y-94000000D02*
X63800000Y-93700000D01*
X63900000Y-93800000D02*
X63900000Y-94200000D01*
X63800000Y-94300000D02*
X64200000Y-94000000D01*
D10*
X64800000Y-93265000D02*
X62515000Y-93265000D01*
X62515000Y-93265000D02*
X62515000Y-94735000D01*
X62515000Y-94735000D02*
X64800000Y-94735000D01*
X136710000Y-137261252D02*
X136710000Y-136738748D01*
X135290000Y-137261252D02*
X135290000Y-136738748D01*
X136710000Y-129261252D02*
X136710000Y-128738748D01*
X135290000Y-129261252D02*
X135290000Y-128738748D01*
X136710000Y-121261252D02*
X136710000Y-120738748D01*
X135290000Y-121261252D02*
X135290000Y-120738748D01*
X107828733Y-134635000D02*
X108171267Y-134635000D01*
X107828733Y-133615000D02*
X108171267Y-133615000D01*
X107828733Y-136510000D02*
X108171267Y-136510000D01*
X107828733Y-135490000D02*
X108171267Y-135490000D01*
X101510000Y-128371267D02*
X101510000Y-128028733D01*
X100490000Y-128371267D02*
X100490000Y-128028733D01*
X99510000Y-128371267D02*
X99510000Y-128028733D01*
X98490000Y-128371267D02*
X98490000Y-128028733D01*
X65043750Y-75241250D02*
X65043750Y-74453750D01*
X65437500Y-74847500D02*
X64650000Y-74847500D01*
X64410000Y-70654437D02*
X63345563Y-69590000D01*
X64410000Y-75345563D02*
X63345563Y-76410000D01*
X64410000Y-75345563D02*
X64410000Y-74060000D01*
X64410000Y-70654437D02*
X64410000Y-71940000D01*
X63345563Y-69590000D02*
X57590000Y-69590000D01*
X63345563Y-76410000D02*
X57590000Y-76410000D01*
X57590000Y-76410000D02*
X57590000Y-74060000D01*
X57590000Y-69590000D02*
X57590000Y-71940000D01*
X76171267Y-57490000D02*
X75828733Y-57490000D01*
X76171267Y-58510000D02*
X75828733Y-58510000D01*
X62485000Y-119196267D02*
X62485000Y-118853733D01*
X61465000Y-119196267D02*
X61465000Y-118853733D01*
X59975000Y-119196267D02*
X59975000Y-118853733D01*
X58955000Y-119196267D02*
X58955000Y-118853733D01*
X132828733Y-99510000D02*
X133171267Y-99510000D01*
X132828733Y-98490000D02*
X133171267Y-98490000D01*
X66490000Y-87703733D02*
X66490000Y-88046267D01*
X67510000Y-87703733D02*
X67510000Y-88046267D01*
D11*
X127452380Y-138214285D02*
X126452380Y-138214285D01*
X126452380Y-137976190D01*
X126500000Y-137833333D01*
X126595238Y-137738095D01*
X126690476Y-137690476D01*
X126880952Y-137642857D01*
X127023809Y-137642857D01*
X127214285Y-137690476D01*
X127309523Y-137738095D01*
X127404761Y-137833333D01*
X127452380Y-137976190D01*
X127452380Y-138214285D01*
X127452380Y-136690476D02*
X127452380Y-137261904D01*
X127452380Y-136976190D02*
X126452380Y-136976190D01*
X126595238Y-137071428D01*
X126690476Y-137166666D01*
X126738095Y-137261904D01*
X126452380Y-136071428D02*
X126452380Y-135976190D01*
X126500000Y-135880952D01*
X126547619Y-135833333D01*
X126642857Y-135785714D01*
X126833333Y-135738095D01*
X127071428Y-135738095D01*
X127261904Y-135785714D01*
X127357142Y-135833333D01*
X127404761Y-135880952D01*
X127452380Y-135976190D01*
X127452380Y-136071428D01*
X127404761Y-136166666D01*
X127357142Y-136214285D01*
X127261904Y-136261904D01*
X127071428Y-136309523D01*
X126833333Y-136309523D01*
X126642857Y-136261904D01*
X126547619Y-136214285D01*
X126500000Y-136166666D01*
X126452380Y-136071428D01*
X133052380Y-132564285D02*
X133052380Y-133135714D01*
X133052380Y-132850000D02*
X132052380Y-132850000D01*
X132195238Y-132945238D01*
X132290476Y-133040476D01*
X132338095Y-133135714D01*
X127452380Y-129938095D02*
X126452380Y-129938095D01*
X126452380Y-129700000D01*
X126500000Y-129557142D01*
X126595238Y-129461904D01*
X126690476Y-129414285D01*
X126880952Y-129366666D01*
X127023809Y-129366666D01*
X127214285Y-129414285D01*
X127309523Y-129461904D01*
X127404761Y-129557142D01*
X127452380Y-129700000D01*
X127452380Y-129938095D01*
X127452380Y-128890476D02*
X127452380Y-128700000D01*
X127404761Y-128604761D01*
X127357142Y-128557142D01*
X127214285Y-128461904D01*
X127023809Y-128414285D01*
X126642857Y-128414285D01*
X126547619Y-128461904D01*
X126500000Y-128509523D01*
X126452380Y-128604761D01*
X126452380Y-128795238D01*
X126500000Y-128890476D01*
X126547619Y-128938095D01*
X126642857Y-128985714D01*
X126880952Y-128985714D01*
X126976190Y-128938095D01*
X127023809Y-128890476D01*
X127071428Y-128795238D01*
X127071428Y-128604761D01*
X127023809Y-128509523D01*
X126976190Y-128461904D01*
X126880952Y-128414285D01*
X133052380Y-124564285D02*
X133052380Y-125135714D01*
X133052380Y-124850000D02*
X132052380Y-124850000D01*
X132195238Y-124945238D01*
X132290476Y-125040476D01*
X132338095Y-125135714D01*
X127452380Y-121938095D02*
X126452380Y-121938095D01*
X126452380Y-121700000D01*
X126500000Y-121557142D01*
X126595238Y-121461904D01*
X126690476Y-121414285D01*
X126880952Y-121366666D01*
X127023809Y-121366666D01*
X127214285Y-121414285D01*
X127309523Y-121461904D01*
X127404761Y-121557142D01*
X127452380Y-121700000D01*
X127452380Y-121938095D01*
X126880952Y-120795238D02*
X126833333Y-120890476D01*
X126785714Y-120938095D01*
X126690476Y-120985714D01*
X126642857Y-120985714D01*
X126547619Y-120938095D01*
X126500000Y-120890476D01*
X126452380Y-120795238D01*
X126452380Y-120604761D01*
X126500000Y-120509523D01*
X126547619Y-120461904D01*
X126642857Y-120414285D01*
X126690476Y-120414285D01*
X126785714Y-120461904D01*
X126833333Y-120509523D01*
X126880952Y-120604761D01*
X126880952Y-120795238D01*
X126928571Y-120890476D01*
X126976190Y-120938095D01*
X127071428Y-120985714D01*
X127261904Y-120985714D01*
X127357142Y-120938095D01*
X127404761Y-120890476D01*
X127452380Y-120795238D01*
X127452380Y-120604761D01*
X127404761Y-120509523D01*
X127357142Y-120461904D01*
X127261904Y-120414285D01*
X127071428Y-120414285D01*
X126976190Y-120461904D01*
X126928571Y-120509523D01*
X126880952Y-120604761D01*
X133052380Y-116564285D02*
X133052380Y-117135714D01*
X133052380Y-116850000D02*
X132052380Y-116850000D01*
X132195238Y-116945238D01*
X132290476Y-117040476D01*
X132338095Y-117135714D01*
X83079761Y-137258333D02*
X83127380Y-137115476D01*
X83127380Y-136877380D01*
X83079761Y-136782142D01*
X83032142Y-136734523D01*
X82936904Y-136686904D01*
X82841666Y-136686904D01*
X82746428Y-136734523D01*
X82698809Y-136782142D01*
X82651190Y-136877380D01*
X82603571Y-137067857D01*
X82555952Y-137163095D01*
X82508333Y-137210714D01*
X82413095Y-137258333D01*
X82317857Y-137258333D01*
X82222619Y-137210714D01*
X82175000Y-137163095D01*
X82127380Y-137067857D01*
X82127380Y-136829761D01*
X82175000Y-136686904D01*
X82127380Y-136353571D02*
X83127380Y-136115476D01*
X82413095Y-135925000D01*
X83127380Y-135734523D01*
X82127380Y-135496428D01*
X82127380Y-134686904D02*
X82127380Y-134877380D01*
X82175000Y-134972619D01*
X82222619Y-135020238D01*
X82365476Y-135115476D01*
X82555952Y-135163095D01*
X82936904Y-135163095D01*
X83032142Y-135115476D01*
X83079761Y-135067857D01*
X83127380Y-134972619D01*
X83127380Y-134782142D01*
X83079761Y-134686904D01*
X83032142Y-134639285D01*
X82936904Y-134591666D01*
X82698809Y-134591666D01*
X82603571Y-134639285D01*
X82555952Y-134686904D01*
X82508333Y-134782142D01*
X82508333Y-134972619D01*
X82555952Y-135067857D01*
X82603571Y-135115476D01*
X82698809Y-135163095D01*
X95252379Y-117642858D02*
X94776189Y-117976191D01*
X95252379Y-118214286D02*
X94252379Y-118214286D01*
X94252379Y-117833334D01*
X94299999Y-117738096D01*
X94347618Y-117690477D01*
X94442856Y-117642858D01*
X94585713Y-117642858D01*
X94680951Y-117690477D01*
X94728570Y-117738096D01*
X94776189Y-117833334D01*
X94776189Y-118214286D01*
X94252379Y-117309524D02*
X94252379Y-116690477D01*
X94633332Y-117023810D01*
X94633332Y-116880953D01*
X94680951Y-116785715D01*
X94728570Y-116738096D01*
X94823808Y-116690477D01*
X95061903Y-116690477D01*
X95157141Y-116738096D01*
X95204760Y-116785715D01*
X95252379Y-116880953D01*
X95252379Y-117166667D01*
X95204760Y-117261905D01*
X95157141Y-117309524D01*
X94252379Y-116357143D02*
X94252379Y-115738096D01*
X94633332Y-116071429D01*
X94633332Y-115928572D01*
X94680951Y-115833334D01*
X94728570Y-115785715D01*
X94823808Y-115738096D01*
X95061903Y-115738096D01*
X95157141Y-115785715D01*
X95204760Y-115833334D01*
X95252379Y-115928572D01*
X95252379Y-116214286D01*
X95204760Y-116309524D01*
X95157141Y-116357143D01*
X89252379Y-113642858D02*
X88776189Y-113976191D01*
X89252379Y-114214286D02*
X88252379Y-114214286D01*
X88252379Y-113833334D01*
X88299999Y-113738096D01*
X88347618Y-113690477D01*
X88442856Y-113642858D01*
X88585713Y-113642858D01*
X88680951Y-113690477D01*
X88728570Y-113738096D01*
X88776189Y-113833334D01*
X88776189Y-114214286D01*
X88252379Y-113309524D02*
X88252379Y-112690477D01*
X88633332Y-113023810D01*
X88633332Y-112880953D01*
X88680951Y-112785715D01*
X88728570Y-112738096D01*
X88823808Y-112690477D01*
X89061903Y-112690477D01*
X89157141Y-112738096D01*
X89204760Y-112785715D01*
X89252379Y-112880953D01*
X89252379Y-113166667D01*
X89204760Y-113261905D01*
X89157141Y-113309524D01*
X88347618Y-112309524D02*
X88299999Y-112261905D01*
X88252379Y-112166667D01*
X88252379Y-111928572D01*
X88299999Y-111833334D01*
X88347618Y-111785715D01*
X88442856Y-111738096D01*
X88538094Y-111738096D01*
X88680951Y-111785715D01*
X89252379Y-112357143D01*
X89252379Y-111738096D01*
X86852379Y-113842858D02*
X86376189Y-114176191D01*
X86852379Y-114414286D02*
X85852379Y-114414286D01*
X85852379Y-114033334D01*
X85899999Y-113938096D01*
X85947618Y-113890477D01*
X86042856Y-113842858D01*
X86185713Y-113842858D01*
X86280951Y-113890477D01*
X86328570Y-113938096D01*
X86376189Y-114033334D01*
X86376189Y-114414286D01*
X85852379Y-113509524D02*
X85852379Y-112890477D01*
X86233332Y-113223810D01*
X86233332Y-113080953D01*
X86280951Y-112985715D01*
X86328570Y-112938096D01*
X86423808Y-112890477D01*
X86661903Y-112890477D01*
X86757141Y-112938096D01*
X86804760Y-112985715D01*
X86852379Y-113080953D01*
X86852379Y-113366667D01*
X86804760Y-113461905D01*
X86757141Y-113509524D01*
X86852379Y-111938096D02*
X86852379Y-112509524D01*
X86852379Y-112223810D02*
X85852379Y-112223810D01*
X85995237Y-112319048D01*
X86090475Y-112414286D01*
X86138094Y-112509524D01*
X81932380Y-121434523D02*
X82646666Y-121434523D01*
X82789523Y-121482142D01*
X82884761Y-121577380D01*
X82932380Y-121720238D01*
X82932380Y-121815476D01*
X82932380Y-120434523D02*
X82932380Y-121005952D01*
X82932380Y-120720238D02*
X81932380Y-120720238D01*
X82075238Y-120815476D01*
X82170476Y-120910714D01*
X82218095Y-121005952D01*
X81932380Y-119815476D02*
X81932380Y-119720238D01*
X81980000Y-119625000D01*
X82027619Y-119577380D01*
X82122857Y-119529761D01*
X82313333Y-119482142D01*
X82551428Y-119482142D01*
X82741904Y-119529761D01*
X82837142Y-119577380D01*
X82884761Y-119625000D01*
X82932380Y-119720238D01*
X82932380Y-119815476D01*
X82884761Y-119910714D01*
X82837142Y-119958333D01*
X82741904Y-120005952D01*
X82551428Y-120053571D01*
X82313333Y-120053571D01*
X82122857Y-120005952D01*
X82027619Y-119958333D01*
X81980000Y-119910714D01*
X81932380Y-119815476D01*
X92757141Y-117842858D02*
X92804760Y-117890477D01*
X92852379Y-118033334D01*
X92852379Y-118128572D01*
X92804760Y-118271429D01*
X92709522Y-118366667D01*
X92614284Y-118414286D01*
X92423808Y-118461905D01*
X92280951Y-118461905D01*
X92090475Y-118414286D01*
X91995237Y-118366667D01*
X91899999Y-118271429D01*
X91852379Y-118128572D01*
X91852379Y-118033334D01*
X91899999Y-117890477D01*
X91947618Y-117842858D01*
X92852379Y-116890477D02*
X92852379Y-117461905D01*
X92852379Y-117176191D02*
X91852379Y-117176191D01*
X91995237Y-117271429D01*
X92090475Y-117366667D01*
X92138094Y-117461905D01*
X91852379Y-115985715D02*
X91852379Y-116461905D01*
X92328570Y-116509524D01*
X92280951Y-116461905D01*
X92233332Y-116366667D01*
X92233332Y-116128572D01*
X92280951Y-116033334D01*
X92328570Y-115985715D01*
X92423808Y-115938096D01*
X92661903Y-115938096D01*
X92757141Y-115985715D01*
X92804760Y-116033334D01*
X92852379Y-116128572D01*
X92852379Y-116366667D01*
X92804760Y-116461905D01*
X92757141Y-116509524D01*
X84357141Y-113842858D02*
X84404760Y-113890477D01*
X84452379Y-114033334D01*
X84452379Y-114128572D01*
X84404760Y-114271429D01*
X84309522Y-114366667D01*
X84214284Y-114414286D01*
X84023808Y-114461905D01*
X83880951Y-114461905D01*
X83690475Y-114414286D01*
X83595237Y-114366667D01*
X83499999Y-114271429D01*
X83452379Y-114128572D01*
X83452379Y-114033334D01*
X83499999Y-113890477D01*
X83547618Y-113842858D01*
X84452379Y-112890477D02*
X84452379Y-113461905D01*
X84452379Y-113176191D02*
X83452379Y-113176191D01*
X83595237Y-113271429D01*
X83690475Y-113366667D01*
X83738094Y-113461905D01*
X83785713Y-112033334D02*
X84452379Y-112033334D01*
X83404760Y-112271429D02*
X84119046Y-112509524D01*
X84119046Y-111890477D01*
X90957141Y-117842858D02*
X91004760Y-117890477D01*
X91052379Y-118033334D01*
X91052379Y-118128572D01*
X91004760Y-118271429D01*
X90909522Y-118366667D01*
X90814284Y-118414286D01*
X90623808Y-118461905D01*
X90480951Y-118461905D01*
X90290475Y-118414286D01*
X90195237Y-118366667D01*
X90099999Y-118271429D01*
X90052379Y-118128572D01*
X90052379Y-118033334D01*
X90099999Y-117890477D01*
X90147618Y-117842858D01*
X91052379Y-116890477D02*
X91052379Y-117461905D01*
X91052379Y-117176191D02*
X90052379Y-117176191D01*
X90195237Y-117271429D01*
X90290475Y-117366667D01*
X90338094Y-117461905D01*
X90052379Y-116557143D02*
X90052379Y-115938096D01*
X90433332Y-116271429D01*
X90433332Y-116128572D01*
X90480951Y-116033334D01*
X90528570Y-115985715D01*
X90623808Y-115938096D01*
X90861903Y-115938096D01*
X90957141Y-115985715D01*
X91004760Y-116033334D01*
X91052379Y-116128572D01*
X91052379Y-116414286D01*
X91004760Y-116509524D01*
X90957141Y-116557143D01*
X57838095Y-52452380D02*
X57838095Y-53261904D01*
X57885714Y-53357142D01*
X57933333Y-53404761D01*
X58028571Y-53452380D01*
X58219047Y-53452380D01*
X58314285Y-53404761D01*
X58361904Y-53357142D01*
X58409523Y-53261904D01*
X58409523Y-52452380D01*
X59361904Y-52452380D02*
X58885714Y-52452380D01*
X58838095Y-52928571D01*
X58885714Y-52880952D01*
X58980952Y-52833333D01*
X59219047Y-52833333D01*
X59314285Y-52880952D01*
X59361904Y-52928571D01*
X59409523Y-53023809D01*
X59409523Y-53261904D01*
X59361904Y-53357142D01*
X59314285Y-53404761D01*
X59219047Y-53452380D01*
X58980952Y-53452380D01*
X58885714Y-53404761D01*
X58838095Y-53357142D01*
X69690476Y-52822380D02*
X69690476Y-53536666D01*
X69642857Y-53679523D01*
X69547619Y-53774761D01*
X69404761Y-53822380D01*
X69309523Y-53822380D01*
X70690476Y-53822380D02*
X70119047Y-53822380D01*
X70404761Y-53822380D02*
X70404761Y-52822380D01*
X70309523Y-52965238D01*
X70214285Y-53060476D01*
X70119047Y-53108095D01*
X71023809Y-52822380D02*
X71642857Y-52822380D01*
X71309523Y-53203333D01*
X71452380Y-53203333D01*
X71547619Y-53250952D01*
X71595238Y-53298571D01*
X71642857Y-53393809D01*
X71642857Y-53631904D01*
X71595238Y-53727142D01*
X71547619Y-53774761D01*
X71452380Y-53822380D01*
X71166666Y-53822380D01*
X71071428Y-53774761D01*
X71023809Y-53727142D01*
X65040476Y-52822380D02*
X65040476Y-53536666D01*
X64992857Y-53679523D01*
X64897619Y-53774761D01*
X64754761Y-53822380D01*
X64659523Y-53822380D01*
X66040476Y-53822380D02*
X65469047Y-53822380D01*
X65754761Y-53822380D02*
X65754761Y-52822380D01*
X65659523Y-52965238D01*
X65564285Y-53060476D01*
X65469047Y-53108095D01*
X66421428Y-52917619D02*
X66469047Y-52870000D01*
X66564285Y-52822380D01*
X66802380Y-52822380D01*
X66897619Y-52870000D01*
X66945238Y-52917619D01*
X66992857Y-53012857D01*
X66992857Y-53108095D01*
X66945238Y-53250952D01*
X66373809Y-53822380D01*
X66992857Y-53822380D01*
X66433333Y-63157142D02*
X66385714Y-63204761D01*
X66242857Y-63252380D01*
X66147619Y-63252380D01*
X66004761Y-63204761D01*
X65909523Y-63109523D01*
X65861904Y-63014285D01*
X65814285Y-62823809D01*
X65814285Y-62680952D01*
X65861904Y-62490476D01*
X65909523Y-62395238D01*
X66004761Y-62300000D01*
X66147619Y-62252380D01*
X66242857Y-62252380D01*
X66385714Y-62300000D01*
X66433333Y-62347619D01*
X67004761Y-62680952D02*
X66909523Y-62633333D01*
X66861904Y-62585714D01*
X66814285Y-62490476D01*
X66814285Y-62442857D01*
X66861904Y-62347619D01*
X66909523Y-62300000D01*
X67004761Y-62252380D01*
X67195238Y-62252380D01*
X67290476Y-62300000D01*
X67338095Y-62347619D01*
X67385714Y-62442857D01*
X67385714Y-62490476D01*
X67338095Y-62585714D01*
X67290476Y-62633333D01*
X67195238Y-62680952D01*
X67004761Y-62680952D01*
X66909523Y-62728571D01*
X66861904Y-62776190D01*
X66814285Y-62871428D01*
X66814285Y-63061904D01*
X66861904Y-63157142D01*
X66909523Y-63204761D01*
X67004761Y-63252380D01*
X67195238Y-63252380D01*
X67290476Y-63204761D01*
X67338095Y-63157142D01*
X67385714Y-63061904D01*
X67385714Y-62871428D01*
X67338095Y-62776190D01*
X67290476Y-62728571D01*
X67195238Y-62680952D01*
X52633333Y-64957142D02*
X52585714Y-65004761D01*
X52442857Y-65052380D01*
X52347619Y-65052380D01*
X52204761Y-65004761D01*
X52109523Y-64909523D01*
X52061904Y-64814285D01*
X52014285Y-64623809D01*
X52014285Y-64480952D01*
X52061904Y-64290476D01*
X52109523Y-64195238D01*
X52204761Y-64100000D01*
X52347619Y-64052380D01*
X52442857Y-64052380D01*
X52585714Y-64100000D01*
X52633333Y-64147619D01*
X52966666Y-64052380D02*
X53633333Y-64052380D01*
X53204761Y-65052380D01*
D15*
X127390476Y-93561904D02*
X127390476Y-94209523D01*
X127428571Y-94285714D01*
X127466666Y-94323809D01*
X127542857Y-94361904D01*
X127695238Y-94361904D01*
X127771428Y-94323809D01*
X127809523Y-94285714D01*
X127847619Y-94209523D01*
X127847619Y-93561904D01*
X128342857Y-93904761D02*
X128266666Y-93866666D01*
X128228571Y-93828571D01*
X128190476Y-93752380D01*
X128190476Y-93714285D01*
X128228571Y-93638095D01*
X128266666Y-93600000D01*
X128342857Y-93561904D01*
X128495238Y-93561904D01*
X128571428Y-93600000D01*
X128609523Y-93638095D01*
X128647619Y-93714285D01*
X128647619Y-93752380D01*
X128609523Y-93828571D01*
X128571428Y-93866666D01*
X128495238Y-93904761D01*
X128342857Y-93904761D01*
X128266666Y-93942857D01*
X128228571Y-93980952D01*
X128190476Y-94057142D01*
X128190476Y-94209523D01*
X128228571Y-94285714D01*
X128266666Y-94323809D01*
X128342857Y-94361904D01*
X128495238Y-94361904D01*
X128571428Y-94323809D01*
X128609523Y-94285714D01*
X128647619Y-94209523D01*
X128647619Y-94057142D01*
X128609523Y-93980952D01*
X128571428Y-93942857D01*
X128495238Y-93904761D01*
D11*
X129674761Y-71841619D02*
X129722380Y-71698762D01*
X129722380Y-71460666D01*
X129674761Y-71365428D01*
X129627142Y-71317809D01*
X129531904Y-71270190D01*
X129436666Y-71270190D01*
X129341428Y-71317809D01*
X129293809Y-71365428D01*
X129246190Y-71460666D01*
X129198571Y-71651143D01*
X129150952Y-71746381D01*
X129103333Y-71794000D01*
X129008095Y-71841619D01*
X128912857Y-71841619D01*
X128817619Y-71794000D01*
X128770000Y-71746381D01*
X128722380Y-71651143D01*
X128722380Y-71413047D01*
X128770000Y-71270190D01*
X129627142Y-70270190D02*
X129674761Y-70317809D01*
X129722380Y-70460666D01*
X129722380Y-70555904D01*
X129674761Y-70698762D01*
X129579523Y-70794000D01*
X129484285Y-70841619D01*
X129293809Y-70889238D01*
X129150952Y-70889238D01*
X128960476Y-70841619D01*
X128865238Y-70794000D01*
X128770000Y-70698762D01*
X128722380Y-70555904D01*
X128722380Y-70460666D01*
X128770000Y-70317809D01*
X128817619Y-70270190D01*
X129722380Y-69365428D02*
X129722380Y-69841619D01*
X128722380Y-69841619D01*
X132214761Y-71889237D02*
X132262380Y-71746380D01*
X132262380Y-71508285D01*
X132214761Y-71413047D01*
X132167142Y-71365428D01*
X132071904Y-71317809D01*
X131976666Y-71317809D01*
X131881428Y-71365428D01*
X131833809Y-71413047D01*
X131786190Y-71508285D01*
X131738571Y-71698761D01*
X131690952Y-71793999D01*
X131643333Y-71841618D01*
X131548095Y-71889237D01*
X131452857Y-71889237D01*
X131357619Y-71841618D01*
X131310000Y-71793999D01*
X131262380Y-71698761D01*
X131262380Y-71460666D01*
X131310000Y-71317809D01*
X132262380Y-70889237D02*
X131262380Y-70889237D01*
X131262380Y-70651142D01*
X131310000Y-70508285D01*
X131405238Y-70413047D01*
X131500476Y-70365428D01*
X131690952Y-70317809D01*
X131833809Y-70317809D01*
X132024285Y-70365428D01*
X132119523Y-70413047D01*
X132214761Y-70508285D01*
X132262380Y-70651142D01*
X132262380Y-70889237D01*
X131976666Y-69936856D02*
X131976666Y-69460666D01*
X132262380Y-70032094D02*
X131262380Y-69698761D01*
X132262380Y-69365428D01*
X123690000Y-71555904D02*
X123642380Y-71651142D01*
X123642380Y-71794000D01*
X123690000Y-71936857D01*
X123785238Y-72032095D01*
X123880476Y-72079714D01*
X124070952Y-72127333D01*
X124213809Y-72127333D01*
X124404285Y-72079714D01*
X124499523Y-72032095D01*
X124594761Y-71936857D01*
X124642380Y-71794000D01*
X124642380Y-71698761D01*
X124594761Y-71555904D01*
X124547142Y-71508285D01*
X124213809Y-71508285D01*
X124213809Y-71698761D01*
X124642380Y-71079714D02*
X123642380Y-71079714D01*
X124642380Y-70508285D01*
X123642380Y-70508285D01*
X124642380Y-70032095D02*
X123642380Y-70032095D01*
X123642380Y-69794000D01*
X123690000Y-69651142D01*
X123785238Y-69555904D01*
X123880476Y-69508285D01*
X124070952Y-69460666D01*
X124213809Y-69460666D01*
X124404285Y-69508285D01*
X124499523Y-69555904D01*
X124594761Y-69651142D01*
X124642380Y-69794000D01*
X124642380Y-70032095D01*
X126182380Y-72032095D02*
X127182380Y-71698762D01*
X126182380Y-71365428D01*
X127087142Y-70460666D02*
X127134761Y-70508285D01*
X127182380Y-70651142D01*
X127182380Y-70746381D01*
X127134761Y-70889238D01*
X127039523Y-70984476D01*
X126944285Y-71032095D01*
X126753809Y-71079714D01*
X126610952Y-71079714D01*
X126420476Y-71032095D01*
X126325238Y-70984476D01*
X126230000Y-70889238D01*
X126182380Y-70746381D01*
X126182380Y-70651142D01*
X126230000Y-70508285D01*
X126277619Y-70460666D01*
X127087142Y-69460666D02*
X127134761Y-69508285D01*
X127182380Y-69651142D01*
X127182380Y-69746381D01*
X127134761Y-69889238D01*
X127039523Y-69984476D01*
X126944285Y-70032095D01*
X126753809Y-70079714D01*
X126610952Y-70079714D01*
X126420476Y-70032095D01*
X126325238Y-69984476D01*
X126230000Y-69889238D01*
X126182380Y-69746381D01*
X126182380Y-69651142D01*
X126230000Y-69508285D01*
X126277619Y-69460666D01*
X132214761Y-71889237D02*
X132262380Y-71746380D01*
X132262380Y-71508285D01*
X132214761Y-71413047D01*
X132167142Y-71365428D01*
X132071904Y-71317809D01*
X131976666Y-71317809D01*
X131881428Y-71365428D01*
X131833809Y-71413047D01*
X131786190Y-71508285D01*
X131738571Y-71698761D01*
X131690952Y-71793999D01*
X131643333Y-71841618D01*
X131548095Y-71889237D01*
X131452857Y-71889237D01*
X131357619Y-71841618D01*
X131310000Y-71793999D01*
X131262380Y-71698761D01*
X131262380Y-71460666D01*
X131310000Y-71317809D01*
X132262380Y-70889237D02*
X131262380Y-70889237D01*
X131262380Y-70651142D01*
X131310000Y-70508285D01*
X131405238Y-70413047D01*
X131500476Y-70365428D01*
X131690952Y-70317809D01*
X131833809Y-70317809D01*
X132024285Y-70365428D01*
X132119523Y-70413047D01*
X132214761Y-70508285D01*
X132262380Y-70651142D01*
X132262380Y-70889237D01*
X131976666Y-69936856D02*
X131976666Y-69460666D01*
X132262380Y-70032094D02*
X131262380Y-69698761D01*
X132262380Y-69365428D01*
X129674761Y-71841619D02*
X129722380Y-71698762D01*
X129722380Y-71460666D01*
X129674761Y-71365428D01*
X129627142Y-71317809D01*
X129531904Y-71270190D01*
X129436666Y-71270190D01*
X129341428Y-71317809D01*
X129293809Y-71365428D01*
X129246190Y-71460666D01*
X129198571Y-71651143D01*
X129150952Y-71746381D01*
X129103333Y-71794000D01*
X129008095Y-71841619D01*
X128912857Y-71841619D01*
X128817619Y-71794000D01*
X128770000Y-71746381D01*
X128722380Y-71651143D01*
X128722380Y-71413047D01*
X128770000Y-71270190D01*
X129627142Y-70270190D02*
X129674761Y-70317809D01*
X129722380Y-70460666D01*
X129722380Y-70555904D01*
X129674761Y-70698762D01*
X129579523Y-70794000D01*
X129484285Y-70841619D01*
X129293809Y-70889238D01*
X129150952Y-70889238D01*
X128960476Y-70841619D01*
X128865238Y-70794000D01*
X128770000Y-70698762D01*
X128722380Y-70555904D01*
X128722380Y-70460666D01*
X128770000Y-70317809D01*
X128817619Y-70270190D01*
X129722380Y-69365428D02*
X129722380Y-69841619D01*
X128722380Y-69841619D01*
X126182380Y-72032095D02*
X127182380Y-71698762D01*
X126182380Y-71365428D01*
X127087142Y-70460666D02*
X127134761Y-70508285D01*
X127182380Y-70651142D01*
X127182380Y-70746381D01*
X127134761Y-70889238D01*
X127039523Y-70984476D01*
X126944285Y-71032095D01*
X126753809Y-71079714D01*
X126610952Y-71079714D01*
X126420476Y-71032095D01*
X126325238Y-70984476D01*
X126230000Y-70889238D01*
X126182380Y-70746381D01*
X126182380Y-70651142D01*
X126230000Y-70508285D01*
X126277619Y-70460666D01*
X127087142Y-69460666D02*
X127134761Y-69508285D01*
X127182380Y-69651142D01*
X127182380Y-69746381D01*
X127134761Y-69889238D01*
X127039523Y-69984476D01*
X126944285Y-70032095D01*
X126753809Y-70079714D01*
X126610952Y-70079714D01*
X126420476Y-70032095D01*
X126325238Y-69984476D01*
X126230000Y-69889238D01*
X126182380Y-69746381D01*
X126182380Y-69651142D01*
X126230000Y-69508285D01*
X126277619Y-69460666D01*
X123690000Y-71555904D02*
X123642380Y-71651142D01*
X123642380Y-71794000D01*
X123690000Y-71936857D01*
X123785238Y-72032095D01*
X123880476Y-72079714D01*
X124070952Y-72127333D01*
X124213809Y-72127333D01*
X124404285Y-72079714D01*
X124499523Y-72032095D01*
X124594761Y-71936857D01*
X124642380Y-71794000D01*
X124642380Y-71698761D01*
X124594761Y-71555904D01*
X124547142Y-71508285D01*
X124213809Y-71508285D01*
X124213809Y-71698761D01*
X124642380Y-71079714D02*
X123642380Y-71079714D01*
X124642380Y-70508285D01*
X123642380Y-70508285D01*
X124642380Y-70032095D02*
X123642380Y-70032095D01*
X123642380Y-69794000D01*
X123690000Y-69651142D01*
X123785238Y-69555904D01*
X123880476Y-69508285D01*
X124070952Y-69460666D01*
X124213809Y-69460666D01*
X124404285Y-69508285D01*
X124499523Y-69555904D01*
X124594761Y-69651142D01*
X124642380Y-69794000D01*
X124642380Y-70032095D01*
X83888095Y-48834880D02*
X83888095Y-49644404D01*
X83935714Y-49739642D01*
X83983333Y-49787261D01*
X84078571Y-49834880D01*
X84269047Y-49834880D01*
X84364285Y-49787261D01*
X84411904Y-49739642D01*
X84459523Y-49644404D01*
X84459523Y-48834880D01*
X85364285Y-49168214D02*
X85364285Y-49834880D01*
X85126190Y-48787261D02*
X84888095Y-49501547D01*
X85507142Y-49501547D01*
X113038594Y-131652380D02*
X113038594Y-132461904D01*
X113086213Y-132557142D01*
X113133832Y-132604761D01*
X113229070Y-132652380D01*
X113419546Y-132652380D01*
X113514784Y-132604761D01*
X113562403Y-132557142D01*
X113610022Y-132461904D01*
X113610022Y-131652380D01*
X113990975Y-131652380D02*
X114657641Y-131652380D01*
X114229070Y-132652380D01*
X73190476Y-84122380D02*
X73190476Y-84836666D01*
X73142857Y-84979523D01*
X73047619Y-85074761D01*
X72904761Y-85122380D01*
X72809523Y-85122380D01*
X74190476Y-85122380D02*
X73619047Y-85122380D01*
X73904761Y-85122380D02*
X73904761Y-84122380D01*
X73809523Y-84265238D01*
X73714285Y-84360476D01*
X73619047Y-84408095D01*
X75142857Y-85122380D02*
X74571428Y-85122380D01*
X74857142Y-85122380D02*
X74857142Y-84122380D01*
X74761904Y-84265238D01*
X74666666Y-84360476D01*
X74571428Y-84408095D01*
X75984523Y-89944761D02*
X76127380Y-89992380D01*
X76365476Y-89992380D01*
X76460714Y-89944761D01*
X76508333Y-89897142D01*
X76555952Y-89801904D01*
X76555952Y-89706666D01*
X76508333Y-89611428D01*
X76460714Y-89563809D01*
X76365476Y-89516190D01*
X76175000Y-89468571D01*
X76079761Y-89420952D01*
X76032142Y-89373333D01*
X75984523Y-89278095D01*
X75984523Y-89182857D01*
X76032142Y-89087619D01*
X76079761Y-89040000D01*
X76175000Y-88992380D01*
X76413095Y-88992380D01*
X76555952Y-89040000D01*
X77555952Y-89897142D02*
X77508333Y-89944761D01*
X77365476Y-89992380D01*
X77270238Y-89992380D01*
X77127380Y-89944761D01*
X77032142Y-89849523D01*
X76984523Y-89754285D01*
X76936904Y-89563809D01*
X76936904Y-89420952D01*
X76984523Y-89230476D01*
X77032142Y-89135238D01*
X77127380Y-89040000D01*
X77270238Y-88992380D01*
X77365476Y-88992380D01*
X77508333Y-89040000D01*
X77555952Y-89087619D01*
X78460714Y-89992380D02*
X77984523Y-89992380D01*
X77984523Y-88992380D01*
X75960714Y-87404761D02*
X76103571Y-87452380D01*
X76341666Y-87452380D01*
X76436904Y-87404761D01*
X76484523Y-87357142D01*
X76532142Y-87261904D01*
X76532142Y-87166666D01*
X76484523Y-87071428D01*
X76436904Y-87023809D01*
X76341666Y-86976190D01*
X76151190Y-86928571D01*
X76055952Y-86880952D01*
X76008333Y-86833333D01*
X75960714Y-86738095D01*
X75960714Y-86642857D01*
X76008333Y-86547619D01*
X76055952Y-86500000D01*
X76151190Y-86452380D01*
X76389285Y-86452380D01*
X76532142Y-86500000D01*
X76960714Y-87452380D02*
X76960714Y-86452380D01*
X77198809Y-86452380D01*
X77341666Y-86500000D01*
X77436904Y-86595238D01*
X77484523Y-86690476D01*
X77532142Y-86880952D01*
X77532142Y-87023809D01*
X77484523Y-87214285D01*
X77436904Y-87309523D01*
X77341666Y-87404761D01*
X77198809Y-87452380D01*
X76960714Y-87452380D01*
X77913095Y-87166666D02*
X78389285Y-87166666D01*
X77817857Y-87452380D02*
X78151190Y-86452380D01*
X78484523Y-87452380D01*
X133122380Y-58333333D02*
X133836666Y-58333333D01*
X133979523Y-58380952D01*
X134074761Y-58476190D01*
X134122380Y-58619047D01*
X134122380Y-58714285D01*
X134122380Y-57809523D02*
X134122380Y-57619047D01*
X134074761Y-57523809D01*
X134027142Y-57476190D01*
X133884285Y-57380952D01*
X133693809Y-57333333D01*
X133312857Y-57333333D01*
X133217619Y-57380952D01*
X133170000Y-57428571D01*
X133122380Y-57523809D01*
X133122380Y-57714285D01*
X133170000Y-57809523D01*
X133217619Y-57857142D01*
X133312857Y-57904761D01*
X133550952Y-57904761D01*
X133646190Y-57857142D01*
X133693809Y-57809523D01*
X133741428Y-57714285D01*
X133741428Y-57523809D01*
X133693809Y-57428571D01*
X133646190Y-57380952D01*
X133550952Y-57333333D01*
X138944761Y-56015476D02*
X138992380Y-55872619D01*
X138992380Y-55634523D01*
X138944761Y-55539285D01*
X138897142Y-55491666D01*
X138801904Y-55444047D01*
X138706666Y-55444047D01*
X138611428Y-55491666D01*
X138563809Y-55539285D01*
X138516190Y-55634523D01*
X138468571Y-55825000D01*
X138420952Y-55920238D01*
X138373333Y-55967857D01*
X138278095Y-56015476D01*
X138182857Y-56015476D01*
X138087619Y-55967857D01*
X138040000Y-55920238D01*
X137992380Y-55825000D01*
X137992380Y-55586904D01*
X138040000Y-55444047D01*
X138897142Y-54444047D02*
X138944761Y-54491666D01*
X138992380Y-54634523D01*
X138992380Y-54729761D01*
X138944761Y-54872619D01*
X138849523Y-54967857D01*
X138754285Y-55015476D01*
X138563809Y-55063095D01*
X138420952Y-55063095D01*
X138230476Y-55015476D01*
X138135238Y-54967857D01*
X138040000Y-54872619D01*
X137992380Y-54729761D01*
X137992380Y-54634523D01*
X138040000Y-54491666D01*
X138087619Y-54444047D01*
X138992380Y-53539285D02*
X138992380Y-54015476D01*
X137992380Y-54015476D01*
X136404761Y-56039285D02*
X136452380Y-55896428D01*
X136452380Y-55658333D01*
X136404761Y-55563095D01*
X136357142Y-55515476D01*
X136261904Y-55467857D01*
X136166666Y-55467857D01*
X136071428Y-55515476D01*
X136023809Y-55563095D01*
X135976190Y-55658333D01*
X135928571Y-55848809D01*
X135880952Y-55944047D01*
X135833333Y-55991666D01*
X135738095Y-56039285D01*
X135642857Y-56039285D01*
X135547619Y-55991666D01*
X135500000Y-55944047D01*
X135452380Y-55848809D01*
X135452380Y-55610714D01*
X135500000Y-55467857D01*
X136452380Y-55039285D02*
X135452380Y-55039285D01*
X135452380Y-54801190D01*
X135500000Y-54658333D01*
X135595238Y-54563095D01*
X135690476Y-54515476D01*
X135880952Y-54467857D01*
X136023809Y-54467857D01*
X136214285Y-54515476D01*
X136309523Y-54563095D01*
X136404761Y-54658333D01*
X136452380Y-54801190D01*
X136452380Y-55039285D01*
X136166666Y-54086904D02*
X136166666Y-53610714D01*
X136452380Y-54182142D02*
X135452380Y-53848809D01*
X136452380Y-53515476D01*
X53781666Y-97657380D02*
X53781666Y-98371666D01*
X53734047Y-98514523D01*
X53638809Y-98609761D01*
X53495952Y-98657380D01*
X53400714Y-98657380D01*
X54400714Y-98085952D02*
X54305476Y-98038333D01*
X54257857Y-97990714D01*
X54210238Y-97895476D01*
X54210238Y-97847857D01*
X54257857Y-97752619D01*
X54305476Y-97705000D01*
X54400714Y-97657380D01*
X54591190Y-97657380D01*
X54686428Y-97705000D01*
X54734047Y-97752619D01*
X54781666Y-97847857D01*
X54781666Y-97895476D01*
X54734047Y-97990714D01*
X54686428Y-98038333D01*
X54591190Y-98085952D01*
X54400714Y-98085952D01*
X54305476Y-98133571D01*
X54257857Y-98181190D01*
X54210238Y-98276428D01*
X54210238Y-98466904D01*
X54257857Y-98562142D01*
X54305476Y-98609761D01*
X54400714Y-98657380D01*
X54591190Y-98657380D01*
X54686428Y-98609761D01*
X54734047Y-98562142D01*
X54781666Y-98466904D01*
X54781666Y-98276428D01*
X54734047Y-98181190D01*
X54686428Y-98133571D01*
X54591190Y-98085952D01*
X56099523Y-99404760D02*
X56242380Y-99452379D01*
X56480476Y-99452379D01*
X56575714Y-99404760D01*
X56623333Y-99357141D01*
X56670952Y-99261903D01*
X56670952Y-99166665D01*
X56623333Y-99071427D01*
X56575714Y-99023808D01*
X56480476Y-98976189D01*
X56290000Y-98928570D01*
X56194761Y-98880951D01*
X56147142Y-98833332D01*
X56099523Y-98738094D01*
X56099523Y-98642856D01*
X56147142Y-98547618D01*
X56194761Y-98499999D01*
X56290000Y-98452379D01*
X56528095Y-98452379D01*
X56670952Y-98499999D01*
X57670952Y-99357141D02*
X57623333Y-99404760D01*
X57480476Y-99452379D01*
X57385238Y-99452379D01*
X57242380Y-99404760D01*
X57147142Y-99309522D01*
X57099523Y-99214284D01*
X57051904Y-99023808D01*
X57051904Y-98880951D01*
X57099523Y-98690475D01*
X57147142Y-98595237D01*
X57242380Y-98499999D01*
X57385238Y-98452379D01*
X57480476Y-98452379D01*
X57623333Y-98499999D01*
X57670952Y-98547618D01*
X58575714Y-99452379D02*
X58099523Y-99452379D01*
X58099523Y-98452379D01*
X56075714Y-98004760D02*
X56218571Y-98052379D01*
X56456666Y-98052379D01*
X56551904Y-98004760D01*
X56599523Y-97957141D01*
X56647142Y-97861903D01*
X56647142Y-97766665D01*
X56599523Y-97671427D01*
X56551904Y-97623808D01*
X56456666Y-97576189D01*
X56266190Y-97528570D01*
X56170952Y-97480951D01*
X56123333Y-97433332D01*
X56075714Y-97338094D01*
X56075714Y-97242856D01*
X56123333Y-97147618D01*
X56170952Y-97099999D01*
X56266190Y-97052379D01*
X56504285Y-97052379D01*
X56647142Y-97099999D01*
X57075714Y-98052379D02*
X57075714Y-97052379D01*
X57313809Y-97052379D01*
X57456666Y-97099999D01*
X57551904Y-97195237D01*
X57599523Y-97290475D01*
X57647142Y-97480951D01*
X57647142Y-97623808D01*
X57599523Y-97814284D01*
X57551904Y-97909522D01*
X57456666Y-98004760D01*
X57313809Y-98052379D01*
X57075714Y-98052379D01*
X58028095Y-97766665D02*
X58504285Y-97766665D01*
X57932857Y-98052379D02*
X58266190Y-97052379D01*
X58599523Y-98052379D01*
X105666666Y-73782380D02*
X105666666Y-74496666D01*
X105619047Y-74639523D01*
X105523809Y-74734761D01*
X105380952Y-74782380D01*
X105285714Y-74782380D01*
X106619047Y-73782380D02*
X106142857Y-73782380D01*
X106095238Y-74258571D01*
X106142857Y-74210952D01*
X106238095Y-74163333D01*
X106476190Y-74163333D01*
X106571428Y-74210952D01*
X106619047Y-74258571D01*
X106666666Y-74353809D01*
X106666666Y-74591904D01*
X106619047Y-74687142D01*
X106571428Y-74734761D01*
X106476190Y-74782380D01*
X106238095Y-74782380D01*
X106142857Y-74734761D01*
X106095238Y-74687142D01*
X101634523Y-69864761D02*
X101777380Y-69912380D01*
X102015476Y-69912380D01*
X102110714Y-69864761D01*
X102158333Y-69817142D01*
X102205952Y-69721904D01*
X102205952Y-69626666D01*
X102158333Y-69531428D01*
X102110714Y-69483809D01*
X102015476Y-69436190D01*
X101825000Y-69388571D01*
X101729761Y-69340952D01*
X101682142Y-69293333D01*
X101634523Y-69198095D01*
X101634523Y-69102857D01*
X101682142Y-69007619D01*
X101729761Y-68960000D01*
X101825000Y-68912380D01*
X102063095Y-68912380D01*
X102205952Y-68960000D01*
X103205952Y-69817142D02*
X103158333Y-69864761D01*
X103015476Y-69912380D01*
X102920238Y-69912380D01*
X102777380Y-69864761D01*
X102682142Y-69769523D01*
X102634523Y-69674285D01*
X102586904Y-69483809D01*
X102586904Y-69340952D01*
X102634523Y-69150476D01*
X102682142Y-69055238D01*
X102777380Y-68960000D01*
X102920238Y-68912380D01*
X103015476Y-68912380D01*
X103158333Y-68960000D01*
X103205952Y-69007619D01*
X104110714Y-69912380D02*
X103634523Y-69912380D01*
X103634523Y-68912380D01*
X101610714Y-72404761D02*
X101753571Y-72452380D01*
X101991666Y-72452380D01*
X102086904Y-72404761D01*
X102134523Y-72357142D01*
X102182142Y-72261904D01*
X102182142Y-72166666D01*
X102134523Y-72071428D01*
X102086904Y-72023809D01*
X101991666Y-71976190D01*
X101801190Y-71928571D01*
X101705952Y-71880952D01*
X101658333Y-71833333D01*
X101610714Y-71738095D01*
X101610714Y-71642857D01*
X101658333Y-71547619D01*
X101705952Y-71500000D01*
X101801190Y-71452380D01*
X102039285Y-71452380D01*
X102182142Y-71500000D01*
X102610714Y-72452380D02*
X102610714Y-71452380D01*
X102848809Y-71452380D01*
X102991666Y-71500000D01*
X103086904Y-71595238D01*
X103134523Y-71690476D01*
X103182142Y-71880952D01*
X103182142Y-72023809D01*
X103134523Y-72214285D01*
X103086904Y-72309523D01*
X102991666Y-72404761D01*
X102848809Y-72452380D01*
X102610714Y-72452380D01*
X103563095Y-72166666D02*
X104039285Y-72166666D01*
X103467857Y-72452380D02*
X103801190Y-71452380D01*
X104134523Y-72452380D01*
X138666666Y-106782380D02*
X138666666Y-107496666D01*
X138619047Y-107639523D01*
X138523809Y-107734761D01*
X138380952Y-107782380D01*
X138285714Y-107782380D01*
X139095238Y-106877619D02*
X139142857Y-106830000D01*
X139238095Y-106782380D01*
X139476190Y-106782380D01*
X139571428Y-106830000D01*
X139619047Y-106877619D01*
X139666666Y-106972857D01*
X139666666Y-107068095D01*
X139619047Y-107210952D01*
X139047619Y-107782380D01*
X139666666Y-107782380D01*
X141009523Y-102804761D02*
X141152380Y-102852380D01*
X141390476Y-102852380D01*
X141485714Y-102804761D01*
X141533333Y-102757142D01*
X141580952Y-102661904D01*
X141580952Y-102566666D01*
X141533333Y-102471428D01*
X141485714Y-102423809D01*
X141390476Y-102376190D01*
X141200000Y-102328571D01*
X141104761Y-102280952D01*
X141057142Y-102233333D01*
X141009523Y-102138095D01*
X141009523Y-102042857D01*
X141057142Y-101947619D01*
X141104761Y-101900000D01*
X141200000Y-101852380D01*
X141438095Y-101852380D01*
X141580952Y-101900000D01*
X142580952Y-102757142D02*
X142533333Y-102804761D01*
X142390476Y-102852380D01*
X142295238Y-102852380D01*
X142152380Y-102804761D01*
X142057142Y-102709523D01*
X142009523Y-102614285D01*
X141961904Y-102423809D01*
X141961904Y-102280952D01*
X142009523Y-102090476D01*
X142057142Y-101995238D01*
X142152380Y-101900000D01*
X142295238Y-101852380D01*
X142390476Y-101852380D01*
X142533333Y-101900000D01*
X142580952Y-101947619D01*
X143485714Y-102852380D02*
X143009523Y-102852380D01*
X143009523Y-101852380D01*
X140985714Y-105404761D02*
X141128571Y-105452380D01*
X141366666Y-105452380D01*
X141461904Y-105404761D01*
X141509523Y-105357142D01*
X141557142Y-105261904D01*
X141557142Y-105166666D01*
X141509523Y-105071428D01*
X141461904Y-105023809D01*
X141366666Y-104976190D01*
X141176190Y-104928571D01*
X141080952Y-104880952D01*
X141033333Y-104833333D01*
X140985714Y-104738095D01*
X140985714Y-104642857D01*
X141033333Y-104547619D01*
X141080952Y-104500000D01*
X141176190Y-104452380D01*
X141414285Y-104452380D01*
X141557142Y-104500000D01*
X141985714Y-105452380D02*
X141985714Y-104452380D01*
X142223809Y-104452380D01*
X142366666Y-104500000D01*
X142461904Y-104595238D01*
X142509523Y-104690476D01*
X142557142Y-104880952D01*
X142557142Y-105023809D01*
X142509523Y-105214285D01*
X142461904Y-105309523D01*
X142366666Y-105404761D01*
X142223809Y-105452380D01*
X141985714Y-105452380D01*
X142938095Y-105166666D02*
X143414285Y-105166666D01*
X142842857Y-105452380D02*
X143176190Y-104452380D01*
X143509523Y-105452380D01*
X140666666Y-125122380D02*
X140666666Y-125836666D01*
X140619047Y-125979523D01*
X140523809Y-126074761D01*
X140380952Y-126122380D01*
X140285714Y-126122380D01*
X141047619Y-125122380D02*
X141714285Y-125122380D01*
X141285714Y-126122380D01*
X133352380Y-114761904D02*
X134161904Y-114761904D01*
X134257142Y-114714285D01*
X134304761Y-114666666D01*
X134352380Y-114571428D01*
X134352380Y-114380952D01*
X134304761Y-114285714D01*
X134257142Y-114238095D01*
X134161904Y-114190476D01*
X133352380Y-114190476D01*
X134352380Y-113666666D02*
X134352380Y-113476190D01*
X134304761Y-113380952D01*
X134257142Y-113333333D01*
X134114285Y-113238095D01*
X133923809Y-113190476D01*
X133542857Y-113190476D01*
X133447619Y-113238095D01*
X133400000Y-113285714D01*
X133352380Y-113380952D01*
X133352380Y-113571428D01*
X133400000Y-113666666D01*
X133447619Y-113714285D01*
X133542857Y-113761904D01*
X133780952Y-113761904D01*
X133876190Y-113714285D01*
X133923809Y-113666666D01*
X133971428Y-113571428D01*
X133971428Y-113380952D01*
X133923809Y-113285714D01*
X133876190Y-113238095D01*
X133780952Y-113190476D01*
X112238095Y-138339880D02*
X112238095Y-139149404D01*
X112285714Y-139244642D01*
X112333333Y-139292261D01*
X112428571Y-139339880D01*
X112619047Y-139339880D01*
X112714285Y-139292261D01*
X112761904Y-139244642D01*
X112809523Y-139149404D01*
X112809523Y-138339880D01*
X113714285Y-138339880D02*
X113523809Y-138339880D01*
X113428571Y-138387500D01*
X113380952Y-138435119D01*
X113285714Y-138577976D01*
X113238095Y-138768452D01*
X113238095Y-139149404D01*
X113285714Y-139244642D01*
X113333333Y-139292261D01*
X113428571Y-139339880D01*
X113619047Y-139339880D01*
X113714285Y-139292261D01*
X113761904Y-139244642D01*
X113809523Y-139149404D01*
X113809523Y-138911309D01*
X113761904Y-138816071D01*
X113714285Y-138768452D01*
X113619047Y-138720833D01*
X113428571Y-138720833D01*
X113333333Y-138768452D01*
X113285714Y-138816071D01*
X113238095Y-138911309D01*
X66452379Y-126961905D02*
X67261903Y-126961905D01*
X67357141Y-126914286D01*
X67404760Y-126866667D01*
X67452379Y-126771429D01*
X67452379Y-126580953D01*
X67404760Y-126485715D01*
X67357141Y-126438096D01*
X67261903Y-126390477D01*
X66452379Y-126390477D01*
X66452379Y-126009524D02*
X66452379Y-125390477D01*
X66833332Y-125723810D01*
X66833332Y-125580953D01*
X66880951Y-125485715D01*
X66928570Y-125438096D01*
X67023808Y-125390477D01*
X67261903Y-125390477D01*
X67357141Y-125438096D01*
X67404760Y-125485715D01*
X67452379Y-125580953D01*
X67452379Y-125866667D01*
X67404760Y-125961905D01*
X67357141Y-126009524D01*
X132238095Y-99848880D02*
X132238095Y-100658404D01*
X132285714Y-100753642D01*
X132333333Y-100801261D01*
X132428571Y-100848880D01*
X132619047Y-100848880D01*
X132714285Y-100801261D01*
X132761904Y-100753642D01*
X132809523Y-100658404D01*
X132809523Y-99848880D01*
X133238095Y-99944119D02*
X133285714Y-99896500D01*
X133380952Y-99848880D01*
X133619047Y-99848880D01*
X133714285Y-99896500D01*
X133761904Y-99944119D01*
X133809523Y-100039357D01*
X133809523Y-100134595D01*
X133761904Y-100277452D01*
X133190476Y-100848880D01*
X133809523Y-100848880D01*
X60963095Y-84987380D02*
X60963095Y-85796904D01*
X61010714Y-85892142D01*
X61058333Y-85939761D01*
X61153571Y-85987380D01*
X61344047Y-85987380D01*
X61439285Y-85939761D01*
X61486904Y-85892142D01*
X61534523Y-85796904D01*
X61534523Y-84987380D01*
X62534523Y-85987380D02*
X61963095Y-85987380D01*
X62248809Y-85987380D02*
X62248809Y-84987380D01*
X62153571Y-85130238D01*
X62058333Y-85225476D01*
X61963095Y-85273095D01*
X97604761Y-102333333D02*
X97652380Y-102190476D01*
X97652380Y-101952380D01*
X97604761Y-101857142D01*
X97557142Y-101809523D01*
X97461904Y-101761904D01*
X97366666Y-101761904D01*
X97271428Y-101809523D01*
X97223809Y-101857142D01*
X97176190Y-101952380D01*
X97128571Y-102142857D01*
X97080952Y-102238095D01*
X97033333Y-102285714D01*
X96938095Y-102333333D01*
X96842857Y-102333333D01*
X96747619Y-102285714D01*
X96700000Y-102238095D01*
X96652380Y-102142857D01*
X96652380Y-101904761D01*
X96700000Y-101761904D01*
X96652380Y-101428571D02*
X97652380Y-101190476D01*
X96938095Y-101000000D01*
X97652380Y-100809523D01*
X96652380Y-100571428D01*
X96652380Y-99714285D02*
X96652380Y-100190476D01*
X97128571Y-100238095D01*
X97080952Y-100190476D01*
X97033333Y-100095238D01*
X97033333Y-99857142D01*
X97080952Y-99761904D01*
X97128571Y-99714285D01*
X97223809Y-99666666D01*
X97461904Y-99666666D01*
X97557142Y-99714285D01*
X97604761Y-99761904D01*
X97652380Y-99857142D01*
X97652380Y-100095238D01*
X97604761Y-100190476D01*
X97557142Y-100238095D01*
X83804761Y-102333333D02*
X83852380Y-102190476D01*
X83852380Y-101952380D01*
X83804761Y-101857142D01*
X83757142Y-101809523D01*
X83661904Y-101761904D01*
X83566666Y-101761904D01*
X83471428Y-101809523D01*
X83423809Y-101857142D01*
X83376190Y-101952380D01*
X83328571Y-102142857D01*
X83280952Y-102238095D01*
X83233333Y-102285714D01*
X83138095Y-102333333D01*
X83042857Y-102333333D01*
X82947619Y-102285714D01*
X82900000Y-102238095D01*
X82852380Y-102142857D01*
X82852380Y-101904761D01*
X82900000Y-101761904D01*
X82852380Y-101428571D02*
X83852380Y-101190476D01*
X83138095Y-101000000D01*
X83852380Y-100809523D01*
X82852380Y-100571428D01*
X83185714Y-99761904D02*
X83852380Y-99761904D01*
X82804761Y-100000000D02*
X83519047Y-100238095D01*
X83519047Y-99619047D01*
X75804761Y-102333333D02*
X75852380Y-102190476D01*
X75852380Y-101952380D01*
X75804761Y-101857142D01*
X75757142Y-101809523D01*
X75661904Y-101761904D01*
X75566666Y-101761904D01*
X75471428Y-101809523D01*
X75423809Y-101857142D01*
X75376190Y-101952380D01*
X75328571Y-102142857D01*
X75280952Y-102238095D01*
X75233333Y-102285714D01*
X75138095Y-102333333D01*
X75042857Y-102333333D01*
X74947619Y-102285714D01*
X74900000Y-102238095D01*
X74852380Y-102142857D01*
X74852380Y-101904761D01*
X74900000Y-101761904D01*
X74852380Y-101428571D02*
X75852380Y-101190476D01*
X75138095Y-101000000D01*
X75852380Y-100809523D01*
X74852380Y-100571428D01*
X74852380Y-100285714D02*
X74852380Y-99666666D01*
X75233333Y-100000000D01*
X75233333Y-99857142D01*
X75280952Y-99761904D01*
X75328571Y-99714285D01*
X75423809Y-99666666D01*
X75661904Y-99666666D01*
X75757142Y-99714285D01*
X75804761Y-99761904D01*
X75852380Y-99857142D01*
X75852380Y-100142857D01*
X75804761Y-100238095D01*
X75757142Y-100285714D01*
X108604761Y-94333334D02*
X108652380Y-94190477D01*
X108652380Y-93952381D01*
X108604761Y-93857143D01*
X108557142Y-93809524D01*
X108461904Y-93761905D01*
X108366666Y-93761905D01*
X108271428Y-93809524D01*
X108223809Y-93857143D01*
X108176190Y-93952381D01*
X108128571Y-94142858D01*
X108080952Y-94238096D01*
X108033333Y-94285715D01*
X107938095Y-94333334D01*
X107842857Y-94333334D01*
X107747619Y-94285715D01*
X107700000Y-94238096D01*
X107652380Y-94142858D01*
X107652380Y-93904762D01*
X107700000Y-93761905D01*
X107652380Y-93428572D02*
X108652380Y-93190477D01*
X107938095Y-93000001D01*
X108652380Y-92809524D01*
X107652380Y-92571429D01*
X107747619Y-92238096D02*
X107700000Y-92190477D01*
X107652380Y-92095239D01*
X107652380Y-91857143D01*
X107700000Y-91761905D01*
X107747619Y-91714286D01*
X107842857Y-91666667D01*
X107938095Y-91666667D01*
X108080952Y-91714286D01*
X108652380Y-92285715D01*
X108652380Y-91666667D01*
X98604761Y-80933334D02*
X98652380Y-80790477D01*
X98652380Y-80552381D01*
X98604761Y-80457143D01*
X98557142Y-80409524D01*
X98461904Y-80361905D01*
X98366666Y-80361905D01*
X98271428Y-80409524D01*
X98223809Y-80457143D01*
X98176190Y-80552381D01*
X98128571Y-80742858D01*
X98080952Y-80838096D01*
X98033333Y-80885715D01*
X97938095Y-80933334D01*
X97842857Y-80933334D01*
X97747619Y-80885715D01*
X97700000Y-80838096D01*
X97652380Y-80742858D01*
X97652380Y-80504762D01*
X97700000Y-80361905D01*
X97652380Y-80028572D02*
X98652380Y-79790477D01*
X97938095Y-79600001D01*
X98652380Y-79409524D01*
X97652380Y-79171429D01*
X98652380Y-78266667D02*
X98652380Y-78838096D01*
X98652380Y-78552381D02*
X97652380Y-78552381D01*
X97795238Y-78647620D01*
X97890476Y-78742858D01*
X97938095Y-78838096D01*
X104709523Y-58652380D02*
X104376190Y-58176190D01*
X104138095Y-58652380D02*
X104138095Y-57652380D01*
X104519047Y-57652380D01*
X104614285Y-57700000D01*
X104661904Y-57747619D01*
X104709523Y-57842857D01*
X104709523Y-57985714D01*
X104661904Y-58080952D01*
X104614285Y-58128571D01*
X104519047Y-58176190D01*
X104138095Y-58176190D01*
X105138095Y-58652380D02*
X105138095Y-57652380D01*
X105709523Y-58652380D01*
X105709523Y-57652380D01*
X106709523Y-58652380D02*
X106138095Y-58652380D01*
X106423809Y-58652380D02*
X106423809Y-57652380D01*
X106328571Y-57795238D01*
X106233333Y-57890476D01*
X106138095Y-57938095D01*
X51852380Y-128642858D02*
X51376190Y-128976191D01*
X51852380Y-129214286D02*
X50852380Y-129214286D01*
X50852380Y-128833334D01*
X50900000Y-128738096D01*
X50947619Y-128690477D01*
X51042857Y-128642858D01*
X51185714Y-128642858D01*
X51280952Y-128690477D01*
X51328571Y-128738096D01*
X51376190Y-128833334D01*
X51376190Y-129214286D01*
X50852380Y-128309524D02*
X50852380Y-127690477D01*
X51233333Y-128023810D01*
X51233333Y-127880953D01*
X51280952Y-127785715D01*
X51328571Y-127738096D01*
X51423809Y-127690477D01*
X51661904Y-127690477D01*
X51757142Y-127738096D01*
X51804761Y-127785715D01*
X51852380Y-127880953D01*
X51852380Y-128166667D01*
X51804761Y-128261905D01*
X51757142Y-128309524D01*
X50852380Y-126833334D02*
X50852380Y-127023810D01*
X50900000Y-127119048D01*
X50947619Y-127166667D01*
X51090476Y-127261905D01*
X51280952Y-127309524D01*
X51661904Y-127309524D01*
X51757142Y-127261905D01*
X51804761Y-127214286D01*
X51852380Y-127119048D01*
X51852380Y-126928572D01*
X51804761Y-126833334D01*
X51757142Y-126785715D01*
X51661904Y-126738096D01*
X51423809Y-126738096D01*
X51328571Y-126785715D01*
X51280952Y-126833334D01*
X51233333Y-126928572D01*
X51233333Y-127119048D01*
X51280952Y-127214286D01*
X51328571Y-127261905D01*
X51423809Y-127309524D01*
X134987380Y-62927857D02*
X134511190Y-63261190D01*
X134987380Y-63499285D02*
X133987380Y-63499285D01*
X133987380Y-63118333D01*
X134035000Y-63023095D01*
X134082619Y-62975476D01*
X134177857Y-62927857D01*
X134320714Y-62927857D01*
X134415952Y-62975476D01*
X134463571Y-63023095D01*
X134511190Y-63118333D01*
X134511190Y-63499285D01*
X133987380Y-62594523D02*
X133987380Y-61975476D01*
X134368333Y-62308809D01*
X134368333Y-62165952D01*
X134415952Y-62070714D01*
X134463571Y-62023095D01*
X134558809Y-61975476D01*
X134796904Y-61975476D01*
X134892142Y-62023095D01*
X134939761Y-62070714D01*
X134987380Y-62165952D01*
X134987380Y-62451666D01*
X134939761Y-62546904D01*
X134892142Y-62594523D01*
X133987380Y-61070714D02*
X133987380Y-61546904D01*
X134463571Y-61594523D01*
X134415952Y-61546904D01*
X134368333Y-61451666D01*
X134368333Y-61213571D01*
X134415952Y-61118333D01*
X134463571Y-61070714D01*
X134558809Y-61023095D01*
X134796904Y-61023095D01*
X134892142Y-61070714D01*
X134939761Y-61118333D01*
X134987380Y-61213571D01*
X134987380Y-61451666D01*
X134939761Y-61546904D01*
X134892142Y-61594523D01*
X140852379Y-62927857D02*
X140376189Y-63261190D01*
X140852379Y-63499285D02*
X139852379Y-63499285D01*
X139852379Y-63118333D01*
X139899999Y-63023095D01*
X139947618Y-62975476D01*
X140042856Y-62927857D01*
X140185713Y-62927857D01*
X140280951Y-62975476D01*
X140328570Y-63023095D01*
X140376189Y-63118333D01*
X140376189Y-63499285D01*
X139852379Y-62594523D02*
X139852379Y-61975476D01*
X140233332Y-62308809D01*
X140233332Y-62165952D01*
X140280951Y-62070714D01*
X140328570Y-62023095D01*
X140423808Y-61975476D01*
X140661903Y-61975476D01*
X140757141Y-62023095D01*
X140804760Y-62070714D01*
X140852379Y-62165952D01*
X140852379Y-62451666D01*
X140804760Y-62546904D01*
X140757141Y-62594523D01*
X140185713Y-61118333D02*
X140852379Y-61118333D01*
X139804760Y-61356428D02*
X140519046Y-61594523D01*
X140519046Y-60975476D01*
X118652379Y-60242857D02*
X118176189Y-60576190D01*
X118652379Y-60814285D02*
X117652379Y-60814285D01*
X117652379Y-60433333D01*
X117699999Y-60338095D01*
X117747618Y-60290476D01*
X117842856Y-60242857D01*
X117985713Y-60242857D01*
X118080951Y-60290476D01*
X118128570Y-60338095D01*
X118176189Y-60433333D01*
X118176189Y-60814285D01*
X117652379Y-59909523D02*
X117652379Y-59290476D01*
X118033332Y-59623809D01*
X118033332Y-59480952D01*
X118080951Y-59385714D01*
X118128570Y-59338095D01*
X118223808Y-59290476D01*
X118461903Y-59290476D01*
X118557141Y-59338095D01*
X118604760Y-59385714D01*
X118652379Y-59480952D01*
X118652379Y-59766666D01*
X118604760Y-59861904D01*
X118557141Y-59909523D01*
X117652379Y-58671428D02*
X117652379Y-58576190D01*
X117699999Y-58480952D01*
X117747618Y-58433333D01*
X117842856Y-58385714D01*
X118033332Y-58338095D01*
X118271427Y-58338095D01*
X118461903Y-58385714D01*
X118557141Y-58433333D01*
X118604760Y-58480952D01*
X118652379Y-58576190D01*
X118652379Y-58671428D01*
X118604760Y-58766666D01*
X118557141Y-58814285D01*
X118461903Y-58861904D01*
X118271427Y-58909523D01*
X118033332Y-58909523D01*
X117842856Y-58861904D01*
X117747618Y-58814285D01*
X117699999Y-58766666D01*
X117652379Y-58671428D01*
X132252379Y-60242857D02*
X131776189Y-60576190D01*
X132252379Y-60814285D02*
X131252379Y-60814285D01*
X131252379Y-60433333D01*
X131299999Y-60338095D01*
X131347618Y-60290476D01*
X131442856Y-60242857D01*
X131585713Y-60242857D01*
X131680951Y-60290476D01*
X131728570Y-60338095D01*
X131776189Y-60433333D01*
X131776189Y-60814285D01*
X131347618Y-59861904D02*
X131299999Y-59814285D01*
X131252379Y-59719047D01*
X131252379Y-59480952D01*
X131299999Y-59385714D01*
X131347618Y-59338095D01*
X131442856Y-59290476D01*
X131538094Y-59290476D01*
X131680951Y-59338095D01*
X132252379Y-59909523D01*
X132252379Y-59290476D01*
X132252379Y-58814285D02*
X132252379Y-58623809D01*
X132204760Y-58528571D01*
X132157141Y-58480952D01*
X132014284Y-58385714D01*
X131823808Y-58338095D01*
X131442856Y-58338095D01*
X131347618Y-58385714D01*
X131299999Y-58433333D01*
X131252379Y-58528571D01*
X131252379Y-58719047D01*
X131299999Y-58814285D01*
X131347618Y-58861904D01*
X131442856Y-58909523D01*
X131680951Y-58909523D01*
X131776189Y-58861904D01*
X131823808Y-58814285D01*
X131871427Y-58719047D01*
X131871427Y-58528571D01*
X131823808Y-58433333D01*
X131776189Y-58385714D01*
X131680951Y-58338095D01*
X129452380Y-60242857D02*
X128976190Y-60576190D01*
X129452380Y-60814285D02*
X128452380Y-60814285D01*
X128452380Y-60433333D01*
X128500000Y-60338095D01*
X128547619Y-60290476D01*
X128642857Y-60242857D01*
X128785714Y-60242857D01*
X128880952Y-60290476D01*
X128928571Y-60338095D01*
X128976190Y-60433333D01*
X128976190Y-60814285D01*
X128547619Y-59861904D02*
X128500000Y-59814285D01*
X128452380Y-59719047D01*
X128452380Y-59480952D01*
X128500000Y-59385714D01*
X128547619Y-59338095D01*
X128642857Y-59290476D01*
X128738095Y-59290476D01*
X128880952Y-59338095D01*
X129452380Y-59909523D01*
X129452380Y-59290476D01*
X128880952Y-58719047D02*
X128833333Y-58814285D01*
X128785714Y-58861904D01*
X128690476Y-58909523D01*
X128642857Y-58909523D01*
X128547619Y-58861904D01*
X128500000Y-58814285D01*
X128452380Y-58719047D01*
X128452380Y-58528571D01*
X128500000Y-58433333D01*
X128547619Y-58385714D01*
X128642857Y-58338095D01*
X128690476Y-58338095D01*
X128785714Y-58385714D01*
X128833333Y-58433333D01*
X128880952Y-58528571D01*
X128880952Y-58719047D01*
X128928571Y-58814285D01*
X128976190Y-58861904D01*
X129071428Y-58909523D01*
X129261904Y-58909523D01*
X129357142Y-58861904D01*
X129404761Y-58814285D01*
X129452380Y-58719047D01*
X129452380Y-58528571D01*
X129404761Y-58433333D01*
X129357142Y-58385714D01*
X129261904Y-58338095D01*
X129071428Y-58338095D01*
X128976190Y-58385714D01*
X128928571Y-58433333D01*
X128880952Y-58528571D01*
X60757142Y-101452380D02*
X60423809Y-100976190D01*
X60185714Y-101452380D02*
X60185714Y-100452380D01*
X60566666Y-100452380D01*
X60661904Y-100500000D01*
X60709523Y-100547619D01*
X60757142Y-100642857D01*
X60757142Y-100785714D01*
X60709523Y-100880952D01*
X60661904Y-100928571D01*
X60566666Y-100976190D01*
X60185714Y-100976190D01*
X61138095Y-100547619D02*
X61185714Y-100500000D01*
X61280952Y-100452380D01*
X61519047Y-100452380D01*
X61614285Y-100500000D01*
X61661904Y-100547619D01*
X61709523Y-100642857D01*
X61709523Y-100738095D01*
X61661904Y-100880952D01*
X61090476Y-101452380D01*
X61709523Y-101452380D01*
X62042857Y-100452380D02*
X62709523Y-100452380D01*
X62280952Y-101452380D01*
X60757142Y-103252380D02*
X60423809Y-102776190D01*
X60185714Y-103252380D02*
X60185714Y-102252380D01*
X60566666Y-102252380D01*
X60661904Y-102300000D01*
X60709523Y-102347619D01*
X60757142Y-102442857D01*
X60757142Y-102585714D01*
X60709523Y-102680952D01*
X60661904Y-102728571D01*
X60566666Y-102776190D01*
X60185714Y-102776190D01*
X61138095Y-102347619D02*
X61185714Y-102300000D01*
X61280952Y-102252380D01*
X61519047Y-102252380D01*
X61614285Y-102300000D01*
X61661904Y-102347619D01*
X61709523Y-102442857D01*
X61709523Y-102538095D01*
X61661904Y-102680952D01*
X61090476Y-103252380D01*
X61709523Y-103252380D01*
X62566666Y-102252380D02*
X62376190Y-102252380D01*
X62280952Y-102300000D01*
X62233333Y-102347619D01*
X62138095Y-102490476D01*
X62090476Y-102680952D01*
X62090476Y-103061904D01*
X62138095Y-103157142D01*
X62185714Y-103204761D01*
X62280952Y-103252380D01*
X62471428Y-103252380D01*
X62566666Y-103204761D01*
X62614285Y-103157142D01*
X62661904Y-103061904D01*
X62661904Y-102823809D01*
X62614285Y-102728571D01*
X62566666Y-102680952D01*
X62471428Y-102633333D01*
X62280952Y-102633333D01*
X62185714Y-102680952D01*
X62138095Y-102728571D01*
X62090476Y-102823809D01*
X140022380Y-117147857D02*
X139546190Y-117481190D01*
X140022380Y-117719285D02*
X139022380Y-117719285D01*
X139022380Y-117338333D01*
X139070000Y-117243095D01*
X139117619Y-117195476D01*
X139212857Y-117147857D01*
X139355714Y-117147857D01*
X139450952Y-117195476D01*
X139498571Y-117243095D01*
X139546190Y-117338333D01*
X139546190Y-117719285D01*
X139117619Y-116766904D02*
X139070000Y-116719285D01*
X139022380Y-116624047D01*
X139022380Y-116385952D01*
X139070000Y-116290714D01*
X139117619Y-116243095D01*
X139212857Y-116195476D01*
X139308095Y-116195476D01*
X139450952Y-116243095D01*
X140022380Y-116814523D01*
X140022380Y-116195476D01*
X139022380Y-115290714D02*
X139022380Y-115766904D01*
X139498571Y-115814523D01*
X139450952Y-115766904D01*
X139403333Y-115671666D01*
X139403333Y-115433571D01*
X139450952Y-115338333D01*
X139498571Y-115290714D01*
X139593809Y-115243095D01*
X139831904Y-115243095D01*
X139927142Y-115290714D01*
X139974761Y-115338333D01*
X140022380Y-115433571D01*
X140022380Y-115671666D01*
X139974761Y-115766904D01*
X139927142Y-115814523D01*
X90452380Y-104842857D02*
X89976190Y-105176190D01*
X90452380Y-105414285D02*
X89452380Y-105414285D01*
X89452380Y-105033333D01*
X89500000Y-104938095D01*
X89547619Y-104890476D01*
X89642857Y-104842857D01*
X89785714Y-104842857D01*
X89880952Y-104890476D01*
X89928571Y-104938095D01*
X89976190Y-105033333D01*
X89976190Y-105414285D01*
X89547619Y-104461904D02*
X89500000Y-104414285D01*
X89452380Y-104319047D01*
X89452380Y-104080952D01*
X89500000Y-103985714D01*
X89547619Y-103938095D01*
X89642857Y-103890476D01*
X89738095Y-103890476D01*
X89880952Y-103938095D01*
X90452380Y-104509523D01*
X90452380Y-103890476D01*
X89785714Y-103033333D02*
X90452380Y-103033333D01*
X89404761Y-103271428D02*
X90119047Y-103509523D01*
X90119047Y-102890476D01*
X83882380Y-101517857D02*
X83406190Y-101851190D01*
X83882380Y-102089285D02*
X82882380Y-102089285D01*
X82882380Y-101708333D01*
X82930000Y-101613095D01*
X82977619Y-101565476D01*
X83072857Y-101517857D01*
X83215714Y-101517857D01*
X83310952Y-101565476D01*
X83358571Y-101613095D01*
X83406190Y-101708333D01*
X83406190Y-102089285D01*
X82977619Y-101136904D02*
X82930000Y-101089285D01*
X82882380Y-100994047D01*
X82882380Y-100755952D01*
X82930000Y-100660714D01*
X82977619Y-100613095D01*
X83072857Y-100565476D01*
X83168095Y-100565476D01*
X83310952Y-100613095D01*
X83882380Y-101184523D01*
X83882380Y-100565476D01*
X82882380Y-100232142D02*
X82882380Y-99613095D01*
X83263333Y-99946428D01*
X83263333Y-99803571D01*
X83310952Y-99708333D01*
X83358571Y-99660714D01*
X83453809Y-99613095D01*
X83691904Y-99613095D01*
X83787142Y-99660714D01*
X83834761Y-99708333D01*
X83882380Y-99803571D01*
X83882380Y-100089285D01*
X83834761Y-100184523D01*
X83787142Y-100232142D01*
X75882380Y-101642857D02*
X75406190Y-101976190D01*
X75882380Y-102214285D02*
X74882380Y-102214285D01*
X74882380Y-101833333D01*
X74930000Y-101738095D01*
X74977619Y-101690476D01*
X75072857Y-101642857D01*
X75215714Y-101642857D01*
X75310952Y-101690476D01*
X75358571Y-101738095D01*
X75406190Y-101833333D01*
X75406190Y-102214285D01*
X74977619Y-101261904D02*
X74930000Y-101214285D01*
X74882380Y-101119047D01*
X74882380Y-100880952D01*
X74930000Y-100785714D01*
X74977619Y-100738095D01*
X75072857Y-100690476D01*
X75168095Y-100690476D01*
X75310952Y-100738095D01*
X75882380Y-101309523D01*
X75882380Y-100690476D01*
X74977619Y-100309523D02*
X74930000Y-100261904D01*
X74882380Y-100166666D01*
X74882380Y-99928571D01*
X74930000Y-99833333D01*
X74977619Y-99785714D01*
X75072857Y-99738095D01*
X75168095Y-99738095D01*
X75310952Y-99785714D01*
X75882380Y-100357142D01*
X75882380Y-99738095D01*
X107232142Y-79882380D02*
X106898809Y-79406190D01*
X106660714Y-79882380D02*
X106660714Y-78882380D01*
X107041666Y-78882380D01*
X107136904Y-78930000D01*
X107184523Y-78977619D01*
X107232142Y-79072857D01*
X107232142Y-79215714D01*
X107184523Y-79310952D01*
X107136904Y-79358571D01*
X107041666Y-79406190D01*
X106660714Y-79406190D01*
X107613095Y-78977619D02*
X107660714Y-78930000D01*
X107755952Y-78882380D01*
X107994047Y-78882380D01*
X108089285Y-78930000D01*
X108136904Y-78977619D01*
X108184523Y-79072857D01*
X108184523Y-79168095D01*
X108136904Y-79310952D01*
X107565476Y-79882380D01*
X108184523Y-79882380D01*
X109136904Y-79882380D02*
X108565476Y-79882380D01*
X108851190Y-79882380D02*
X108851190Y-78882380D01*
X108755952Y-79025238D01*
X108660714Y-79120476D01*
X108565476Y-79168095D01*
X104052380Y-93042857D02*
X103576190Y-93376190D01*
X104052380Y-93614285D02*
X103052380Y-93614285D01*
X103052380Y-93233333D01*
X103100000Y-93138095D01*
X103147619Y-93090476D01*
X103242857Y-93042857D01*
X103385714Y-93042857D01*
X103480952Y-93090476D01*
X103528571Y-93138095D01*
X103576190Y-93233333D01*
X103576190Y-93614285D01*
X103147619Y-92661904D02*
X103100000Y-92614285D01*
X103052380Y-92519047D01*
X103052380Y-92280952D01*
X103100000Y-92185714D01*
X103147619Y-92138095D01*
X103242857Y-92090476D01*
X103338095Y-92090476D01*
X103480952Y-92138095D01*
X104052380Y-92709523D01*
X104052380Y-92090476D01*
X103052380Y-91471428D02*
X103052380Y-91376190D01*
X103100000Y-91280952D01*
X103147619Y-91233333D01*
X103242857Y-91185714D01*
X103433333Y-91138095D01*
X103671428Y-91138095D01*
X103861904Y-91185714D01*
X103957142Y-91233333D01*
X104004761Y-91280952D01*
X104052380Y-91376190D01*
X104052380Y-91471428D01*
X104004761Y-91566666D01*
X103957142Y-91614285D01*
X103861904Y-91661904D01*
X103671428Y-91709523D01*
X103433333Y-91709523D01*
X103242857Y-91661904D01*
X103147619Y-91614285D01*
X103100000Y-91566666D01*
X103052380Y-91471428D01*
X93652381Y-86442857D02*
X93176191Y-86776190D01*
X93652381Y-87014285D02*
X92652381Y-87014285D01*
X92652381Y-86633333D01*
X92700001Y-86538095D01*
X92747620Y-86490476D01*
X92842858Y-86442857D01*
X92985715Y-86442857D01*
X93080953Y-86490476D01*
X93128572Y-86538095D01*
X93176191Y-86633333D01*
X93176191Y-87014285D01*
X93652381Y-85490476D02*
X93652381Y-86061904D01*
X93652381Y-85776190D02*
X92652381Y-85776190D01*
X92795239Y-85871428D01*
X92890477Y-85966666D01*
X92938096Y-86061904D01*
X93652381Y-85014285D02*
X93652381Y-84823809D01*
X93604762Y-84728571D01*
X93557143Y-84680952D01*
X93414286Y-84585714D01*
X93223810Y-84538095D01*
X92842858Y-84538095D01*
X92747620Y-84585714D01*
X92700001Y-84633333D01*
X92652381Y-84728571D01*
X92652381Y-84919047D01*
X92700001Y-85014285D01*
X92747620Y-85061904D01*
X92842858Y-85109523D01*
X93080953Y-85109523D01*
X93176191Y-85061904D01*
X93223810Y-85014285D01*
X93271429Y-84919047D01*
X93271429Y-84728571D01*
X93223810Y-84633333D01*
X93176191Y-84585714D01*
X93080953Y-84538095D01*
X103022380Y-81642857D02*
X102546190Y-81976190D01*
X103022380Y-82214285D02*
X102022380Y-82214285D01*
X102022380Y-81833333D01*
X102070000Y-81738095D01*
X102117619Y-81690476D01*
X102212857Y-81642857D01*
X102355714Y-81642857D01*
X102450952Y-81690476D01*
X102498571Y-81738095D01*
X102546190Y-81833333D01*
X102546190Y-82214285D01*
X103022380Y-80690476D02*
X103022380Y-81261904D01*
X103022380Y-80976190D02*
X102022380Y-80976190D01*
X102165238Y-81071428D01*
X102260476Y-81166666D01*
X102308095Y-81261904D01*
X102450952Y-80119047D02*
X102403333Y-80214285D01*
X102355714Y-80261904D01*
X102260476Y-80309523D01*
X102212857Y-80309523D01*
X102117619Y-80261904D01*
X102070000Y-80214285D01*
X102022380Y-80119047D01*
X102022380Y-79928571D01*
X102070000Y-79833333D01*
X102117619Y-79785714D01*
X102212857Y-79738095D01*
X102260476Y-79738095D01*
X102355714Y-79785714D01*
X102403333Y-79833333D01*
X102450952Y-79928571D01*
X102450952Y-80119047D01*
X102498571Y-80214285D01*
X102546190Y-80261904D01*
X102641428Y-80309523D01*
X102831904Y-80309523D01*
X102927142Y-80261904D01*
X102974761Y-80214285D01*
X103022380Y-80119047D01*
X103022380Y-79928571D01*
X102974761Y-79833333D01*
X102927142Y-79785714D01*
X102831904Y-79738095D01*
X102641428Y-79738095D01*
X102546190Y-79785714D01*
X102498571Y-79833333D01*
X102450952Y-79928571D01*
X114452380Y-122442857D02*
X113976190Y-122776190D01*
X114452380Y-123014285D02*
X113452380Y-123014285D01*
X113452380Y-122633333D01*
X113500000Y-122538095D01*
X113547619Y-122490476D01*
X113642857Y-122442857D01*
X113785714Y-122442857D01*
X113880952Y-122490476D01*
X113928571Y-122538095D01*
X113976190Y-122633333D01*
X113976190Y-123014285D01*
X114452380Y-121490476D02*
X114452380Y-122061904D01*
X114452380Y-121776190D02*
X113452380Y-121776190D01*
X113595238Y-121871428D01*
X113690476Y-121966666D01*
X113738095Y-122061904D01*
X113452380Y-121157142D02*
X113452380Y-120490476D01*
X114452380Y-120919047D01*
X121052380Y-129642857D02*
X120576190Y-129976190D01*
X121052380Y-130214285D02*
X120052380Y-130214285D01*
X120052380Y-129833333D01*
X120100000Y-129738095D01*
X120147619Y-129690476D01*
X120242857Y-129642857D01*
X120385714Y-129642857D01*
X120480952Y-129690476D01*
X120528571Y-129738095D01*
X120576190Y-129833333D01*
X120576190Y-130214285D01*
X121052380Y-128690476D02*
X121052380Y-129261904D01*
X121052380Y-128976190D02*
X120052380Y-128976190D01*
X120195238Y-129071428D01*
X120290476Y-129166666D01*
X120338095Y-129261904D01*
X120052380Y-127833333D02*
X120052380Y-128023809D01*
X120100000Y-128119047D01*
X120147619Y-128166666D01*
X120290476Y-128261904D01*
X120480952Y-128309523D01*
X120861904Y-128309523D01*
X120957142Y-128261904D01*
X121004761Y-128214285D01*
X121052380Y-128119047D01*
X121052380Y-127928571D01*
X121004761Y-127833333D01*
X120957142Y-127785714D01*
X120861904Y-127738095D01*
X120623809Y-127738095D01*
X120528571Y-127785714D01*
X120480952Y-127833333D01*
X120433333Y-127928571D01*
X120433333Y-128119047D01*
X120480952Y-128214285D01*
X120528571Y-128261904D01*
X120623809Y-128309523D01*
X107357142Y-123022380D02*
X107023809Y-122546190D01*
X106785714Y-123022380D02*
X106785714Y-122022380D01*
X107166666Y-122022380D01*
X107261904Y-122070000D01*
X107309523Y-122117619D01*
X107357142Y-122212857D01*
X107357142Y-122355714D01*
X107309523Y-122450952D01*
X107261904Y-122498571D01*
X107166666Y-122546190D01*
X106785714Y-122546190D01*
X108309523Y-123022380D02*
X107738095Y-123022380D01*
X108023809Y-123022380D02*
X108023809Y-122022380D01*
X107928571Y-122165238D01*
X107833333Y-122260476D01*
X107738095Y-122308095D01*
X109214285Y-122022380D02*
X108738095Y-122022380D01*
X108690476Y-122498571D01*
X108738095Y-122450952D01*
X108833333Y-122403333D01*
X109071428Y-122403333D01*
X109166666Y-122450952D01*
X109214285Y-122498571D01*
X109261904Y-122593809D01*
X109261904Y-122831904D01*
X109214285Y-122927142D01*
X109166666Y-122974761D01*
X109071428Y-123022380D01*
X108833333Y-123022380D01*
X108738095Y-122974761D01*
X108690476Y-122927142D01*
X78957142Y-61452380D02*
X78623809Y-60976190D01*
X78385714Y-61452380D02*
X78385714Y-60452380D01*
X78766666Y-60452380D01*
X78861904Y-60500000D01*
X78909523Y-60547619D01*
X78957142Y-60642857D01*
X78957142Y-60785714D01*
X78909523Y-60880952D01*
X78861904Y-60928571D01*
X78766666Y-60976190D01*
X78385714Y-60976190D01*
X79909523Y-61452380D02*
X79338095Y-61452380D01*
X79623809Y-61452380D02*
X79623809Y-60452380D01*
X79528571Y-60595238D01*
X79433333Y-60690476D01*
X79338095Y-60738095D01*
X80766666Y-60785714D02*
X80766666Y-61452380D01*
X80528571Y-60404761D02*
X80290476Y-61119047D01*
X80909523Y-61119047D01*
X79157142Y-56252380D02*
X78823809Y-55776190D01*
X78585714Y-56252380D02*
X78585714Y-55252380D01*
X78966666Y-55252380D01*
X79061904Y-55300000D01*
X79109523Y-55347619D01*
X79157142Y-55442857D01*
X79157142Y-55585714D01*
X79109523Y-55680952D01*
X79061904Y-55728571D01*
X78966666Y-55776190D01*
X78585714Y-55776190D01*
X80109523Y-56252380D02*
X79538095Y-56252380D01*
X79823809Y-56252380D02*
X79823809Y-55252380D01*
X79728571Y-55395238D01*
X79633333Y-55490476D01*
X79538095Y-55538095D01*
X80442857Y-55252380D02*
X81061904Y-55252380D01*
X80728571Y-55633333D01*
X80871428Y-55633333D01*
X80966666Y-55680952D01*
X81014285Y-55728571D01*
X81061904Y-55823809D01*
X81061904Y-56061904D01*
X81014285Y-56157142D01*
X80966666Y-56204761D01*
X80871428Y-56252380D01*
X80585714Y-56252380D01*
X80490476Y-56204761D01*
X80442857Y-56157142D01*
X73022380Y-74642857D02*
X72546190Y-74976190D01*
X73022380Y-75214285D02*
X72022380Y-75214285D01*
X72022380Y-74833333D01*
X72070000Y-74738095D01*
X72117619Y-74690476D01*
X72212857Y-74642857D01*
X72355714Y-74642857D01*
X72450952Y-74690476D01*
X72498571Y-74738095D01*
X72546190Y-74833333D01*
X72546190Y-75214285D01*
X73022380Y-73690476D02*
X73022380Y-74261904D01*
X73022380Y-73976190D02*
X72022380Y-73976190D01*
X72165238Y-74071428D01*
X72260476Y-74166666D01*
X72308095Y-74261904D01*
X72117619Y-73309523D02*
X72070000Y-73261904D01*
X72022380Y-73166666D01*
X72022380Y-72928571D01*
X72070000Y-72833333D01*
X72117619Y-72785714D01*
X72212857Y-72738095D01*
X72308095Y-72738095D01*
X72450952Y-72785714D01*
X73022380Y-73357142D01*
X73022380Y-72738095D01*
X76022380Y-69642857D02*
X75546190Y-69976190D01*
X76022380Y-70214285D02*
X75022380Y-70214285D01*
X75022380Y-69833333D01*
X75070000Y-69738095D01*
X75117619Y-69690476D01*
X75212857Y-69642857D01*
X75355714Y-69642857D01*
X75450952Y-69690476D01*
X75498571Y-69738095D01*
X75546190Y-69833333D01*
X75546190Y-70214285D01*
X76022380Y-68690476D02*
X76022380Y-69261904D01*
X76022380Y-68976190D02*
X75022380Y-68976190D01*
X75165238Y-69071428D01*
X75260476Y-69166666D01*
X75308095Y-69261904D01*
X76022380Y-67738095D02*
X76022380Y-68309523D01*
X76022380Y-68023809D02*
X75022380Y-68023809D01*
X75165238Y-68119047D01*
X75260476Y-68214285D01*
X75308095Y-68309523D01*
X73022380Y-69517857D02*
X72546190Y-69851190D01*
X73022380Y-70089285D02*
X72022380Y-70089285D01*
X72022380Y-69708333D01*
X72070000Y-69613095D01*
X72117619Y-69565476D01*
X72212857Y-69517857D01*
X72355714Y-69517857D01*
X72450952Y-69565476D01*
X72498571Y-69613095D01*
X72546190Y-69708333D01*
X72546190Y-70089285D01*
X73022380Y-68565476D02*
X73022380Y-69136904D01*
X73022380Y-68851190D02*
X72022380Y-68851190D01*
X72165238Y-68946428D01*
X72260476Y-69041666D01*
X72308095Y-69136904D01*
X72022380Y-67946428D02*
X72022380Y-67851190D01*
X72070000Y-67755952D01*
X72117619Y-67708333D01*
X72212857Y-67660714D01*
X72403333Y-67613095D01*
X72641428Y-67613095D01*
X72831904Y-67660714D01*
X72927142Y-67708333D01*
X72974761Y-67755952D01*
X73022380Y-67851190D01*
X73022380Y-67946428D01*
X72974761Y-68041666D01*
X72927142Y-68089285D01*
X72831904Y-68136904D01*
X72641428Y-68184523D01*
X72403333Y-68184523D01*
X72212857Y-68136904D01*
X72117619Y-68089285D01*
X72070000Y-68041666D01*
X72022380Y-67946428D01*
X58452380Y-121166666D02*
X57976190Y-121500000D01*
X58452380Y-121738095D02*
X57452380Y-121738095D01*
X57452380Y-121357142D01*
X57500000Y-121261904D01*
X57547619Y-121214285D01*
X57642857Y-121166666D01*
X57785714Y-121166666D01*
X57880952Y-121214285D01*
X57928571Y-121261904D01*
X57976190Y-121357142D01*
X57976190Y-121738095D01*
X58452380Y-120690476D02*
X58452380Y-120500000D01*
X58404761Y-120404761D01*
X58357142Y-120357142D01*
X58214285Y-120261904D01*
X58023809Y-120214285D01*
X57642857Y-120214285D01*
X57547619Y-120261904D01*
X57500000Y-120309523D01*
X57452380Y-120404761D01*
X57452380Y-120595238D01*
X57500000Y-120690476D01*
X57547619Y-120738095D01*
X57642857Y-120785714D01*
X57880952Y-120785714D01*
X57976190Y-120738095D01*
X58023809Y-120690476D01*
X58071428Y-120595238D01*
X58071428Y-120404761D01*
X58023809Y-120309523D01*
X57976190Y-120261904D01*
X57880952Y-120214285D01*
X52833332Y-121052379D02*
X52499999Y-120576189D01*
X52261903Y-121052379D02*
X52261903Y-120052379D01*
X52642856Y-120052379D01*
X52738094Y-120099999D01*
X52785713Y-120147618D01*
X52833332Y-120242856D01*
X52833332Y-120385713D01*
X52785713Y-120480951D01*
X52738094Y-120528570D01*
X52642856Y-120576189D01*
X52261903Y-120576189D01*
X53404760Y-120480951D02*
X53309522Y-120433332D01*
X53261903Y-120385713D01*
X53214284Y-120290475D01*
X53214284Y-120242856D01*
X53261903Y-120147618D01*
X53309522Y-120099999D01*
X53404760Y-120052379D01*
X53595237Y-120052379D01*
X53690475Y-120099999D01*
X53738094Y-120147618D01*
X53785713Y-120242856D01*
X53785713Y-120290475D01*
X53738094Y-120385713D01*
X53690475Y-120433332D01*
X53595237Y-120480951D01*
X53404760Y-120480951D01*
X53309522Y-120528570D01*
X53261903Y-120576189D01*
X53214284Y-120671427D01*
X53214284Y-120861903D01*
X53261903Y-120957141D01*
X53309522Y-121004760D01*
X53404760Y-121052379D01*
X53595237Y-121052379D01*
X53690475Y-121004760D01*
X53738094Y-120957141D01*
X53785713Y-120861903D01*
X53785713Y-120671427D01*
X53738094Y-120576189D01*
X53690475Y-120528570D01*
X53595237Y-120480951D01*
X52833332Y-118452379D02*
X52499999Y-117976189D01*
X52261903Y-118452379D02*
X52261903Y-117452379D01*
X52642856Y-117452379D01*
X52738094Y-117499999D01*
X52785713Y-117547618D01*
X52833332Y-117642856D01*
X52833332Y-117785713D01*
X52785713Y-117880951D01*
X52738094Y-117928570D01*
X52642856Y-117976189D01*
X52261903Y-117976189D01*
X53166665Y-117452379D02*
X53833332Y-117452379D01*
X53404760Y-118452379D01*
X126452380Y-103166666D02*
X125976190Y-103500000D01*
X126452380Y-103738095D02*
X125452380Y-103738095D01*
X125452380Y-103357142D01*
X125500000Y-103261904D01*
X125547619Y-103214285D01*
X125642857Y-103166666D01*
X125785714Y-103166666D01*
X125880952Y-103214285D01*
X125928571Y-103261904D01*
X125976190Y-103357142D01*
X125976190Y-103738095D01*
X125452380Y-102309523D02*
X125452380Y-102500000D01*
X125500000Y-102595238D01*
X125547619Y-102642857D01*
X125690476Y-102738095D01*
X125880952Y-102785714D01*
X126261904Y-102785714D01*
X126357142Y-102738095D01*
X126404761Y-102690476D01*
X126452380Y-102595238D01*
X126452380Y-102404761D01*
X126404761Y-102309523D01*
X126357142Y-102261904D01*
X126261904Y-102214285D01*
X126023809Y-102214285D01*
X125928571Y-102261904D01*
X125880952Y-102309523D01*
X125833333Y-102404761D01*
X125833333Y-102595238D01*
X125880952Y-102690476D01*
X125928571Y-102738095D01*
X126023809Y-102785714D01*
X134452380Y-109966667D02*
X133976190Y-110300001D01*
X134452380Y-110538096D02*
X133452380Y-110538096D01*
X133452380Y-110157143D01*
X133500000Y-110061905D01*
X133547619Y-110014286D01*
X133642857Y-109966667D01*
X133785714Y-109966667D01*
X133880952Y-110014286D01*
X133928571Y-110061905D01*
X133976190Y-110157143D01*
X133976190Y-110538096D01*
X133452380Y-109061905D02*
X133452380Y-109538096D01*
X133928571Y-109585715D01*
X133880952Y-109538096D01*
X133833333Y-109442858D01*
X133833333Y-109204762D01*
X133880952Y-109109524D01*
X133928571Y-109061905D01*
X134023809Y-109014286D01*
X134261904Y-109014286D01*
X134357142Y-109061905D01*
X134404761Y-109109524D01*
X134452380Y-109204762D01*
X134452380Y-109442858D01*
X134404761Y-109538096D01*
X134357142Y-109585715D01*
X132452380Y-109766667D02*
X131976190Y-110100001D01*
X132452380Y-110338096D02*
X131452380Y-110338096D01*
X131452380Y-109957143D01*
X131500000Y-109861905D01*
X131547619Y-109814286D01*
X131642857Y-109766667D01*
X131785714Y-109766667D01*
X131880952Y-109814286D01*
X131928571Y-109861905D01*
X131976190Y-109957143D01*
X131976190Y-110338096D01*
X131785714Y-108909524D02*
X132452380Y-108909524D01*
X131404761Y-109147620D02*
X132119047Y-109385715D01*
X132119047Y-108766667D01*
X59833333Y-93022380D02*
X59500000Y-92546190D01*
X59261904Y-93022380D02*
X59261904Y-92022380D01*
X59642857Y-92022380D01*
X59738095Y-92070000D01*
X59785714Y-92117619D01*
X59833333Y-92212857D01*
X59833333Y-92355714D01*
X59785714Y-92450952D01*
X59738095Y-92498571D01*
X59642857Y-92546190D01*
X59261904Y-92546190D01*
X60166666Y-92022380D02*
X60785714Y-92022380D01*
X60452380Y-92403333D01*
X60595238Y-92403333D01*
X60690476Y-92450952D01*
X60738095Y-92498571D01*
X60785714Y-92593809D01*
X60785714Y-92831904D01*
X60738095Y-92927142D01*
X60690476Y-92974761D01*
X60595238Y-93022380D01*
X60309523Y-93022380D01*
X60214285Y-92974761D01*
X60166666Y-92927142D01*
X69833333Y-84852380D02*
X69500000Y-84376190D01*
X69261904Y-84852380D02*
X69261904Y-83852380D01*
X69642857Y-83852380D01*
X69738095Y-83900000D01*
X69785714Y-83947619D01*
X69833333Y-84042857D01*
X69833333Y-84185714D01*
X69785714Y-84280952D01*
X69738095Y-84328571D01*
X69642857Y-84376190D01*
X69261904Y-84376190D01*
X70214285Y-83947619D02*
X70261904Y-83900000D01*
X70357142Y-83852380D01*
X70595238Y-83852380D01*
X70690476Y-83900000D01*
X70738095Y-83947619D01*
X70785714Y-84042857D01*
X70785714Y-84138095D01*
X70738095Y-84280952D01*
X70166666Y-84852380D01*
X70785714Y-84852380D01*
X69833333Y-89882380D02*
X69500000Y-89406190D01*
X69261904Y-89882380D02*
X69261904Y-88882380D01*
X69642857Y-88882380D01*
X69738095Y-88930000D01*
X69785714Y-88977619D01*
X69833333Y-89072857D01*
X69833333Y-89215714D01*
X69785714Y-89310952D01*
X69738095Y-89358571D01*
X69642857Y-89406190D01*
X69261904Y-89406190D01*
X70785714Y-89882380D02*
X70214285Y-89882380D01*
X70500000Y-89882380D02*
X70500000Y-88882380D01*
X70404761Y-89025238D01*
X70309523Y-89120476D01*
X70214285Y-89168095D01*
D15*
X117547619Y-122495238D02*
X117500000Y-122590476D01*
X117404761Y-122685714D01*
X117261904Y-122828571D01*
X117214285Y-122923809D01*
X117214285Y-123019047D01*
X117452380Y-122971428D02*
X117404761Y-123066666D01*
X117309523Y-123161904D01*
X117119047Y-123209523D01*
X116785714Y-123209523D01*
X116595238Y-123161904D01*
X116500000Y-123066666D01*
X116452380Y-122971428D01*
X116452380Y-122780952D01*
X116500000Y-122685714D01*
X116595238Y-122590476D01*
X116785714Y-122542857D01*
X117119047Y-122542857D01*
X117309523Y-122590476D01*
X117404761Y-122685714D01*
X117452380Y-122780952D01*
X117452380Y-122971428D01*
X116547619Y-122161904D02*
X116500000Y-122114285D01*
X116452380Y-122019047D01*
X116452380Y-121780952D01*
X116500000Y-121685714D01*
X116547619Y-121638095D01*
X116642857Y-121590476D01*
X116738095Y-121590476D01*
X116880952Y-121638095D01*
X117452380Y-122209523D01*
X117452380Y-121590476D01*
X119302380Y-126952380D02*
X119326190Y-126880952D01*
X119326190Y-126761904D01*
X119302380Y-126714285D01*
X119278571Y-126690476D01*
X119230952Y-126666666D01*
X119183333Y-126666666D01*
X119135714Y-126690476D01*
X119111904Y-126714285D01*
X119088095Y-126761904D01*
X119064285Y-126857142D01*
X119040476Y-126904761D01*
X119016666Y-126928571D01*
X118969047Y-126952380D01*
X118921428Y-126952380D01*
X118873809Y-126928571D01*
X118850000Y-126904761D01*
X118826190Y-126857142D01*
X118826190Y-126738095D01*
X118850000Y-126666666D01*
X119302380Y-126476190D02*
X119326190Y-126404761D01*
X119326190Y-126285714D01*
X119302380Y-126238095D01*
X119278571Y-126214285D01*
X119230952Y-126190476D01*
X119183333Y-126190476D01*
X119135714Y-126214285D01*
X119111904Y-126238095D01*
X119088095Y-126285714D01*
X119064285Y-126380952D01*
X119040476Y-126428571D01*
X119016666Y-126452380D01*
X118969047Y-126476190D01*
X118921428Y-126476190D01*
X118873809Y-126452380D01*
X118850000Y-126428571D01*
X118826190Y-126380952D01*
X118826190Y-126261904D01*
X118850000Y-126190476D01*
X119326190Y-125952380D02*
X119326190Y-125857142D01*
X119302380Y-125809523D01*
X119278571Y-125785714D01*
X119207142Y-125738095D01*
X119111904Y-125714285D01*
X118921428Y-125714285D01*
X118873809Y-125738095D01*
X118850000Y-125761904D01*
X118826190Y-125809523D01*
X118826190Y-125904761D01*
X118850000Y-125952380D01*
X118873809Y-125976190D01*
X118921428Y-126000000D01*
X119040476Y-126000000D01*
X119088095Y-125976190D01*
X119111904Y-125952380D01*
X119135714Y-125904761D01*
X119135714Y-125809523D01*
X119111904Y-125761904D01*
X119088095Y-125738095D01*
X119040476Y-125714285D01*
X118826190Y-125404761D02*
X118826190Y-125357142D01*
X118850000Y-125309523D01*
X118873809Y-125285714D01*
X118921428Y-125261904D01*
X119016666Y-125238095D01*
X119135714Y-125238095D01*
X119230952Y-125261904D01*
X119278571Y-125285714D01*
X119302380Y-125309523D01*
X119326190Y-125357142D01*
X119326190Y-125404761D01*
X119302380Y-125452380D01*
X119278571Y-125476190D01*
X119230952Y-125500000D01*
X119135714Y-125523809D01*
X119016666Y-125523809D01*
X118921428Y-125500000D01*
X118873809Y-125476190D01*
X118850000Y-125452380D01*
X118826190Y-125404761D01*
X119326190Y-124761904D02*
X119326190Y-125047619D01*
X119326190Y-124904761D02*
X118826190Y-124904761D01*
X118897619Y-124952380D01*
X118945238Y-125000000D01*
X118969047Y-125047619D01*
X118826190Y-124595238D02*
X118826190Y-124285714D01*
X119016666Y-124452380D01*
X119016666Y-124380952D01*
X119040476Y-124333333D01*
X119064285Y-124309523D01*
X119111904Y-124285714D01*
X119230952Y-124285714D01*
X119278571Y-124309523D01*
X119302380Y-124333333D01*
X119326190Y-124380952D01*
X119326190Y-124523809D01*
X119302380Y-124571428D01*
X119278571Y-124595238D01*
X119373809Y-124190476D02*
X119373809Y-123809523D01*
X118826190Y-123547619D02*
X119183333Y-123547619D01*
X119254761Y-123571428D01*
X119302380Y-123619047D01*
X119326190Y-123690476D01*
X119326190Y-123738095D01*
X118826190Y-123357142D02*
X118826190Y-123047619D01*
X119016666Y-123214285D01*
X119016666Y-123142857D01*
X119040476Y-123095238D01*
X119064285Y-123071428D01*
X119111904Y-123047619D01*
X119230952Y-123047619D01*
X119278571Y-123071428D01*
X119302380Y-123095238D01*
X119326190Y-123142857D01*
X119326190Y-123285714D01*
X119302380Y-123333333D01*
X119278571Y-123357142D01*
X116547619Y-126295238D02*
X116500000Y-126390476D01*
X116404761Y-126485714D01*
X116261904Y-126628571D01*
X116214285Y-126723809D01*
X116214285Y-126819047D01*
X116452380Y-126771428D02*
X116404761Y-126866666D01*
X116309523Y-126961904D01*
X116119047Y-127009523D01*
X115785714Y-127009523D01*
X115595238Y-126961904D01*
X115500000Y-126866666D01*
X115452380Y-126771428D01*
X115452380Y-126580952D01*
X115500000Y-126485714D01*
X115595238Y-126390476D01*
X115785714Y-126342857D01*
X116119047Y-126342857D01*
X116309523Y-126390476D01*
X116404761Y-126485714D01*
X116452380Y-126580952D01*
X116452380Y-126771428D01*
X116452380Y-125390476D02*
X116452380Y-125961904D01*
X116452380Y-125676190D02*
X115452380Y-125676190D01*
X115595238Y-125771428D01*
X115690476Y-125866666D01*
X115738095Y-125961904D01*
X118302380Y-130952380D02*
X118326190Y-130880952D01*
X118326190Y-130761904D01*
X118302380Y-130714285D01*
X118278571Y-130690476D01*
X118230952Y-130666666D01*
X118183333Y-130666666D01*
X118135714Y-130690476D01*
X118111904Y-130714285D01*
X118088095Y-130761904D01*
X118064285Y-130857142D01*
X118040476Y-130904761D01*
X118016666Y-130928571D01*
X117969047Y-130952380D01*
X117921428Y-130952380D01*
X117873809Y-130928571D01*
X117850000Y-130904761D01*
X117826190Y-130857142D01*
X117826190Y-130738095D01*
X117850000Y-130666666D01*
X118302380Y-130476190D02*
X118326190Y-130404761D01*
X118326190Y-130285714D01*
X118302380Y-130238095D01*
X118278571Y-130214285D01*
X118230952Y-130190476D01*
X118183333Y-130190476D01*
X118135714Y-130214285D01*
X118111904Y-130238095D01*
X118088095Y-130285714D01*
X118064285Y-130380952D01*
X118040476Y-130428571D01*
X118016666Y-130452380D01*
X117969047Y-130476190D01*
X117921428Y-130476190D01*
X117873809Y-130452380D01*
X117850000Y-130428571D01*
X117826190Y-130380952D01*
X117826190Y-130261904D01*
X117850000Y-130190476D01*
X118326190Y-129952380D02*
X118326190Y-129857142D01*
X118302380Y-129809523D01*
X118278571Y-129785714D01*
X118207142Y-129738095D01*
X118111904Y-129714285D01*
X117921428Y-129714285D01*
X117873809Y-129738095D01*
X117850000Y-129761904D01*
X117826190Y-129809523D01*
X117826190Y-129904761D01*
X117850000Y-129952380D01*
X117873809Y-129976190D01*
X117921428Y-130000000D01*
X118040476Y-130000000D01*
X118088095Y-129976190D01*
X118111904Y-129952380D01*
X118135714Y-129904761D01*
X118135714Y-129809523D01*
X118111904Y-129761904D01*
X118088095Y-129738095D01*
X118040476Y-129714285D01*
X117826190Y-129404761D02*
X117826190Y-129357142D01*
X117850000Y-129309523D01*
X117873809Y-129285714D01*
X117921428Y-129261904D01*
X118016666Y-129238095D01*
X118135714Y-129238095D01*
X118230952Y-129261904D01*
X118278571Y-129285714D01*
X118302380Y-129309523D01*
X118326190Y-129357142D01*
X118326190Y-129404761D01*
X118302380Y-129452380D01*
X118278571Y-129476190D01*
X118230952Y-129500000D01*
X118135714Y-129523809D01*
X118016666Y-129523809D01*
X117921428Y-129500000D01*
X117873809Y-129476190D01*
X117850000Y-129452380D01*
X117826190Y-129404761D01*
X118326190Y-128761904D02*
X118326190Y-129047619D01*
X118326190Y-128904761D02*
X117826190Y-128904761D01*
X117897619Y-128952380D01*
X117945238Y-129000000D01*
X117969047Y-129047619D01*
X117826190Y-128595238D02*
X117826190Y-128285714D01*
X118016666Y-128452380D01*
X118016666Y-128380952D01*
X118040476Y-128333333D01*
X118064285Y-128309523D01*
X118111904Y-128285714D01*
X118230952Y-128285714D01*
X118278571Y-128309523D01*
X118302380Y-128333333D01*
X118326190Y-128380952D01*
X118326190Y-128523809D01*
X118302380Y-128571428D01*
X118278571Y-128595238D01*
X118373809Y-128190476D02*
X118373809Y-127809523D01*
X117826190Y-127547619D02*
X118183333Y-127547619D01*
X118254761Y-127571428D01*
X118302380Y-127619047D01*
X118326190Y-127690476D01*
X118326190Y-127738095D01*
X117826190Y-127357142D02*
X117826190Y-127047619D01*
X118016666Y-127214285D01*
X118016666Y-127142857D01*
X118040476Y-127095238D01*
X118064285Y-127071428D01*
X118111904Y-127047619D01*
X118230952Y-127047619D01*
X118278571Y-127071428D01*
X118302380Y-127095238D01*
X118326190Y-127142857D01*
X118326190Y-127285714D01*
X118302380Y-127333333D01*
X118278571Y-127357142D01*
D11*
X124452380Y-60633333D02*
X125166666Y-60633333D01*
X125309523Y-60680952D01*
X125404761Y-60776190D01*
X125452380Y-60919047D01*
X125452380Y-61014285D01*
X125452380Y-60157142D02*
X124452380Y-60157142D01*
X124452380Y-59776190D01*
X124500000Y-59680952D01*
X124547619Y-59633333D01*
X124642857Y-59585714D01*
X124785714Y-59585714D01*
X124880952Y-59633333D01*
X124928571Y-59680952D01*
X124976190Y-59776190D01*
X124976190Y-60157142D01*
X125452380Y-59109523D02*
X125452380Y-58919047D01*
X125404761Y-58823809D01*
X125357142Y-58776190D01*
X125214285Y-58680952D01*
X125023809Y-58633333D01*
X124642857Y-58633333D01*
X124547619Y-58680952D01*
X124500000Y-58728571D01*
X124452380Y-58823809D01*
X124452380Y-59014285D01*
X124500000Y-59109523D01*
X124547619Y-59157142D01*
X124642857Y-59204761D01*
X124880952Y-59204761D01*
X124976190Y-59157142D01*
X125023809Y-59109523D01*
X125071428Y-59014285D01*
X125071428Y-58823809D01*
X125023809Y-58728571D01*
X124976190Y-58680952D01*
X124880952Y-58633333D01*
X138652380Y-113183333D02*
X139366666Y-113183333D01*
X139509523Y-113230952D01*
X139604761Y-113326190D01*
X139652380Y-113469047D01*
X139652380Y-113564285D01*
X139652380Y-112707142D02*
X138652380Y-112707142D01*
X138652380Y-112326190D01*
X138700000Y-112230952D01*
X138747619Y-112183333D01*
X138842857Y-112135714D01*
X138985714Y-112135714D01*
X139080952Y-112183333D01*
X139128571Y-112230952D01*
X139176190Y-112326190D01*
X139176190Y-112707142D01*
X139080952Y-111564285D02*
X139033333Y-111659523D01*
X138985714Y-111707142D01*
X138890476Y-111754761D01*
X138842857Y-111754761D01*
X138747619Y-111707142D01*
X138700000Y-111659523D01*
X138652380Y-111564285D01*
X138652380Y-111373809D01*
X138700000Y-111278571D01*
X138747619Y-111230952D01*
X138842857Y-111183333D01*
X138890476Y-111183333D01*
X138985714Y-111230952D01*
X139033333Y-111278571D01*
X139080952Y-111373809D01*
X139080952Y-111564285D01*
X139128571Y-111659523D01*
X139176190Y-111707142D01*
X139271428Y-111754761D01*
X139461904Y-111754761D01*
X139557142Y-111707142D01*
X139604761Y-111659523D01*
X139652380Y-111564285D01*
X139652380Y-111373809D01*
X139604761Y-111278571D01*
X139557142Y-111230952D01*
X139461904Y-111183333D01*
X139271428Y-111183333D01*
X139176190Y-111230952D01*
X139128571Y-111278571D01*
X139080952Y-111373809D01*
X69452380Y-72233332D02*
X70166666Y-72233332D01*
X70309523Y-72280951D01*
X70404761Y-72376189D01*
X70452380Y-72519046D01*
X70452380Y-72614284D01*
X70452380Y-71757141D02*
X69452380Y-71757141D01*
X69452380Y-71376189D01*
X69500000Y-71280951D01*
X69547619Y-71233332D01*
X69642857Y-71185713D01*
X69785714Y-71185713D01*
X69880952Y-71233332D01*
X69928571Y-71280951D01*
X69976190Y-71376189D01*
X69976190Y-71757141D01*
X69452380Y-70852379D02*
X69452380Y-70185713D01*
X70452380Y-70614284D01*
X74966666Y-128452380D02*
X74966666Y-129166666D01*
X74919047Y-129309523D01*
X74823809Y-129404761D01*
X74680952Y-129452380D01*
X74585714Y-129452380D01*
X75442857Y-129452380D02*
X75442857Y-128452380D01*
X75823809Y-128452380D01*
X75919047Y-128500000D01*
X75966666Y-128547619D01*
X76014285Y-128642857D01*
X76014285Y-128785714D01*
X75966666Y-128880952D01*
X75919047Y-128928571D01*
X75823809Y-128976190D01*
X75442857Y-128976190D01*
X76871428Y-128452380D02*
X76680952Y-128452380D01*
X76585714Y-128500000D01*
X76538095Y-128547619D01*
X76442857Y-128690476D01*
X76395238Y-128880952D01*
X76395238Y-129261904D01*
X76442857Y-129357142D01*
X76490476Y-129404761D01*
X76585714Y-129452380D01*
X76776190Y-129452380D01*
X76871428Y-129404761D01*
X76919047Y-129357142D01*
X76966666Y-129261904D01*
X76966666Y-129023809D01*
X76919047Y-128928571D01*
X76871428Y-128880952D01*
X76776190Y-128833333D01*
X76585714Y-128833333D01*
X76490476Y-128880952D01*
X76442857Y-128928571D01*
X76395238Y-129023809D01*
X74966666Y-124252380D02*
X74966666Y-124966666D01*
X74919047Y-125109523D01*
X74823809Y-125204761D01*
X74680952Y-125252380D01*
X74585714Y-125252380D01*
X75442857Y-125252380D02*
X75442857Y-124252380D01*
X75823809Y-124252380D01*
X75919047Y-124300000D01*
X75966666Y-124347619D01*
X76014285Y-124442857D01*
X76014285Y-124585714D01*
X75966666Y-124680952D01*
X75919047Y-124728571D01*
X75823809Y-124776190D01*
X75442857Y-124776190D01*
X76919047Y-124252380D02*
X76442857Y-124252380D01*
X76395238Y-124728571D01*
X76442857Y-124680952D01*
X76538095Y-124633333D01*
X76776190Y-124633333D01*
X76871428Y-124680952D01*
X76919047Y-124728571D01*
X76966666Y-124823809D01*
X76966666Y-125061904D01*
X76919047Y-125157142D01*
X76871428Y-125204761D01*
X76776190Y-125252380D01*
X76538095Y-125252380D01*
X76442857Y-125204761D01*
X76395238Y-125157142D01*
X74966666Y-120452380D02*
X74966666Y-121166666D01*
X74919047Y-121309523D01*
X74823809Y-121404761D01*
X74680952Y-121452380D01*
X74585714Y-121452380D01*
X75442857Y-121452380D02*
X75442857Y-120452380D01*
X75823809Y-120452380D01*
X75919047Y-120500000D01*
X75966666Y-120547619D01*
X76014285Y-120642857D01*
X76014285Y-120785714D01*
X75966666Y-120880952D01*
X75919047Y-120928571D01*
X75823809Y-120976190D01*
X75442857Y-120976190D01*
X76871428Y-120785714D02*
X76871428Y-121452380D01*
X76633333Y-120404761D02*
X76395238Y-121119047D01*
X77014285Y-121119047D01*
X50652380Y-124833333D02*
X51366666Y-124833333D01*
X51509523Y-124880952D01*
X51604761Y-124976190D01*
X51652380Y-125119047D01*
X51652380Y-125214285D01*
X51652380Y-124357142D02*
X50652380Y-124357142D01*
X50652380Y-123976190D01*
X50700000Y-123880952D01*
X50747619Y-123833333D01*
X50842857Y-123785714D01*
X50985714Y-123785714D01*
X51080952Y-123833333D01*
X51128571Y-123880952D01*
X51176190Y-123976190D01*
X51176190Y-124357142D01*
X50652380Y-123452380D02*
X50652380Y-122833333D01*
X51033333Y-123166666D01*
X51033333Y-123023809D01*
X51080952Y-122928571D01*
X51128571Y-122880952D01*
X51223809Y-122833333D01*
X51461904Y-122833333D01*
X51557142Y-122880952D01*
X51604761Y-122928571D01*
X51652380Y-123023809D01*
X51652380Y-123309523D01*
X51604761Y-123404761D01*
X51557142Y-123452380D01*
X127852381Y-104033333D02*
X128566667Y-104033333D01*
X128709524Y-104080952D01*
X128804762Y-104176190D01*
X128852381Y-104319047D01*
X128852381Y-104414285D01*
X128852381Y-103557142D02*
X127852381Y-103557142D01*
X127852381Y-103176190D01*
X127900001Y-103080952D01*
X127947620Y-103033333D01*
X128042858Y-102985714D01*
X128185715Y-102985714D01*
X128280953Y-103033333D01*
X128328572Y-103080952D01*
X128376191Y-103176190D01*
X128376191Y-103557142D01*
X127947620Y-102604761D02*
X127900001Y-102557142D01*
X127852381Y-102461904D01*
X127852381Y-102223809D01*
X127900001Y-102128571D01*
X127947620Y-102080952D01*
X128042858Y-102033333D01*
X128138096Y-102033333D01*
X128280953Y-102080952D01*
X128852381Y-102652380D01*
X128852381Y-102033333D01*
X65852380Y-84433333D02*
X66566666Y-84433333D01*
X66709523Y-84480952D01*
X66804761Y-84576190D01*
X66852380Y-84719047D01*
X66852380Y-84814285D01*
X66852380Y-83957142D02*
X65852380Y-83957142D01*
X65852380Y-83576190D01*
X65900000Y-83480952D01*
X65947619Y-83433333D01*
X66042857Y-83385714D01*
X66185714Y-83385714D01*
X66280952Y-83433333D01*
X66328571Y-83480952D01*
X66376190Y-83576190D01*
X66376190Y-83957142D01*
X66852380Y-82433333D02*
X66852380Y-83004761D01*
X66852380Y-82719047D02*
X65852380Y-82719047D01*
X65995238Y-82814285D01*
X66090476Y-82909523D01*
X66138095Y-83004761D01*
X109066666Y-66032380D02*
X109066666Y-66746666D01*
X109019047Y-66889523D01*
X108923809Y-66984761D01*
X108780952Y-67032380D01*
X108685714Y-67032380D01*
X109971428Y-66032380D02*
X109780952Y-66032380D01*
X109685714Y-66080000D01*
X109638095Y-66127619D01*
X109542857Y-66270476D01*
X109495238Y-66460952D01*
X109495238Y-66841904D01*
X109542857Y-66937142D01*
X109590476Y-66984761D01*
X109685714Y-67032380D01*
X109876190Y-67032380D01*
X109971428Y-66984761D01*
X110019047Y-66937142D01*
X110066666Y-66841904D01*
X110066666Y-66603809D01*
X110019047Y-66508571D01*
X109971428Y-66460952D01*
X109876190Y-66413333D01*
X109685714Y-66413333D01*
X109590476Y-66460952D01*
X109542857Y-66508571D01*
X109495238Y-66603809D01*
X73782380Y-113333333D02*
X74496666Y-113333333D01*
X74639523Y-113380952D01*
X74734761Y-113476190D01*
X74782380Y-113619047D01*
X74782380Y-113714285D01*
X74115714Y-112428571D02*
X74782380Y-112428571D01*
X73734761Y-112666666D02*
X74449047Y-112904761D01*
X74449047Y-112285714D01*
X51522380Y-137733333D02*
X52236666Y-137733333D01*
X52379523Y-137780952D01*
X52474761Y-137876190D01*
X52522380Y-138019047D01*
X52522380Y-138114285D01*
X51522380Y-137352380D02*
X51522380Y-136733333D01*
X51903333Y-137066666D01*
X51903333Y-136923809D01*
X51950952Y-136828571D01*
X51998571Y-136780952D01*
X52093809Y-136733333D01*
X52331904Y-136733333D01*
X52427142Y-136780952D01*
X52474761Y-136828571D01*
X52522380Y-136923809D01*
X52522380Y-137209523D01*
X52474761Y-137304761D01*
X52427142Y-137352380D01*
X53666666Y-83757380D02*
X53666666Y-84471666D01*
X53619047Y-84614523D01*
X53523809Y-84709761D01*
X53380952Y-84757380D01*
X53285714Y-84757380D01*
X54666666Y-84757380D02*
X54095238Y-84757380D01*
X54380952Y-84757380D02*
X54380952Y-83757380D01*
X54285714Y-83900238D01*
X54190476Y-83995476D01*
X54095238Y-84043095D01*
X121052379Y-60938095D02*
X120052379Y-60938095D01*
X120052379Y-60700000D01*
X120099999Y-60557142D01*
X120195237Y-60461904D01*
X120290475Y-60414285D01*
X120480951Y-60366666D01*
X120623808Y-60366666D01*
X120814284Y-60414285D01*
X120909522Y-60461904D01*
X121004760Y-60557142D01*
X121052379Y-60700000D01*
X121052379Y-60938095D01*
X120052379Y-60033333D02*
X120052379Y-59366666D01*
X121052379Y-59795238D01*
X140022380Y-120738095D02*
X139022380Y-120738095D01*
X139022380Y-120500000D01*
X139070000Y-120357142D01*
X139165238Y-120261904D01*
X139260476Y-120214285D01*
X139450952Y-120166666D01*
X139593809Y-120166666D01*
X139784285Y-120214285D01*
X139879523Y-120261904D01*
X139974761Y-120357142D01*
X140022380Y-120500000D01*
X140022380Y-120738095D01*
X139022380Y-119309523D02*
X139022380Y-119500000D01*
X139070000Y-119595238D01*
X139117619Y-119642857D01*
X139260476Y-119738095D01*
X139450952Y-119785714D01*
X139831904Y-119785714D01*
X139927142Y-119738095D01*
X139974761Y-119690476D01*
X140022380Y-119595238D01*
X140022380Y-119404761D01*
X139974761Y-119309523D01*
X139927142Y-119261904D01*
X139831904Y-119214285D01*
X139593809Y-119214285D01*
X139498571Y-119261904D01*
X139450952Y-119309523D01*
X139403333Y-119404761D01*
X139403333Y-119595238D01*
X139450952Y-119690476D01*
X139498571Y-119738095D01*
X139593809Y-119785714D01*
X103022380Y-85613095D02*
X102022380Y-85613095D01*
X102022380Y-85375000D01*
X102070000Y-85232142D01*
X102165238Y-85136904D01*
X102260476Y-85089285D01*
X102450952Y-85041666D01*
X102593809Y-85041666D01*
X102784285Y-85089285D01*
X102879523Y-85136904D01*
X102974761Y-85232142D01*
X103022380Y-85375000D01*
X103022380Y-85613095D01*
X102022380Y-84136904D02*
X102022380Y-84613095D01*
X102498571Y-84660714D01*
X102450952Y-84613095D01*
X102403333Y-84517857D01*
X102403333Y-84279761D01*
X102450952Y-84184523D01*
X102498571Y-84136904D01*
X102593809Y-84089285D01*
X102831904Y-84089285D01*
X102927142Y-84136904D01*
X102974761Y-84184523D01*
X103022380Y-84279761D01*
X103022380Y-84517857D01*
X102974761Y-84613095D01*
X102927142Y-84660714D01*
X78261904Y-64652380D02*
X78261904Y-63652380D01*
X78500000Y-63652380D01*
X78642857Y-63700000D01*
X78738095Y-63795238D01*
X78785714Y-63890476D01*
X78833333Y-64080952D01*
X78833333Y-64223809D01*
X78785714Y-64414285D01*
X78738095Y-64509523D01*
X78642857Y-64604761D01*
X78500000Y-64652380D01*
X78261904Y-64652380D01*
X79690476Y-63985714D02*
X79690476Y-64652380D01*
X79452380Y-63604761D02*
X79214285Y-64319047D01*
X79833333Y-64319047D01*
X53052380Y-128738095D02*
X52052380Y-128738095D01*
X52052380Y-128500000D01*
X52100000Y-128357142D01*
X52195238Y-128261904D01*
X52290476Y-128214285D01*
X52480952Y-128166666D01*
X52623809Y-128166666D01*
X52814285Y-128214285D01*
X52909523Y-128261904D01*
X53004761Y-128357142D01*
X53052380Y-128500000D01*
X53052380Y-128738095D01*
X52052380Y-127833333D02*
X52052380Y-127214285D01*
X52433333Y-127547619D01*
X52433333Y-127404761D01*
X52480952Y-127309523D01*
X52528571Y-127261904D01*
X52623809Y-127214285D01*
X52861904Y-127214285D01*
X52957142Y-127261904D01*
X53004761Y-127309523D01*
X53052380Y-127404761D01*
X53052380Y-127690476D01*
X53004761Y-127785714D01*
X52957142Y-127833333D01*
X124452380Y-103538095D02*
X123452380Y-103538095D01*
X123452380Y-103300000D01*
X123500000Y-103157142D01*
X123595238Y-103061904D01*
X123690476Y-103014285D01*
X123880952Y-102966666D01*
X124023809Y-102966666D01*
X124214285Y-103014285D01*
X124309523Y-103061904D01*
X124404761Y-103157142D01*
X124452380Y-103300000D01*
X124452380Y-103538095D01*
X123547619Y-102585714D02*
X123500000Y-102538095D01*
X123452380Y-102442857D01*
X123452380Y-102204761D01*
X123500000Y-102109523D01*
X123547619Y-102061904D01*
X123642857Y-102014285D01*
X123738095Y-102014285D01*
X123880952Y-102061904D01*
X124452380Y-102633333D01*
X124452380Y-102014285D01*
X63261904Y-93022380D02*
X63261904Y-92022380D01*
X63500000Y-92022380D01*
X63642857Y-92070000D01*
X63738095Y-92165238D01*
X63785714Y-92260476D01*
X63833333Y-92450952D01*
X63833333Y-92593809D01*
X63785714Y-92784285D01*
X63738095Y-92879523D01*
X63642857Y-92974761D01*
X63500000Y-93022380D01*
X63261904Y-93022380D01*
X64785714Y-93022380D02*
X64214285Y-93022380D01*
X64500000Y-93022380D02*
X64500000Y-92022380D01*
X64404761Y-92165238D01*
X64309523Y-92260476D01*
X64214285Y-92308095D01*
X136357142Y-134242857D02*
X136404761Y-134290476D01*
X136452380Y-134433333D01*
X136452380Y-134528571D01*
X136404761Y-134671428D01*
X136309523Y-134766666D01*
X136214285Y-134814285D01*
X136023809Y-134861904D01*
X135880952Y-134861904D01*
X135690476Y-134814285D01*
X135595238Y-134766666D01*
X135500000Y-134671428D01*
X135452380Y-134528571D01*
X135452380Y-134433333D01*
X135500000Y-134290476D01*
X135547619Y-134242857D01*
X136452380Y-133290476D02*
X136452380Y-133861904D01*
X136452380Y-133576190D02*
X135452380Y-133576190D01*
X135595238Y-133671428D01*
X135690476Y-133766666D01*
X135738095Y-133861904D01*
X135880952Y-132719047D02*
X135833333Y-132814285D01*
X135785714Y-132861904D01*
X135690476Y-132909523D01*
X135642857Y-132909523D01*
X135547619Y-132861904D01*
X135500000Y-132814285D01*
X135452380Y-132719047D01*
X135452380Y-132528571D01*
X135500000Y-132433333D01*
X135547619Y-132385714D01*
X135642857Y-132338095D01*
X135690476Y-132338095D01*
X135785714Y-132385714D01*
X135833333Y-132433333D01*
X135880952Y-132528571D01*
X135880952Y-132719047D01*
X135928571Y-132814285D01*
X135976190Y-132861904D01*
X136071428Y-132909523D01*
X136261904Y-132909523D01*
X136357142Y-132861904D01*
X136404761Y-132814285D01*
X136452380Y-132719047D01*
X136452380Y-132528571D01*
X136404761Y-132433333D01*
X136357142Y-132385714D01*
X136261904Y-132338095D01*
X136071428Y-132338095D01*
X135976190Y-132385714D01*
X135928571Y-132433333D01*
X135880952Y-132528571D01*
X136357142Y-126042857D02*
X136404761Y-126090476D01*
X136452380Y-126233333D01*
X136452380Y-126328571D01*
X136404761Y-126471428D01*
X136309523Y-126566666D01*
X136214285Y-126614285D01*
X136023809Y-126661904D01*
X135880952Y-126661904D01*
X135690476Y-126614285D01*
X135595238Y-126566666D01*
X135500000Y-126471428D01*
X135452380Y-126328571D01*
X135452380Y-126233333D01*
X135500000Y-126090476D01*
X135547619Y-126042857D01*
X136452380Y-125090476D02*
X136452380Y-125661904D01*
X136452380Y-125376190D02*
X135452380Y-125376190D01*
X135595238Y-125471428D01*
X135690476Y-125566666D01*
X135738095Y-125661904D01*
X135452380Y-124757142D02*
X135452380Y-124090476D01*
X136452380Y-124519047D01*
X136357142Y-118442857D02*
X136404761Y-118490476D01*
X136452380Y-118633333D01*
X136452380Y-118728571D01*
X136404761Y-118871428D01*
X136309523Y-118966666D01*
X136214285Y-119014285D01*
X136023809Y-119061904D01*
X135880952Y-119061904D01*
X135690476Y-119014285D01*
X135595238Y-118966666D01*
X135500000Y-118871428D01*
X135452380Y-118728571D01*
X135452380Y-118633333D01*
X135500000Y-118490476D01*
X135547619Y-118442857D01*
X136452380Y-117490476D02*
X136452380Y-118061904D01*
X136452380Y-117776190D02*
X135452380Y-117776190D01*
X135595238Y-117871428D01*
X135690476Y-117966666D01*
X135738095Y-118061904D01*
X135452380Y-116633333D02*
X135452380Y-116823809D01*
X135500000Y-116919047D01*
X135547619Y-116966666D01*
X135690476Y-117061904D01*
X135880952Y-117109523D01*
X136261904Y-117109523D01*
X136357142Y-117061904D01*
X136404761Y-117014285D01*
X136452380Y-116919047D01*
X136452380Y-116728571D01*
X136404761Y-116633333D01*
X136357142Y-116585714D01*
X136261904Y-116538095D01*
X136023809Y-116538095D01*
X135928571Y-116585714D01*
X135880952Y-116633333D01*
X135833333Y-116728571D01*
X135833333Y-116919047D01*
X135880952Y-117014285D01*
X135928571Y-117061904D01*
X136023809Y-117109523D01*
X110357142Y-134557141D02*
X110309523Y-134604760D01*
X110166666Y-134652379D01*
X110071428Y-134652379D01*
X109928571Y-134604760D01*
X109833333Y-134509522D01*
X109785714Y-134414284D01*
X109738095Y-134223808D01*
X109738095Y-134080951D01*
X109785714Y-133890475D01*
X109833333Y-133795237D01*
X109928571Y-133699999D01*
X110071428Y-133652379D01*
X110166666Y-133652379D01*
X110309523Y-133699999D01*
X110357142Y-133747618D01*
X111309523Y-134652379D02*
X110738095Y-134652379D01*
X111023809Y-134652379D02*
X111023809Y-133652379D01*
X110928571Y-133795237D01*
X110833333Y-133890475D01*
X110738095Y-133938094D01*
X111690476Y-133747618D02*
X111738095Y-133699999D01*
X111833333Y-133652379D01*
X112071428Y-133652379D01*
X112166666Y-133699999D01*
X112214285Y-133747618D01*
X112261904Y-133842856D01*
X112261904Y-133938094D01*
X112214285Y-134080951D01*
X111642857Y-134652379D01*
X112261904Y-134652379D01*
X110757142Y-136757142D02*
X110709523Y-136804761D01*
X110566666Y-136852380D01*
X110471428Y-136852380D01*
X110328571Y-136804761D01*
X110233333Y-136709523D01*
X110185714Y-136614285D01*
X110138095Y-136423809D01*
X110138095Y-136280952D01*
X110185714Y-136090476D01*
X110233333Y-135995238D01*
X110328571Y-135900000D01*
X110471428Y-135852380D01*
X110566666Y-135852380D01*
X110709523Y-135900000D01*
X110757142Y-135947619D01*
X111709523Y-136852380D02*
X111138095Y-136852380D01*
X111423809Y-136852380D02*
X111423809Y-135852380D01*
X111328571Y-135995238D01*
X111233333Y-136090476D01*
X111138095Y-136138095D01*
X112661904Y-136852380D02*
X112090476Y-136852380D01*
X112376190Y-136852380D02*
X112376190Y-135852380D01*
X112280952Y-135995238D01*
X112185714Y-136090476D01*
X112090476Y-136138095D01*
X101557142Y-132242857D02*
X101604761Y-132290476D01*
X101652380Y-132433333D01*
X101652380Y-132528571D01*
X101604761Y-132671428D01*
X101509523Y-132766666D01*
X101414285Y-132814285D01*
X101223809Y-132861904D01*
X101080952Y-132861904D01*
X100890476Y-132814285D01*
X100795238Y-132766666D01*
X100700000Y-132671428D01*
X100652380Y-132528571D01*
X100652380Y-132433333D01*
X100700000Y-132290476D01*
X100747619Y-132242857D01*
X101652380Y-131290476D02*
X101652380Y-131861904D01*
X101652380Y-131576190D02*
X100652380Y-131576190D01*
X100795238Y-131671428D01*
X100890476Y-131766666D01*
X100938095Y-131861904D01*
X100652380Y-130671428D02*
X100652380Y-130576190D01*
X100700000Y-130480952D01*
X100747619Y-130433333D01*
X100842857Y-130385714D01*
X101033333Y-130338095D01*
X101271428Y-130338095D01*
X101461904Y-130385714D01*
X101557142Y-130433333D01*
X101604761Y-130480952D01*
X101652380Y-130576190D01*
X101652380Y-130671428D01*
X101604761Y-130766666D01*
X101557142Y-130814285D01*
X101461904Y-130861904D01*
X101271428Y-130909523D01*
X101033333Y-130909523D01*
X100842857Y-130861904D01*
X100747619Y-130814285D01*
X100700000Y-130766666D01*
X100652380Y-130671428D01*
X99357142Y-131366666D02*
X99404761Y-131414285D01*
X99452380Y-131557142D01*
X99452380Y-131652380D01*
X99404761Y-131795238D01*
X99309523Y-131890476D01*
X99214285Y-131938095D01*
X99023809Y-131985714D01*
X98880952Y-131985714D01*
X98690476Y-131938095D01*
X98595238Y-131890476D01*
X98500000Y-131795238D01*
X98452380Y-131652380D01*
X98452380Y-131557142D01*
X98500000Y-131414285D01*
X98547619Y-131366666D01*
X99452380Y-130890476D02*
X99452380Y-130700000D01*
X99404761Y-130604761D01*
X99357142Y-130557142D01*
X99214285Y-130461904D01*
X99023809Y-130414285D01*
X98642857Y-130414285D01*
X98547619Y-130461904D01*
X98500000Y-130509523D01*
X98452380Y-130604761D01*
X98452380Y-130795238D01*
X98500000Y-130890476D01*
X98547619Y-130938095D01*
X98642857Y-130985714D01*
X98880952Y-130985714D01*
X98976190Y-130938095D01*
X99023809Y-130890476D01*
X99071428Y-130795238D01*
X99071428Y-130604761D01*
X99023809Y-130509523D01*
X98976190Y-130461904D01*
X98880952Y-130414285D01*
X60833333Y-77707142D02*
X60785714Y-77754761D01*
X60642857Y-77802380D01*
X60547619Y-77802380D01*
X60404761Y-77754761D01*
X60309523Y-77659523D01*
X60261904Y-77564285D01*
X60214285Y-77373809D01*
X60214285Y-77230952D01*
X60261904Y-77040476D01*
X60309523Y-76945238D01*
X60404761Y-76850000D01*
X60547619Y-76802380D01*
X60642857Y-76802380D01*
X60785714Y-76850000D01*
X60833333Y-76897619D01*
X61690476Y-76802380D02*
X61500000Y-76802380D01*
X61404761Y-76850000D01*
X61357142Y-76897619D01*
X61261904Y-77040476D01*
X61214285Y-77230952D01*
X61214285Y-77611904D01*
X61261904Y-77707142D01*
X61309523Y-77754761D01*
X61404761Y-77802380D01*
X61595238Y-77802380D01*
X61690476Y-77754761D01*
X61738095Y-77707142D01*
X61785714Y-77611904D01*
X61785714Y-77373809D01*
X61738095Y-77278571D01*
X61690476Y-77230952D01*
X61595238Y-77183333D01*
X61404761Y-77183333D01*
X61309523Y-77230952D01*
X61261904Y-77278571D01*
X61214285Y-77373809D01*
X78833333Y-58357142D02*
X78785714Y-58404761D01*
X78642857Y-58452380D01*
X78547619Y-58452380D01*
X78404761Y-58404761D01*
X78309523Y-58309523D01*
X78261904Y-58214285D01*
X78214285Y-58023809D01*
X78214285Y-57880952D01*
X78261904Y-57690476D01*
X78309523Y-57595238D01*
X78404761Y-57500000D01*
X78547619Y-57452380D01*
X78642857Y-57452380D01*
X78785714Y-57500000D01*
X78833333Y-57547619D01*
X79738095Y-57452380D02*
X79261904Y-57452380D01*
X79214285Y-57928571D01*
X79261904Y-57880952D01*
X79357142Y-57833333D01*
X79595238Y-57833333D01*
X79690476Y-57880952D01*
X79738095Y-57928571D01*
X79785714Y-58023809D01*
X79785714Y-58261904D01*
X79738095Y-58357142D01*
X79690476Y-58404761D01*
X79595238Y-58452380D01*
X79357142Y-58452380D01*
X79261904Y-58404761D01*
X79214285Y-58357142D01*
X60902142Y-119191666D02*
X60949761Y-119239285D01*
X60997380Y-119382142D01*
X60997380Y-119477380D01*
X60949761Y-119620238D01*
X60854523Y-119715476D01*
X60759285Y-119763095D01*
X60568809Y-119810714D01*
X60425952Y-119810714D01*
X60235476Y-119763095D01*
X60140238Y-119715476D01*
X60045000Y-119620238D01*
X59997380Y-119477380D01*
X59997380Y-119382142D01*
X60045000Y-119239285D01*
X60092619Y-119191666D01*
X60330714Y-118334523D02*
X60997380Y-118334523D01*
X59949761Y-118572619D02*
X60664047Y-118810714D01*
X60664047Y-118191666D01*
X58392142Y-119191666D02*
X58439761Y-119239285D01*
X58487380Y-119382142D01*
X58487380Y-119477380D01*
X58439761Y-119620238D01*
X58344523Y-119715476D01*
X58249285Y-119763095D01*
X58058809Y-119810714D01*
X57915952Y-119810714D01*
X57725476Y-119763095D01*
X57630238Y-119715476D01*
X57535000Y-119620238D01*
X57487380Y-119477380D01*
X57487380Y-119382142D01*
X57535000Y-119239285D01*
X57582619Y-119191666D01*
X57487380Y-118858333D02*
X57487380Y-118239285D01*
X57868333Y-118572619D01*
X57868333Y-118429761D01*
X57915952Y-118334523D01*
X57963571Y-118286904D01*
X58058809Y-118239285D01*
X58296904Y-118239285D01*
X58392142Y-118286904D01*
X58439761Y-118334523D01*
X58487380Y-118429761D01*
X58487380Y-118715476D01*
X58439761Y-118810714D01*
X58392142Y-118858333D01*
X132833333Y-97927142D02*
X132785714Y-97974761D01*
X132642857Y-98022380D01*
X132547619Y-98022380D01*
X132404761Y-97974761D01*
X132309523Y-97879523D01*
X132261904Y-97784285D01*
X132214285Y-97593809D01*
X132214285Y-97450952D01*
X132261904Y-97260476D01*
X132309523Y-97165238D01*
X132404761Y-97070000D01*
X132547619Y-97022380D01*
X132642857Y-97022380D01*
X132785714Y-97070000D01*
X132833333Y-97117619D01*
X133214285Y-97117619D02*
X133261904Y-97070000D01*
X133357142Y-97022380D01*
X133595238Y-97022380D01*
X133690476Y-97070000D01*
X133738095Y-97117619D01*
X133785714Y-97212857D01*
X133785714Y-97308095D01*
X133738095Y-97450952D01*
X133166666Y-98022380D01*
X133785714Y-98022380D01*
X67357142Y-90566667D02*
X67404761Y-90614286D01*
X67452380Y-90757143D01*
X67452380Y-90852381D01*
X67404761Y-90995239D01*
X67309523Y-91090477D01*
X67214285Y-91138096D01*
X67023809Y-91185715D01*
X66880952Y-91185715D01*
X66690476Y-91138096D01*
X66595238Y-91090477D01*
X66500000Y-90995239D01*
X66452380Y-90852381D01*
X66452380Y-90757143D01*
X66500000Y-90614286D01*
X66547619Y-90566667D01*
X67452380Y-89614286D02*
X67452380Y-90185715D01*
X67452380Y-89900001D02*
X66452380Y-89900001D01*
X66595238Y-89995239D01*
X66690476Y-90090477D01*
X66738095Y-90185715D01*
M02*
