G04 #@! TF.GenerationSoftware,KiCad,Pcbnew,5.1.2-f72e74a~84~ubuntu18.04.1*
G04 #@! TF.CreationDate,2019-06-01T21:14:53+08:00*
G04 #@! TF.ProjectId,esp12-lora-remote-station,65737031-322d-46c6-9f72-612d72656d6f,rev?*
G04 #@! TF.SameCoordinates,Original*
G04 #@! TF.FileFunction,Legend,Bot*
G04 #@! TF.FilePolarity,Positive*
%FSLAX46Y46*%
G04 Gerber Fmt 4.6, Leading zero omitted, Abs format (unit mm)*
G04 Created by KiCad (PCBNEW 5.1.2-f72e74a~84~ubuntu18.04.1) date 2019-06-01 21:14:53*
%MOMM*%
%LPD*%
G04 APERTURE LIST*
%ADD10C,0.150000*%
G04 APERTURE END LIST*
D10*
X71912285Y-87404761D02*
X71769428Y-87452380D01*
X71531333Y-87452380D01*
X71436095Y-87404761D01*
X71388476Y-87357142D01*
X71340857Y-87261904D01*
X71340857Y-87166666D01*
X71388476Y-87071428D01*
X71436095Y-87023809D01*
X71531333Y-86976190D01*
X71721809Y-86928571D01*
X71817047Y-86880952D01*
X71864666Y-86833333D01*
X71912285Y-86738095D01*
X71912285Y-86642857D01*
X71864666Y-86547619D01*
X71817047Y-86500000D01*
X71721809Y-86452380D01*
X71483714Y-86452380D01*
X71340857Y-86500000D01*
X70912285Y-87452380D02*
X70912285Y-86452380D01*
X70674190Y-86452380D01*
X70531333Y-86500000D01*
X70436095Y-86595238D01*
X70388476Y-86690476D01*
X70340857Y-86880952D01*
X70340857Y-87023809D01*
X70388476Y-87214285D01*
X70436095Y-87309523D01*
X70531333Y-87404761D01*
X70674190Y-87452380D01*
X70912285Y-87452380D01*
X69959904Y-87166666D02*
X69483714Y-87166666D01*
X70055142Y-87452380D02*
X69721809Y-86452380D01*
X69388476Y-87452380D01*
X71888476Y-89944761D02*
X71745619Y-89992380D01*
X71507523Y-89992380D01*
X71412285Y-89944761D01*
X71364666Y-89897142D01*
X71317047Y-89801904D01*
X71317047Y-89706666D01*
X71364666Y-89611428D01*
X71412285Y-89563809D01*
X71507523Y-89516190D01*
X71698000Y-89468571D01*
X71793238Y-89420952D01*
X71840857Y-89373333D01*
X71888476Y-89278095D01*
X71888476Y-89182857D01*
X71840857Y-89087619D01*
X71793238Y-89040000D01*
X71698000Y-88992380D01*
X71459904Y-88992380D01*
X71317047Y-89040000D01*
X70317047Y-89897142D02*
X70364666Y-89944761D01*
X70507523Y-89992380D01*
X70602761Y-89992380D01*
X70745619Y-89944761D01*
X70840857Y-89849523D01*
X70888476Y-89754285D01*
X70936095Y-89563809D01*
X70936095Y-89420952D01*
X70888476Y-89230476D01*
X70840857Y-89135238D01*
X70745619Y-89040000D01*
X70602761Y-88992380D01*
X70507523Y-88992380D01*
X70364666Y-89040000D01*
X70317047Y-89087619D01*
X69412285Y-89992380D02*
X69888476Y-89992380D01*
X69888476Y-88992380D01*
X136404761Y-60087714D02*
X136452380Y-60230571D01*
X136452380Y-60468666D01*
X136404761Y-60563904D01*
X136357142Y-60611523D01*
X136261904Y-60659142D01*
X136166666Y-60659142D01*
X136071428Y-60611523D01*
X136023809Y-60563904D01*
X135976190Y-60468666D01*
X135928571Y-60278190D01*
X135880952Y-60182952D01*
X135833333Y-60135333D01*
X135738095Y-60087714D01*
X135642857Y-60087714D01*
X135547619Y-60135333D01*
X135500000Y-60182952D01*
X135452380Y-60278190D01*
X135452380Y-60516285D01*
X135500000Y-60659142D01*
X136452380Y-61087714D02*
X135452380Y-61087714D01*
X135452380Y-61325809D01*
X135500000Y-61468666D01*
X135595238Y-61563904D01*
X135690476Y-61611523D01*
X135880952Y-61659142D01*
X136023809Y-61659142D01*
X136214285Y-61611523D01*
X136309523Y-61563904D01*
X136404761Y-61468666D01*
X136452380Y-61325809D01*
X136452380Y-61087714D01*
X136166666Y-62040095D02*
X136166666Y-62516285D01*
X136452380Y-61944857D02*
X135452380Y-62278190D01*
X136452380Y-62611523D01*
X138944761Y-60111523D02*
X138992380Y-60254380D01*
X138992380Y-60492476D01*
X138944761Y-60587714D01*
X138897142Y-60635333D01*
X138801904Y-60682952D01*
X138706666Y-60682952D01*
X138611428Y-60635333D01*
X138563809Y-60587714D01*
X138516190Y-60492476D01*
X138468571Y-60302000D01*
X138420952Y-60206761D01*
X138373333Y-60159142D01*
X138278095Y-60111523D01*
X138182857Y-60111523D01*
X138087619Y-60159142D01*
X138040000Y-60206761D01*
X137992380Y-60302000D01*
X137992380Y-60540095D01*
X138040000Y-60682952D01*
X138897142Y-61682952D02*
X138944761Y-61635333D01*
X138992380Y-61492476D01*
X138992380Y-61397238D01*
X138944761Y-61254380D01*
X138849523Y-61159142D01*
X138754285Y-61111523D01*
X138563809Y-61063904D01*
X138420952Y-61063904D01*
X138230476Y-61111523D01*
X138135238Y-61159142D01*
X138040000Y-61254380D01*
X137992380Y-61397238D01*
X137992380Y-61492476D01*
X138040000Y-61635333D01*
X138087619Y-61682952D01*
X138992380Y-62587714D02*
X138992380Y-62111523D01*
X137992380Y-62111523D01*
X54414284Y-97204760D02*
X54271427Y-97252379D01*
X54033332Y-97252379D01*
X53938094Y-97204760D01*
X53890475Y-97157141D01*
X53842856Y-97061903D01*
X53842856Y-96966665D01*
X53890475Y-96871427D01*
X53938094Y-96823808D01*
X54033332Y-96776189D01*
X54223808Y-96728570D01*
X54319046Y-96680951D01*
X54366665Y-96633332D01*
X54414284Y-96538094D01*
X54414284Y-96442856D01*
X54366665Y-96347618D01*
X54319046Y-96299999D01*
X54223808Y-96252379D01*
X53985713Y-96252379D01*
X53842856Y-96299999D01*
X53414284Y-97252379D02*
X53414284Y-96252379D01*
X53176189Y-96252379D01*
X53033332Y-96299999D01*
X52938094Y-96395237D01*
X52890475Y-96490475D01*
X52842856Y-96680951D01*
X52842856Y-96823808D01*
X52890475Y-97014284D01*
X52938094Y-97109522D01*
X53033332Y-97204760D01*
X53176189Y-97252379D01*
X53414284Y-97252379D01*
X52461903Y-96966665D02*
X51985713Y-96966665D01*
X52557141Y-97252379D02*
X52223808Y-96252379D01*
X51890475Y-97252379D01*
X53990475Y-98604760D02*
X53847618Y-98652379D01*
X53609522Y-98652379D01*
X53514284Y-98604760D01*
X53466665Y-98557141D01*
X53419046Y-98461903D01*
X53419046Y-98366665D01*
X53466665Y-98271427D01*
X53514284Y-98223808D01*
X53609522Y-98176189D01*
X53799999Y-98128570D01*
X53895237Y-98080951D01*
X53942856Y-98033332D01*
X53990475Y-97938094D01*
X53990475Y-97842856D01*
X53942856Y-97747618D01*
X53895237Y-97699999D01*
X53799999Y-97652379D01*
X53561903Y-97652379D01*
X53419046Y-97699999D01*
X52419046Y-98557141D02*
X52466665Y-98604760D01*
X52609522Y-98652379D01*
X52704760Y-98652379D01*
X52847618Y-98604760D01*
X52942856Y-98509522D01*
X52990475Y-98414284D01*
X53038094Y-98223808D01*
X53038094Y-98080951D01*
X52990475Y-97890475D01*
X52942856Y-97795237D01*
X52847618Y-97699999D01*
X52704760Y-97652379D01*
X52609522Y-97652379D01*
X52466665Y-97699999D01*
X52419046Y-97747618D01*
X51514284Y-98652379D02*
X51990475Y-98652379D01*
X51990475Y-97652379D01*
X110516285Y-72404761D02*
X110373428Y-72452380D01*
X110135333Y-72452380D01*
X110040095Y-72404761D01*
X109992476Y-72357142D01*
X109944857Y-72261904D01*
X109944857Y-72166666D01*
X109992476Y-72071428D01*
X110040095Y-72023809D01*
X110135333Y-71976190D01*
X110325809Y-71928571D01*
X110421047Y-71880952D01*
X110468666Y-71833333D01*
X110516285Y-71738095D01*
X110516285Y-71642857D01*
X110468666Y-71547619D01*
X110421047Y-71500000D01*
X110325809Y-71452380D01*
X110087714Y-71452380D01*
X109944857Y-71500000D01*
X109516285Y-72452380D02*
X109516285Y-71452380D01*
X109278190Y-71452380D01*
X109135333Y-71500000D01*
X109040095Y-71595238D01*
X108992476Y-71690476D01*
X108944857Y-71880952D01*
X108944857Y-72023809D01*
X108992476Y-72214285D01*
X109040095Y-72309523D01*
X109135333Y-72404761D01*
X109278190Y-72452380D01*
X109516285Y-72452380D01*
X108563904Y-72166666D02*
X108087714Y-72166666D01*
X108659142Y-72452380D02*
X108325809Y-71452380D01*
X107992476Y-72452380D01*
X110492476Y-69864761D02*
X110349619Y-69912380D01*
X110111523Y-69912380D01*
X110016285Y-69864761D01*
X109968666Y-69817142D01*
X109921047Y-69721904D01*
X109921047Y-69626666D01*
X109968666Y-69531428D01*
X110016285Y-69483809D01*
X110111523Y-69436190D01*
X110302000Y-69388571D01*
X110397238Y-69340952D01*
X110444857Y-69293333D01*
X110492476Y-69198095D01*
X110492476Y-69102857D01*
X110444857Y-69007619D01*
X110397238Y-68960000D01*
X110302000Y-68912380D01*
X110063904Y-68912380D01*
X109921047Y-68960000D01*
X108921047Y-69817142D02*
X108968666Y-69864761D01*
X109111523Y-69912380D01*
X109206761Y-69912380D01*
X109349619Y-69864761D01*
X109444857Y-69769523D01*
X109492476Y-69674285D01*
X109540095Y-69483809D01*
X109540095Y-69340952D01*
X109492476Y-69150476D01*
X109444857Y-69055238D01*
X109349619Y-68960000D01*
X109206761Y-68912380D01*
X109111523Y-68912380D01*
X108968666Y-68960000D01*
X108921047Y-69007619D01*
X108016285Y-69912380D02*
X108492476Y-69912380D01*
X108492476Y-68912380D01*
X143516285Y-105404761D02*
X143373428Y-105452380D01*
X143135333Y-105452380D01*
X143040095Y-105404761D01*
X142992476Y-105357142D01*
X142944857Y-105261904D01*
X142944857Y-105166666D01*
X142992476Y-105071428D01*
X143040095Y-105023809D01*
X143135333Y-104976190D01*
X143325809Y-104928571D01*
X143421047Y-104880952D01*
X143468666Y-104833333D01*
X143516285Y-104738095D01*
X143516285Y-104642857D01*
X143468666Y-104547619D01*
X143421047Y-104500000D01*
X143325809Y-104452380D01*
X143087714Y-104452380D01*
X142944857Y-104500000D01*
X142516285Y-105452380D02*
X142516285Y-104452380D01*
X142278190Y-104452380D01*
X142135333Y-104500000D01*
X142040095Y-104595238D01*
X141992476Y-104690476D01*
X141944857Y-104880952D01*
X141944857Y-105023809D01*
X141992476Y-105214285D01*
X142040095Y-105309523D01*
X142135333Y-105404761D01*
X142278190Y-105452380D01*
X142516285Y-105452380D01*
X141563904Y-105166666D02*
X141087714Y-105166666D01*
X141659142Y-105452380D02*
X141325809Y-104452380D01*
X140992476Y-105452380D01*
X143492476Y-102864761D02*
X143349619Y-102912380D01*
X143111523Y-102912380D01*
X143016285Y-102864761D01*
X142968666Y-102817142D01*
X142921047Y-102721904D01*
X142921047Y-102626666D01*
X142968666Y-102531428D01*
X143016285Y-102483809D01*
X143111523Y-102436190D01*
X143302000Y-102388571D01*
X143397238Y-102340952D01*
X143444857Y-102293333D01*
X143492476Y-102198095D01*
X143492476Y-102102857D01*
X143444857Y-102007619D01*
X143397238Y-101960000D01*
X143302000Y-101912380D01*
X143063904Y-101912380D01*
X142921047Y-101960000D01*
X141921047Y-102817142D02*
X141968666Y-102864761D01*
X142111523Y-102912380D01*
X142206761Y-102912380D01*
X142349619Y-102864761D01*
X142444857Y-102769523D01*
X142492476Y-102674285D01*
X142540095Y-102483809D01*
X142540095Y-102340952D01*
X142492476Y-102150476D01*
X142444857Y-102055238D01*
X142349619Y-101960000D01*
X142206761Y-101912380D01*
X142111523Y-101912380D01*
X141968666Y-101960000D01*
X141921047Y-102007619D01*
X141016285Y-102912380D02*
X141492476Y-102912380D01*
X141492476Y-101912380D01*
M02*
