M48
; DRILL file {KiCad 5.1.2-f72e74a~84~ubuntu18.04.1} date Saturday, June 01, 2019 PM09:14:49 HKT
; FORMAT={-:-/ absolute / inch / decimal}
; #@! TF.CreationDate,2019-06-01T21:14:49+08:00
; #@! TF.GenerationSoftware,Kicad,Pcbnew,5.1.2-f72e74a~84~ubuntu18.04.1
; #@! TF.FileFunction,Plated,1,2,PTH
FMAT,2
INCH
T1C0.0157
T2C0.0236
T3C0.0256
T4C0.0335
T5C0.0394
T6C0.0472
T7C0.0591
T8C0.0787
%
G90
G05
T1
X2.033Y-3.9581
X2.1877Y-4.694
X2.2835Y-5.315
X2.2888Y-4.7598
X2.361Y-4.5509
X2.3904Y-4.7993
X2.3906Y-4.7505
X2.4016Y-5.315
X2.4803Y-5.315
X2.5354Y-4.5433
X2.5827Y-4.7638
X2.5925Y-2.5418
X2.5984Y-5.315
X2.6063Y-4.5748
X2.6109Y-4.8493
X2.6224Y-4.9569
X2.6224Y-5.0738
X2.6713Y-5.0394
X2.6772Y-5.2756
X2.6865Y-3.4287
X2.7216Y-4.8425
X2.748Y-4.5669
X2.7559Y-3.1496
X2.7795Y-5.0787
X2.8189Y-2.7795
X2.8677Y-2.1964
X2.937Y-5.1496
X2.9577Y-2.4016
X2.9816Y-5.2805
X3.0139Y-3.8159
X3.0315Y-2.751
X3.0383Y-2.5638
X3.0383Y-2.9478
X3.0787Y-3.1732
X3.0945Y-3.4803
X3.1024Y-3.0551
X3.1496Y-2.5197
X3.189Y-3.0157
X3.1969Y-2.6614
X3.2047Y-3.2047
X3.252Y-3.126
X3.3552Y-4.6427
X3.3701Y-2.6457
X3.378Y-2.3465
X3.3842Y-3.4252
X3.4488Y-3.4882
X3.4928Y-4.6544
X3.5433Y-3.1969
X3.5493Y-3.5252
X3.5669Y-3.8819
X3.6014Y-3.5324
X3.6929Y-3.0079
X3.7591Y-3.8665
X3.7874Y-2.8189
X3.9167Y-4.8819
X3.9764Y-2.9606
X3.9835Y-2.4102
X3.9843Y-2.5906
X3.9921Y-2.7244
X4.0236Y-5.4488
X4.0397Y-2.4091
X4.0472Y-3.0236
X4.0551Y-5.4803
X4.0945Y-5.0236
X4.0945Y-5.063
X4.1116Y-5.4931
X4.125Y-4.7381
X4.1339Y-2.4331
X4.1339Y-5.1969
X4.1575Y-4.9213
X4.1732Y-2.5197
X4.2175Y-5.3543
X4.2205Y-5.2283
X4.2705Y-3.5993
X4.2815Y-3.0709
X4.3721Y-5.3963
X4.4016Y-3.1024
X4.5126Y-5.0416
X4.5276Y-2.3622
X4.6252Y-2.074
X4.6299Y-4.8268
X5.1315Y-4.0871
X5.2018Y-3.8976
X5.2047Y-2.1654
X5.2057Y-5.0943
X5.2143Y-5.3635
X5.2756Y-4.247
X5.2913Y-5.4803
X5.3622Y-4.0945
X5.6324Y-4.1339
X2.4331Y-2.2165
X2.4331Y-2.2638
X2.4331Y-2.311
T3
X3.314Y-4.749
X3.364Y-4.749
X3.414Y-4.749
X2.126Y-3.3858
X2.126Y-3.4358
X2.126Y-3.4858
X2.126Y-3.5358
X2.126Y-3.5858
T4
X4.3504Y-5.533
X4.5472Y-5.533
T5
X2.9134Y-3.4252
X2.9134Y-3.5252
X2.1305Y-3.9581
X2.1305Y-4.0581
X2.1346Y-4.4488
X2.2346Y-4.4488
X2.3346Y-4.4488
X2.4346Y-4.4488
X2.5346Y-4.4488
X2.6346Y-4.4488
X2.7346Y-4.4488
X2.8346Y-4.4488
X5.3543Y-2.2835
X5.4543Y-2.2835
X4.1732Y-2.7346
X4.1732Y-2.8346
X2.5925Y-2.1929
X2.5925Y-2.2929
X2.7756Y-2.1929
X2.7756Y-2.2929
X2.1417Y-5.4094
X2.2417Y-5.4094
X2.3417Y-5.4094
X2.4417Y-5.4094
X2.5417Y-5.4094
X2.6417Y-5.4094
X2.7417Y-5.4094
X2.8417Y-5.4094
X5.4724Y-4.0339
X5.4724Y-4.1339
X4.3071Y-2.1295
X4.3071Y-2.2295
X4.3071Y-2.3295
X4.3071Y-2.4295
X4.3071Y-2.5295
X5.5512Y-5.0394
X5.5512Y-5.1394
X5.5512Y-5.2394
X5.5512Y-5.3394
T6
X3.44Y-4.8907
X3.44Y-5.4616
X3.5384Y-5.4616
X3.6368Y-4.8907
X3.6368Y-5.4616
X4.8894Y-2.6772
X4.9894Y-2.6772
X5.0894Y-2.6772
X5.1894Y-2.6772
T8
X4.5807Y-2.6969
X4.5807Y-3.6339
X5.498Y-2.6969
X5.498Y-3.6339
T2
G00X4.311Y-5.6531
M15
G01X4.311Y-5.6255
M16
G05
G00X4.5866Y-5.6255
M15
G01X4.5866Y-5.6531
M16
G05
T7
G00X3.3179Y-5.1919
M15
G01X3.3179Y-5.1407
M16
G05
G00X3.7589Y-5.1919
M15
G01X3.7589Y-5.1407
M16
G05
T0
M30
