G04 #@! TF.GenerationSoftware,KiCad,Pcbnew,5.1.2-f72e74a~84~ubuntu18.04.1*
G04 #@! TF.CreationDate,2019-06-01T21:14:53+08:00*
G04 #@! TF.ProjectId,esp12-lora-remote-station,65737031-322d-46c6-9f72-612d72656d6f,rev?*
G04 #@! TF.SameCoordinates,Original*
G04 #@! TF.FileFunction,Soldermask,Bot*
G04 #@! TF.FilePolarity,Negative*
%FSLAX46Y46*%
G04 Gerber Fmt 4.6, Leading zero omitted, Abs format (unit mm)*
G04 Created by KiCad (PCBNEW 5.1.2-f72e74a~84~ubuntu18.04.1) date 2019-06-01 21:14:53*
%MOMM*%
%LPD*%
G04 APERTURE LIST*
%ADD10C,0.100000*%
G04 APERTURE END LIST*
D10*
G36*
X109627618Y-142245920D02*
G01*
X109718404Y-142273460D01*
X109750336Y-142283146D01*
X109863425Y-142343594D01*
X109962554Y-142424946D01*
X110043906Y-142524075D01*
X110104354Y-142637164D01*
X110114040Y-142669096D01*
X110141580Y-142759882D01*
X110151000Y-142855527D01*
X110151000Y-143619473D01*
X110141580Y-143715118D01*
X110114040Y-143805904D01*
X110104354Y-143837836D01*
X110043906Y-143950925D01*
X109962554Y-144050053D01*
X109863424Y-144131406D01*
X109750335Y-144191854D01*
X109718403Y-144201540D01*
X109627617Y-144229080D01*
X109500000Y-144241649D01*
X109372382Y-144229080D01*
X109281596Y-144201540D01*
X109249664Y-144191854D01*
X109136575Y-144131406D01*
X109037447Y-144050054D01*
X108956094Y-143950924D01*
X108895646Y-143837835D01*
X108885960Y-143805903D01*
X108858420Y-143715117D01*
X108849000Y-143619472D01*
X108849000Y-142855527D01*
X108858420Y-142759882D01*
X108895645Y-142637168D01*
X108920608Y-142590466D01*
X108956095Y-142524075D01*
X109037447Y-142424946D01*
X109136576Y-142343594D01*
X109249665Y-142283146D01*
X109281597Y-142273460D01*
X109372383Y-142245920D01*
X109500000Y-142233351D01*
X109627618Y-142245920D01*
X109627618Y-142245920D01*
G37*
G36*
X116627617Y-142245920D02*
G01*
X116718403Y-142273460D01*
X116750335Y-142283146D01*
X116863424Y-142343594D01*
X116962554Y-142424947D01*
X117043906Y-142524075D01*
X117104354Y-142637164D01*
X117114040Y-142669096D01*
X117141580Y-142759882D01*
X117151000Y-142855527D01*
X117151000Y-143619473D01*
X117141580Y-143715118D01*
X117114040Y-143805904D01*
X117104354Y-143837836D01*
X117043906Y-143950925D01*
X116962554Y-144050054D01*
X116863425Y-144131406D01*
X116750336Y-144191854D01*
X116718404Y-144201540D01*
X116627618Y-144229080D01*
X116500000Y-144241649D01*
X116372383Y-144229080D01*
X116281597Y-144201540D01*
X116249665Y-144191854D01*
X116136576Y-144131406D01*
X116037447Y-144050054D01*
X115956095Y-143950925D01*
X115895648Y-143837837D01*
X115895645Y-143837832D01*
X115858420Y-143715118D01*
X115849000Y-143619473D01*
X115849000Y-142855528D01*
X115858420Y-142759883D01*
X115895645Y-142637169D01*
X115895646Y-142637165D01*
X115956094Y-142524076D01*
X116037447Y-142424946D01*
X116136575Y-142343594D01*
X116249664Y-142283146D01*
X116281596Y-142273460D01*
X116372382Y-142245920D01*
X116500000Y-142233351D01*
X116627617Y-142245920D01*
X116627617Y-142245920D01*
G37*
G36*
X110726348Y-139791320D02*
G01*
X110726350Y-139791321D01*
X110726351Y-139791321D01*
X110867574Y-139849817D01*
X110867577Y-139849819D01*
X110994669Y-139934739D01*
X111102761Y-140042831D01*
X111187681Y-140169923D01*
X111187683Y-140169926D01*
X111246179Y-140311149D01*
X111276000Y-140461071D01*
X111276000Y-140613929D01*
X111246179Y-140763851D01*
X111187683Y-140905074D01*
X111187681Y-140905077D01*
X111102761Y-141032169D01*
X110994669Y-141140261D01*
X110867577Y-141225181D01*
X110867574Y-141225183D01*
X110726351Y-141283679D01*
X110726350Y-141283679D01*
X110726348Y-141283680D01*
X110576431Y-141313500D01*
X110423569Y-141313500D01*
X110273652Y-141283680D01*
X110273650Y-141283679D01*
X110273649Y-141283679D01*
X110132426Y-141225183D01*
X110132423Y-141225181D01*
X110005331Y-141140261D01*
X109897239Y-141032169D01*
X109812319Y-140905077D01*
X109812317Y-140905074D01*
X109753821Y-140763851D01*
X109724000Y-140613929D01*
X109724000Y-140461071D01*
X109753821Y-140311149D01*
X109812317Y-140169926D01*
X109812319Y-140169923D01*
X109897239Y-140042831D01*
X110005331Y-139934739D01*
X110132423Y-139849819D01*
X110132426Y-139849817D01*
X110273649Y-139791321D01*
X110273650Y-139791321D01*
X110273652Y-139791320D01*
X110423569Y-139761500D01*
X110576431Y-139761500D01*
X110726348Y-139791320D01*
X110726348Y-139791320D01*
G37*
G36*
X115726348Y-139791320D02*
G01*
X115726350Y-139791321D01*
X115726351Y-139791321D01*
X115867574Y-139849817D01*
X115867577Y-139849819D01*
X115994669Y-139934739D01*
X116102761Y-140042831D01*
X116187681Y-140169923D01*
X116187683Y-140169926D01*
X116246179Y-140311149D01*
X116276000Y-140461071D01*
X116276000Y-140613929D01*
X116246179Y-140763851D01*
X116187683Y-140905074D01*
X116187681Y-140905077D01*
X116102761Y-141032169D01*
X115994669Y-141140261D01*
X115867577Y-141225181D01*
X115867574Y-141225183D01*
X115726351Y-141283679D01*
X115726350Y-141283679D01*
X115726348Y-141283680D01*
X115576431Y-141313500D01*
X115423569Y-141313500D01*
X115273652Y-141283680D01*
X115273650Y-141283679D01*
X115273649Y-141283679D01*
X115132426Y-141225183D01*
X115132423Y-141225181D01*
X115005331Y-141140261D01*
X114897239Y-141032169D01*
X114812319Y-140905077D01*
X114812317Y-140905074D01*
X114753821Y-140763851D01*
X114724000Y-140613929D01*
X114724000Y-140461071D01*
X114753821Y-140311149D01*
X114812317Y-140169926D01*
X114812319Y-140169923D01*
X114897239Y-140042831D01*
X115005331Y-139934739D01*
X115132423Y-139849819D01*
X115132426Y-139849817D01*
X115273649Y-139791321D01*
X115273650Y-139791321D01*
X115273652Y-139791320D01*
X115423569Y-139761500D01*
X115576431Y-139761500D01*
X115726348Y-139791320D01*
X115726348Y-139791320D01*
G37*
G36*
X90181564Y-137714389D02*
G01*
X90372833Y-137793615D01*
X90372835Y-137793616D01*
X90536523Y-137902989D01*
X90544973Y-137908635D01*
X90691365Y-138055027D01*
X90806385Y-138227167D01*
X90885611Y-138418436D01*
X90926000Y-138621484D01*
X90926000Y-138828516D01*
X90885611Y-139031564D01*
X90806385Y-139222833D01*
X90806384Y-139222835D01*
X90691365Y-139394973D01*
X90544973Y-139541365D01*
X90372835Y-139656384D01*
X90372834Y-139656385D01*
X90372833Y-139656385D01*
X90181564Y-139735611D01*
X89978516Y-139776000D01*
X89771484Y-139776000D01*
X89568436Y-139735611D01*
X89377167Y-139656385D01*
X89377166Y-139656385D01*
X89377165Y-139656384D01*
X89205027Y-139541365D01*
X89058635Y-139394973D01*
X88943616Y-139222835D01*
X88943615Y-139222833D01*
X88864389Y-139031564D01*
X88824000Y-138828516D01*
X88824000Y-138621484D01*
X88864389Y-138418436D01*
X88943615Y-138227167D01*
X89058635Y-138055027D01*
X89205027Y-137908635D01*
X89213477Y-137902989D01*
X89377165Y-137793616D01*
X89377167Y-137793615D01*
X89568436Y-137714389D01*
X89771484Y-137674000D01*
X89978516Y-137674000D01*
X90181564Y-137714389D01*
X90181564Y-137714389D01*
G37*
G36*
X92681564Y-137714389D02*
G01*
X92872833Y-137793615D01*
X92872835Y-137793616D01*
X93036523Y-137902989D01*
X93044973Y-137908635D01*
X93191365Y-138055027D01*
X93306385Y-138227167D01*
X93385611Y-138418436D01*
X93426000Y-138621484D01*
X93426000Y-138828516D01*
X93385611Y-139031564D01*
X93306385Y-139222833D01*
X93306384Y-139222835D01*
X93191365Y-139394973D01*
X93044973Y-139541365D01*
X92872835Y-139656384D01*
X92872834Y-139656385D01*
X92872833Y-139656385D01*
X92681564Y-139735611D01*
X92478516Y-139776000D01*
X92271484Y-139776000D01*
X92068436Y-139735611D01*
X91877167Y-139656385D01*
X91877166Y-139656385D01*
X91877165Y-139656384D01*
X91705027Y-139541365D01*
X91558635Y-139394973D01*
X91443616Y-139222835D01*
X91443615Y-139222833D01*
X91364389Y-139031564D01*
X91324000Y-138828516D01*
X91324000Y-138621484D01*
X91364389Y-138418436D01*
X91443615Y-138227167D01*
X91558635Y-138055027D01*
X91705027Y-137908635D01*
X91713477Y-137902989D01*
X91877165Y-137793616D01*
X91877167Y-137793615D01*
X92068436Y-137714389D01*
X92271484Y-137674000D01*
X92478516Y-137674000D01*
X92681564Y-137714389D01*
X92681564Y-137714389D01*
G37*
G36*
X88426000Y-139776000D02*
G01*
X86324000Y-139776000D01*
X86324000Y-137674000D01*
X88426000Y-137674000D01*
X88426000Y-139776000D01*
X88426000Y-139776000D01*
G37*
G36*
X69750443Y-136505519D02*
G01*
X69816627Y-136512037D01*
X69986466Y-136563557D01*
X70142991Y-136647222D01*
X70178729Y-136676552D01*
X70280186Y-136759814D01*
X70363448Y-136861271D01*
X70392778Y-136897009D01*
X70476443Y-137053534D01*
X70527963Y-137223373D01*
X70545359Y-137400000D01*
X70527963Y-137576627D01*
X70476443Y-137746466D01*
X70392778Y-137902991D01*
X70388146Y-137908635D01*
X70280186Y-138040186D01*
X70178729Y-138123448D01*
X70142991Y-138152778D01*
X69986466Y-138236443D01*
X69816627Y-138287963D01*
X69750442Y-138294482D01*
X69684260Y-138301000D01*
X69595740Y-138301000D01*
X69529558Y-138294482D01*
X69463373Y-138287963D01*
X69293534Y-138236443D01*
X69137009Y-138152778D01*
X69101271Y-138123448D01*
X68999814Y-138040186D01*
X68891854Y-137908635D01*
X68887222Y-137902991D01*
X68803557Y-137746466D01*
X68752037Y-137576627D01*
X68734641Y-137400000D01*
X68752037Y-137223373D01*
X68803557Y-137053534D01*
X68887222Y-136897009D01*
X68916552Y-136861271D01*
X68999814Y-136759814D01*
X69101271Y-136676552D01*
X69137009Y-136647222D01*
X69293534Y-136563557D01*
X69463373Y-136512037D01*
X69529557Y-136505519D01*
X69595740Y-136499000D01*
X69684260Y-136499000D01*
X69750443Y-136505519D01*
X69750443Y-136505519D01*
G37*
G36*
X64670443Y-136505519D02*
G01*
X64736627Y-136512037D01*
X64906466Y-136563557D01*
X65062991Y-136647222D01*
X65098729Y-136676552D01*
X65200186Y-136759814D01*
X65283448Y-136861271D01*
X65312778Y-136897009D01*
X65396443Y-137053534D01*
X65447963Y-137223373D01*
X65465359Y-137400000D01*
X65447963Y-137576627D01*
X65396443Y-137746466D01*
X65312778Y-137902991D01*
X65308146Y-137908635D01*
X65200186Y-138040186D01*
X65098729Y-138123448D01*
X65062991Y-138152778D01*
X64906466Y-138236443D01*
X64736627Y-138287963D01*
X64670442Y-138294482D01*
X64604260Y-138301000D01*
X64515740Y-138301000D01*
X64449558Y-138294482D01*
X64383373Y-138287963D01*
X64213534Y-138236443D01*
X64057009Y-138152778D01*
X64021271Y-138123448D01*
X63919814Y-138040186D01*
X63811854Y-137908635D01*
X63807222Y-137902991D01*
X63723557Y-137746466D01*
X63672037Y-137576627D01*
X63654641Y-137400000D01*
X63672037Y-137223373D01*
X63723557Y-137053534D01*
X63807222Y-136897009D01*
X63836552Y-136861271D01*
X63919814Y-136759814D01*
X64021271Y-136676552D01*
X64057009Y-136647222D01*
X64213534Y-136563557D01*
X64383373Y-136512037D01*
X64449557Y-136505519D01*
X64515740Y-136499000D01*
X64604260Y-136499000D01*
X64670443Y-136505519D01*
X64670443Y-136505519D01*
G37*
G36*
X67210443Y-136505519D02*
G01*
X67276627Y-136512037D01*
X67446466Y-136563557D01*
X67602991Y-136647222D01*
X67638729Y-136676552D01*
X67740186Y-136759814D01*
X67823448Y-136861271D01*
X67852778Y-136897009D01*
X67936443Y-137053534D01*
X67987963Y-137223373D01*
X68005359Y-137400000D01*
X67987963Y-137576627D01*
X67936443Y-137746466D01*
X67852778Y-137902991D01*
X67848146Y-137908635D01*
X67740186Y-138040186D01*
X67638729Y-138123448D01*
X67602991Y-138152778D01*
X67446466Y-138236443D01*
X67276627Y-138287963D01*
X67210442Y-138294482D01*
X67144260Y-138301000D01*
X67055740Y-138301000D01*
X66989558Y-138294482D01*
X66923373Y-138287963D01*
X66753534Y-138236443D01*
X66597009Y-138152778D01*
X66561271Y-138123448D01*
X66459814Y-138040186D01*
X66351854Y-137908635D01*
X66347222Y-137902991D01*
X66263557Y-137746466D01*
X66212037Y-137576627D01*
X66194641Y-137400000D01*
X66212037Y-137223373D01*
X66263557Y-137053534D01*
X66347222Y-136897009D01*
X66376552Y-136861271D01*
X66459814Y-136759814D01*
X66561271Y-136676552D01*
X66597009Y-136647222D01*
X66753534Y-136563557D01*
X66923373Y-136512037D01*
X66989557Y-136505519D01*
X67055740Y-136499000D01*
X67144260Y-136499000D01*
X67210443Y-136505519D01*
X67210443Y-136505519D01*
G37*
G36*
X62130443Y-136505519D02*
G01*
X62196627Y-136512037D01*
X62366466Y-136563557D01*
X62522991Y-136647222D01*
X62558729Y-136676552D01*
X62660186Y-136759814D01*
X62743448Y-136861271D01*
X62772778Y-136897009D01*
X62856443Y-137053534D01*
X62907963Y-137223373D01*
X62925359Y-137400000D01*
X62907963Y-137576627D01*
X62856443Y-137746466D01*
X62772778Y-137902991D01*
X62768146Y-137908635D01*
X62660186Y-138040186D01*
X62558729Y-138123448D01*
X62522991Y-138152778D01*
X62366466Y-138236443D01*
X62196627Y-138287963D01*
X62130442Y-138294482D01*
X62064260Y-138301000D01*
X61975740Y-138301000D01*
X61909558Y-138294482D01*
X61843373Y-138287963D01*
X61673534Y-138236443D01*
X61517009Y-138152778D01*
X61481271Y-138123448D01*
X61379814Y-138040186D01*
X61271854Y-137908635D01*
X61267222Y-137902991D01*
X61183557Y-137746466D01*
X61132037Y-137576627D01*
X61114641Y-137400000D01*
X61132037Y-137223373D01*
X61183557Y-137053534D01*
X61267222Y-136897009D01*
X61296552Y-136861271D01*
X61379814Y-136759814D01*
X61481271Y-136676552D01*
X61517009Y-136647222D01*
X61673534Y-136563557D01*
X61843373Y-136512037D01*
X61909557Y-136505519D01*
X61975740Y-136499000D01*
X62064260Y-136499000D01*
X62130443Y-136505519D01*
X62130443Y-136505519D01*
G37*
G36*
X72290443Y-136505519D02*
G01*
X72356627Y-136512037D01*
X72526466Y-136563557D01*
X72682991Y-136647222D01*
X72718729Y-136676552D01*
X72820186Y-136759814D01*
X72903448Y-136861271D01*
X72932778Y-136897009D01*
X73016443Y-137053534D01*
X73067963Y-137223373D01*
X73085359Y-137400000D01*
X73067963Y-137576627D01*
X73016443Y-137746466D01*
X72932778Y-137902991D01*
X72928146Y-137908635D01*
X72820186Y-138040186D01*
X72718729Y-138123448D01*
X72682991Y-138152778D01*
X72526466Y-138236443D01*
X72356627Y-138287963D01*
X72290442Y-138294482D01*
X72224260Y-138301000D01*
X72135740Y-138301000D01*
X72069558Y-138294482D01*
X72003373Y-138287963D01*
X71833534Y-138236443D01*
X71677009Y-138152778D01*
X71641271Y-138123448D01*
X71539814Y-138040186D01*
X71431854Y-137908635D01*
X71427222Y-137902991D01*
X71343557Y-137746466D01*
X71292037Y-137576627D01*
X71274641Y-137400000D01*
X71292037Y-137223373D01*
X71343557Y-137053534D01*
X71427222Y-136897009D01*
X71456552Y-136861271D01*
X71539814Y-136759814D01*
X71641271Y-136676552D01*
X71677009Y-136647222D01*
X71833534Y-136563557D01*
X72003373Y-136512037D01*
X72069557Y-136505519D01*
X72135740Y-136499000D01*
X72224260Y-136499000D01*
X72290443Y-136505519D01*
X72290443Y-136505519D01*
G37*
G36*
X57050443Y-136505519D02*
G01*
X57116627Y-136512037D01*
X57286466Y-136563557D01*
X57442991Y-136647222D01*
X57478729Y-136676552D01*
X57580186Y-136759814D01*
X57663448Y-136861271D01*
X57692778Y-136897009D01*
X57776443Y-137053534D01*
X57827963Y-137223373D01*
X57845359Y-137400000D01*
X57827963Y-137576627D01*
X57776443Y-137746466D01*
X57692778Y-137902991D01*
X57688146Y-137908635D01*
X57580186Y-138040186D01*
X57478729Y-138123448D01*
X57442991Y-138152778D01*
X57286466Y-138236443D01*
X57116627Y-138287963D01*
X57050442Y-138294482D01*
X56984260Y-138301000D01*
X56895740Y-138301000D01*
X56829558Y-138294482D01*
X56763373Y-138287963D01*
X56593534Y-138236443D01*
X56437009Y-138152778D01*
X56401271Y-138123448D01*
X56299814Y-138040186D01*
X56191854Y-137908635D01*
X56187222Y-137902991D01*
X56103557Y-137746466D01*
X56052037Y-137576627D01*
X56034641Y-137400000D01*
X56052037Y-137223373D01*
X56103557Y-137053534D01*
X56187222Y-136897009D01*
X56216552Y-136861271D01*
X56299814Y-136759814D01*
X56401271Y-136676552D01*
X56437009Y-136647222D01*
X56593534Y-136563557D01*
X56763373Y-136512037D01*
X56829557Y-136505519D01*
X56895740Y-136499000D01*
X56984260Y-136499000D01*
X57050443Y-136505519D01*
X57050443Y-136505519D01*
G37*
G36*
X59590443Y-136505519D02*
G01*
X59656627Y-136512037D01*
X59826466Y-136563557D01*
X59982991Y-136647222D01*
X60018729Y-136676552D01*
X60120186Y-136759814D01*
X60203448Y-136861271D01*
X60232778Y-136897009D01*
X60316443Y-137053534D01*
X60367963Y-137223373D01*
X60385359Y-137400000D01*
X60367963Y-137576627D01*
X60316443Y-137746466D01*
X60232778Y-137902991D01*
X60228146Y-137908635D01*
X60120186Y-138040186D01*
X60018729Y-138123448D01*
X59982991Y-138152778D01*
X59826466Y-138236443D01*
X59656627Y-138287963D01*
X59590442Y-138294482D01*
X59524260Y-138301000D01*
X59435740Y-138301000D01*
X59369558Y-138294482D01*
X59303373Y-138287963D01*
X59133534Y-138236443D01*
X58977009Y-138152778D01*
X58941271Y-138123448D01*
X58839814Y-138040186D01*
X58731854Y-137908635D01*
X58727222Y-137902991D01*
X58643557Y-137746466D01*
X58592037Y-137576627D01*
X58574641Y-137400000D01*
X58592037Y-137223373D01*
X58643557Y-137053534D01*
X58727222Y-136897009D01*
X58756552Y-136861271D01*
X58839814Y-136759814D01*
X58941271Y-136676552D01*
X58977009Y-136647222D01*
X59133534Y-136563557D01*
X59303373Y-136512037D01*
X59369557Y-136505519D01*
X59435740Y-136499000D01*
X59524260Y-136499000D01*
X59590443Y-136505519D01*
X59590443Y-136505519D01*
G37*
G36*
X55301000Y-138301000D02*
G01*
X53499000Y-138301000D01*
X53499000Y-136499000D01*
X55301000Y-136499000D01*
X55301000Y-138301000D01*
X55301000Y-138301000D01*
G37*
G36*
X141110442Y-134725518D02*
G01*
X141176627Y-134732037D01*
X141346466Y-134783557D01*
X141502991Y-134867222D01*
X141538729Y-134896552D01*
X141640186Y-134979814D01*
X141723448Y-135081271D01*
X141752778Y-135117009D01*
X141836443Y-135273534D01*
X141887963Y-135443373D01*
X141905359Y-135620000D01*
X141887963Y-135796627D01*
X141836443Y-135966466D01*
X141752778Y-136122991D01*
X141723448Y-136158729D01*
X141640186Y-136260186D01*
X141538729Y-136343448D01*
X141502991Y-136372778D01*
X141346466Y-136456443D01*
X141176627Y-136507963D01*
X141135262Y-136512037D01*
X141044260Y-136521000D01*
X140955740Y-136521000D01*
X140864738Y-136512037D01*
X140823373Y-136507963D01*
X140653534Y-136456443D01*
X140497009Y-136372778D01*
X140461271Y-136343448D01*
X140359814Y-136260186D01*
X140276552Y-136158729D01*
X140247222Y-136122991D01*
X140163557Y-135966466D01*
X140112037Y-135796627D01*
X140094641Y-135620000D01*
X140112037Y-135443373D01*
X140163557Y-135273534D01*
X140247222Y-135117009D01*
X140276552Y-135081271D01*
X140359814Y-134979814D01*
X140461271Y-134896552D01*
X140497009Y-134867222D01*
X140653534Y-134783557D01*
X140823373Y-134732037D01*
X140889558Y-134725518D01*
X140955740Y-134719000D01*
X141044260Y-134719000D01*
X141110442Y-134725518D01*
X141110442Y-134725518D01*
G37*
G36*
X141110442Y-132185518D02*
G01*
X141176627Y-132192037D01*
X141346466Y-132243557D01*
X141502991Y-132327222D01*
X141538729Y-132356552D01*
X141640186Y-132439814D01*
X141723448Y-132541271D01*
X141752778Y-132577009D01*
X141836443Y-132733534D01*
X141887963Y-132903373D01*
X141905359Y-133080000D01*
X141887963Y-133256627D01*
X141836443Y-133426466D01*
X141752778Y-133582991D01*
X141723448Y-133618729D01*
X141640186Y-133720186D01*
X141538729Y-133803448D01*
X141502991Y-133832778D01*
X141346466Y-133916443D01*
X141176627Y-133967963D01*
X141110442Y-133974482D01*
X141044260Y-133981000D01*
X140955740Y-133981000D01*
X140889558Y-133974482D01*
X140823373Y-133967963D01*
X140653534Y-133916443D01*
X140497009Y-133832778D01*
X140461271Y-133803448D01*
X140359814Y-133720186D01*
X140276552Y-133618729D01*
X140247222Y-133582991D01*
X140163557Y-133426466D01*
X140112037Y-133256627D01*
X140094641Y-133080000D01*
X140112037Y-132903373D01*
X140163557Y-132733534D01*
X140247222Y-132577009D01*
X140276552Y-132541271D01*
X140359814Y-132439814D01*
X140461271Y-132356552D01*
X140497009Y-132327222D01*
X140653534Y-132243557D01*
X140823373Y-132192037D01*
X140889558Y-132185518D01*
X140955740Y-132179000D01*
X141044260Y-132179000D01*
X141110442Y-132185518D01*
X141110442Y-132185518D01*
G37*
G36*
X85576000Y-133026000D02*
G01*
X82974000Y-133026000D01*
X82974000Y-129424000D01*
X85576000Y-129424000D01*
X85576000Y-133026000D01*
X85576000Y-133026000D01*
G37*
G36*
X96776000Y-133026000D02*
G01*
X94174000Y-133026000D01*
X94174000Y-129424000D01*
X96776000Y-129424000D01*
X96776000Y-133026000D01*
X96776000Y-133026000D01*
G37*
G36*
X141110442Y-129645518D02*
G01*
X141176627Y-129652037D01*
X141346466Y-129703557D01*
X141502991Y-129787222D01*
X141538729Y-129816552D01*
X141640186Y-129899814D01*
X141723448Y-130001271D01*
X141752778Y-130037009D01*
X141836443Y-130193534D01*
X141887963Y-130363373D01*
X141905359Y-130540000D01*
X141887963Y-130716627D01*
X141836443Y-130886466D01*
X141752778Y-131042991D01*
X141723448Y-131078729D01*
X141640186Y-131180186D01*
X141538729Y-131263448D01*
X141502991Y-131292778D01*
X141346466Y-131376443D01*
X141176627Y-131427963D01*
X141110442Y-131434482D01*
X141044260Y-131441000D01*
X140955740Y-131441000D01*
X140889558Y-131434482D01*
X140823373Y-131427963D01*
X140653534Y-131376443D01*
X140497009Y-131292778D01*
X140461271Y-131263448D01*
X140359814Y-131180186D01*
X140276552Y-131078729D01*
X140247222Y-131042991D01*
X140163557Y-130886466D01*
X140112037Y-130716627D01*
X140094641Y-130540000D01*
X140112037Y-130363373D01*
X140163557Y-130193534D01*
X140247222Y-130037009D01*
X140276552Y-130001271D01*
X140359814Y-129899814D01*
X140461271Y-129816552D01*
X140497009Y-129787222D01*
X140653534Y-129703557D01*
X140823373Y-129652037D01*
X140889558Y-129645518D01*
X140955740Y-129639000D01*
X141044260Y-129639000D01*
X141110442Y-129645518D01*
X141110442Y-129645518D01*
G37*
G36*
X141901000Y-128901000D02*
G01*
X140099000Y-128901000D01*
X140099000Y-127099000D01*
X141901000Y-127099000D01*
X141901000Y-128901000D01*
X141901000Y-128901000D01*
G37*
G36*
X87681564Y-123214389D02*
G01*
X87872833Y-123293615D01*
X87872835Y-123293616D01*
X88044973Y-123408635D01*
X88191365Y-123555027D01*
X88306385Y-123727167D01*
X88385611Y-123918436D01*
X88426000Y-124121484D01*
X88426000Y-124328516D01*
X88385611Y-124531564D01*
X88306385Y-124722833D01*
X88306384Y-124722835D01*
X88191365Y-124894973D01*
X88044973Y-125041365D01*
X87872835Y-125156384D01*
X87872834Y-125156385D01*
X87872833Y-125156385D01*
X87681564Y-125235611D01*
X87478516Y-125276000D01*
X87271484Y-125276000D01*
X87068436Y-125235611D01*
X86877167Y-125156385D01*
X86877166Y-125156385D01*
X86877165Y-125156384D01*
X86705027Y-125041365D01*
X86558635Y-124894973D01*
X86443616Y-124722835D01*
X86443615Y-124722833D01*
X86364389Y-124531564D01*
X86324000Y-124328516D01*
X86324000Y-124121484D01*
X86364389Y-123918436D01*
X86443615Y-123727167D01*
X86558635Y-123555027D01*
X86705027Y-123408635D01*
X86877165Y-123293616D01*
X86877167Y-123293615D01*
X87068436Y-123214389D01*
X87271484Y-123174000D01*
X87478516Y-123174000D01*
X87681564Y-123214389D01*
X87681564Y-123214389D01*
G37*
G36*
X92681564Y-123214389D02*
G01*
X92872833Y-123293615D01*
X92872835Y-123293616D01*
X93044973Y-123408635D01*
X93191365Y-123555027D01*
X93306385Y-123727167D01*
X93385611Y-123918436D01*
X93426000Y-124121484D01*
X93426000Y-124328516D01*
X93385611Y-124531564D01*
X93306385Y-124722833D01*
X93306384Y-124722835D01*
X93191365Y-124894973D01*
X93044973Y-125041365D01*
X92872835Y-125156384D01*
X92872834Y-125156385D01*
X92872833Y-125156385D01*
X92681564Y-125235611D01*
X92478516Y-125276000D01*
X92271484Y-125276000D01*
X92068436Y-125235611D01*
X91877167Y-125156385D01*
X91877166Y-125156385D01*
X91877165Y-125156384D01*
X91705027Y-125041365D01*
X91558635Y-124894973D01*
X91443616Y-124722835D01*
X91443615Y-124722833D01*
X91364389Y-124531564D01*
X91324000Y-124328516D01*
X91324000Y-124121484D01*
X91364389Y-123918436D01*
X91443615Y-123727167D01*
X91558635Y-123555027D01*
X91705027Y-123408635D01*
X91877165Y-123293616D01*
X91877167Y-123293615D01*
X92068436Y-123214389D01*
X92271484Y-123174000D01*
X92478516Y-123174000D01*
X92681564Y-123214389D01*
X92681564Y-123214389D01*
G37*
G36*
X84726000Y-120302265D02*
G01*
X84728402Y-120326651D01*
X84735515Y-120350100D01*
X84747066Y-120371711D01*
X84762611Y-120390653D01*
X84781553Y-120406198D01*
X84803164Y-120417749D01*
X84826613Y-120424862D01*
X84850999Y-120427264D01*
X84875385Y-120424862D01*
X84898834Y-120417749D01*
X84920445Y-120406198D01*
X84939387Y-120390653D01*
X84954932Y-120371711D01*
X84961233Y-120361198D01*
X84984644Y-120317400D01*
X85053499Y-120233499D01*
X85137400Y-120164643D01*
X85205945Y-120128005D01*
X85233121Y-120113479D01*
X85336985Y-120081973D01*
X85417933Y-120074000D01*
X85472067Y-120074000D01*
X85553015Y-120081973D01*
X85656879Y-120113479D01*
X85684055Y-120128005D01*
X85752600Y-120164643D01*
X85836501Y-120233499D01*
X85905357Y-120317400D01*
X85941995Y-120385945D01*
X85956521Y-120413121D01*
X85960388Y-120425869D01*
X85969760Y-120448496D01*
X85983374Y-120468870D01*
X86000701Y-120486197D01*
X86021075Y-120499811D01*
X86043714Y-120509188D01*
X86067747Y-120513969D01*
X86092251Y-120513969D01*
X86116285Y-120509189D01*
X86138924Y-120499812D01*
X86159298Y-120486198D01*
X86176625Y-120468871D01*
X86190239Y-120448497D01*
X86199612Y-120425869D01*
X86203479Y-120413121D01*
X86218005Y-120385945D01*
X86254643Y-120317400D01*
X86323499Y-120233499D01*
X86407400Y-120164643D01*
X86475945Y-120128005D01*
X86503121Y-120113479D01*
X86606985Y-120081973D01*
X86687933Y-120074000D01*
X86742067Y-120074000D01*
X86823015Y-120081973D01*
X86926879Y-120113479D01*
X86954055Y-120128005D01*
X87022600Y-120164643D01*
X87106501Y-120233499D01*
X87175357Y-120317400D01*
X87211995Y-120385945D01*
X87226521Y-120413121D01*
X87258027Y-120516985D01*
X87268666Y-120625000D01*
X87258027Y-120733015D01*
X87226521Y-120836879D01*
X87226191Y-120837496D01*
X87175357Y-120932600D01*
X87106501Y-121016501D01*
X87022600Y-121085357D01*
X86954055Y-121121995D01*
X86926879Y-121136521D01*
X86823015Y-121168027D01*
X86742067Y-121176000D01*
X86687933Y-121176000D01*
X86606985Y-121168027D01*
X86503121Y-121136521D01*
X86475945Y-121121995D01*
X86407400Y-121085357D01*
X86323499Y-121016501D01*
X86254643Y-120932600D01*
X86203809Y-120837496D01*
X86203479Y-120836879D01*
X86199612Y-120824131D01*
X86190240Y-120801504D01*
X86176626Y-120781130D01*
X86159299Y-120763803D01*
X86138925Y-120750189D01*
X86116286Y-120740812D01*
X86092253Y-120736031D01*
X86067749Y-120736031D01*
X86043715Y-120740811D01*
X86021076Y-120750188D01*
X86000702Y-120763802D01*
X85983375Y-120781129D01*
X85969761Y-120801503D01*
X85960388Y-120824131D01*
X85956521Y-120836879D01*
X85956191Y-120837496D01*
X85905357Y-120932600D01*
X85836501Y-121016501D01*
X85752600Y-121085357D01*
X85684055Y-121121995D01*
X85656879Y-121136521D01*
X85553015Y-121168027D01*
X85472067Y-121176000D01*
X85417933Y-121176000D01*
X85336985Y-121168027D01*
X85233121Y-121136521D01*
X85205945Y-121121995D01*
X85137400Y-121085357D01*
X85053499Y-121016501D01*
X84984645Y-120932601D01*
X84984644Y-120932600D01*
X84961236Y-120888807D01*
X84947625Y-120868437D01*
X84930298Y-120851110D01*
X84909924Y-120837496D01*
X84887285Y-120828119D01*
X84863252Y-120823338D01*
X84838748Y-120823338D01*
X84814714Y-120828118D01*
X84792076Y-120837495D01*
X84771701Y-120851109D01*
X84754374Y-120868436D01*
X84740760Y-120888810D01*
X84731383Y-120911449D01*
X84726602Y-120935482D01*
X84726000Y-120947735D01*
X84726000Y-121176000D01*
X83624000Y-121176000D01*
X83624000Y-120074000D01*
X84726000Y-120074000D01*
X84726000Y-120302265D01*
X84726000Y-120302265D01*
G37*
G36*
X72901000Y-113901000D02*
G01*
X71099000Y-113901000D01*
X71099000Y-112099000D01*
X72901000Y-112099000D01*
X72901000Y-113901000D01*
X72901000Y-113901000D01*
G37*
G36*
X59410442Y-112105518D02*
G01*
X59476627Y-112112037D01*
X59646466Y-112163557D01*
X59802991Y-112247222D01*
X59838729Y-112276552D01*
X59940186Y-112359814D01*
X60023448Y-112461271D01*
X60052778Y-112497009D01*
X60136443Y-112653534D01*
X60187963Y-112823373D01*
X60205359Y-113000000D01*
X60187963Y-113176627D01*
X60136443Y-113346466D01*
X60052778Y-113502991D01*
X60023448Y-113538729D01*
X59940186Y-113640186D01*
X59838729Y-113723448D01*
X59802991Y-113752778D01*
X59646466Y-113836443D01*
X59476627Y-113887963D01*
X59410443Y-113894481D01*
X59344260Y-113901000D01*
X59255740Y-113901000D01*
X59189557Y-113894481D01*
X59123373Y-113887963D01*
X58953534Y-113836443D01*
X58797009Y-113752778D01*
X58761271Y-113723448D01*
X58659814Y-113640186D01*
X58576552Y-113538729D01*
X58547222Y-113502991D01*
X58463557Y-113346466D01*
X58412037Y-113176627D01*
X58394641Y-113000000D01*
X58412037Y-112823373D01*
X58463557Y-112653534D01*
X58547222Y-112497009D01*
X58576552Y-112461271D01*
X58659814Y-112359814D01*
X58761271Y-112276552D01*
X58797009Y-112247222D01*
X58953534Y-112163557D01*
X59123373Y-112112037D01*
X59189558Y-112105518D01*
X59255740Y-112099000D01*
X59344260Y-112099000D01*
X59410442Y-112105518D01*
X59410442Y-112105518D01*
G37*
G36*
X64490442Y-112105518D02*
G01*
X64556627Y-112112037D01*
X64726466Y-112163557D01*
X64882991Y-112247222D01*
X64918729Y-112276552D01*
X65020186Y-112359814D01*
X65103448Y-112461271D01*
X65132778Y-112497009D01*
X65216443Y-112653534D01*
X65267963Y-112823373D01*
X65285359Y-113000000D01*
X65267963Y-113176627D01*
X65216443Y-113346466D01*
X65132778Y-113502991D01*
X65103448Y-113538729D01*
X65020186Y-113640186D01*
X64918729Y-113723448D01*
X64882991Y-113752778D01*
X64726466Y-113836443D01*
X64556627Y-113887963D01*
X64490443Y-113894481D01*
X64424260Y-113901000D01*
X64335740Y-113901000D01*
X64269557Y-113894481D01*
X64203373Y-113887963D01*
X64033534Y-113836443D01*
X63877009Y-113752778D01*
X63841271Y-113723448D01*
X63739814Y-113640186D01*
X63656552Y-113538729D01*
X63627222Y-113502991D01*
X63543557Y-113346466D01*
X63492037Y-113176627D01*
X63474641Y-113000000D01*
X63492037Y-112823373D01*
X63543557Y-112653534D01*
X63627222Y-112497009D01*
X63656552Y-112461271D01*
X63739814Y-112359814D01*
X63841271Y-112276552D01*
X63877009Y-112247222D01*
X64033534Y-112163557D01*
X64203373Y-112112037D01*
X64269558Y-112105518D01*
X64335740Y-112099000D01*
X64424260Y-112099000D01*
X64490442Y-112105518D01*
X64490442Y-112105518D01*
G37*
G36*
X67030442Y-112105518D02*
G01*
X67096627Y-112112037D01*
X67266466Y-112163557D01*
X67422991Y-112247222D01*
X67458729Y-112276552D01*
X67560186Y-112359814D01*
X67643448Y-112461271D01*
X67672778Y-112497009D01*
X67756443Y-112653534D01*
X67807963Y-112823373D01*
X67825359Y-113000000D01*
X67807963Y-113176627D01*
X67756443Y-113346466D01*
X67672778Y-113502991D01*
X67643448Y-113538729D01*
X67560186Y-113640186D01*
X67458729Y-113723448D01*
X67422991Y-113752778D01*
X67266466Y-113836443D01*
X67096627Y-113887963D01*
X67030443Y-113894481D01*
X66964260Y-113901000D01*
X66875740Y-113901000D01*
X66809557Y-113894481D01*
X66743373Y-113887963D01*
X66573534Y-113836443D01*
X66417009Y-113752778D01*
X66381271Y-113723448D01*
X66279814Y-113640186D01*
X66196552Y-113538729D01*
X66167222Y-113502991D01*
X66083557Y-113346466D01*
X66032037Y-113176627D01*
X66014641Y-113000000D01*
X66032037Y-112823373D01*
X66083557Y-112653534D01*
X66167222Y-112497009D01*
X66196552Y-112461271D01*
X66279814Y-112359814D01*
X66381271Y-112276552D01*
X66417009Y-112247222D01*
X66573534Y-112163557D01*
X66743373Y-112112037D01*
X66809558Y-112105518D01*
X66875740Y-112099000D01*
X66964260Y-112099000D01*
X67030442Y-112105518D01*
X67030442Y-112105518D01*
G37*
G36*
X54330442Y-112105518D02*
G01*
X54396627Y-112112037D01*
X54566466Y-112163557D01*
X54722991Y-112247222D01*
X54758729Y-112276552D01*
X54860186Y-112359814D01*
X54943448Y-112461271D01*
X54972778Y-112497009D01*
X55056443Y-112653534D01*
X55107963Y-112823373D01*
X55125359Y-113000000D01*
X55107963Y-113176627D01*
X55056443Y-113346466D01*
X54972778Y-113502991D01*
X54943448Y-113538729D01*
X54860186Y-113640186D01*
X54758729Y-113723448D01*
X54722991Y-113752778D01*
X54566466Y-113836443D01*
X54396627Y-113887963D01*
X54330443Y-113894481D01*
X54264260Y-113901000D01*
X54175740Y-113901000D01*
X54109557Y-113894481D01*
X54043373Y-113887963D01*
X53873534Y-113836443D01*
X53717009Y-113752778D01*
X53681271Y-113723448D01*
X53579814Y-113640186D01*
X53496552Y-113538729D01*
X53467222Y-113502991D01*
X53383557Y-113346466D01*
X53332037Y-113176627D01*
X53314641Y-113000000D01*
X53332037Y-112823373D01*
X53383557Y-112653534D01*
X53467222Y-112497009D01*
X53496552Y-112461271D01*
X53579814Y-112359814D01*
X53681271Y-112276552D01*
X53717009Y-112247222D01*
X53873534Y-112163557D01*
X54043373Y-112112037D01*
X54109558Y-112105518D01*
X54175740Y-112099000D01*
X54264260Y-112099000D01*
X54330442Y-112105518D01*
X54330442Y-112105518D01*
G37*
G36*
X61950442Y-112105518D02*
G01*
X62016627Y-112112037D01*
X62186466Y-112163557D01*
X62342991Y-112247222D01*
X62378729Y-112276552D01*
X62480186Y-112359814D01*
X62563448Y-112461271D01*
X62592778Y-112497009D01*
X62676443Y-112653534D01*
X62727963Y-112823373D01*
X62745359Y-113000000D01*
X62727963Y-113176627D01*
X62676443Y-113346466D01*
X62592778Y-113502991D01*
X62563448Y-113538729D01*
X62480186Y-113640186D01*
X62378729Y-113723448D01*
X62342991Y-113752778D01*
X62186466Y-113836443D01*
X62016627Y-113887963D01*
X61950443Y-113894481D01*
X61884260Y-113901000D01*
X61795740Y-113901000D01*
X61729557Y-113894481D01*
X61663373Y-113887963D01*
X61493534Y-113836443D01*
X61337009Y-113752778D01*
X61301271Y-113723448D01*
X61199814Y-113640186D01*
X61116552Y-113538729D01*
X61087222Y-113502991D01*
X61003557Y-113346466D01*
X60952037Y-113176627D01*
X60934641Y-113000000D01*
X60952037Y-112823373D01*
X61003557Y-112653534D01*
X61087222Y-112497009D01*
X61116552Y-112461271D01*
X61199814Y-112359814D01*
X61301271Y-112276552D01*
X61337009Y-112247222D01*
X61493534Y-112163557D01*
X61663373Y-112112037D01*
X61729558Y-112105518D01*
X61795740Y-112099000D01*
X61884260Y-112099000D01*
X61950442Y-112105518D01*
X61950442Y-112105518D01*
G37*
G36*
X56870442Y-112105518D02*
G01*
X56936627Y-112112037D01*
X57106466Y-112163557D01*
X57262991Y-112247222D01*
X57298729Y-112276552D01*
X57400186Y-112359814D01*
X57483448Y-112461271D01*
X57512778Y-112497009D01*
X57596443Y-112653534D01*
X57647963Y-112823373D01*
X57665359Y-113000000D01*
X57647963Y-113176627D01*
X57596443Y-113346466D01*
X57512778Y-113502991D01*
X57483448Y-113538729D01*
X57400186Y-113640186D01*
X57298729Y-113723448D01*
X57262991Y-113752778D01*
X57106466Y-113836443D01*
X56936627Y-113887963D01*
X56870443Y-113894481D01*
X56804260Y-113901000D01*
X56715740Y-113901000D01*
X56649557Y-113894481D01*
X56583373Y-113887963D01*
X56413534Y-113836443D01*
X56257009Y-113752778D01*
X56221271Y-113723448D01*
X56119814Y-113640186D01*
X56036552Y-113538729D01*
X56007222Y-113502991D01*
X55923557Y-113346466D01*
X55872037Y-113176627D01*
X55854641Y-113000000D01*
X55872037Y-112823373D01*
X55923557Y-112653534D01*
X56007222Y-112497009D01*
X56036552Y-112461271D01*
X56119814Y-112359814D01*
X56221271Y-112276552D01*
X56257009Y-112247222D01*
X56413534Y-112163557D01*
X56583373Y-112112037D01*
X56649558Y-112105518D01*
X56715740Y-112099000D01*
X56804260Y-112099000D01*
X56870442Y-112105518D01*
X56870442Y-112105518D01*
G37*
G36*
X69570442Y-112105518D02*
G01*
X69636627Y-112112037D01*
X69806466Y-112163557D01*
X69962991Y-112247222D01*
X69998729Y-112276552D01*
X70100186Y-112359814D01*
X70183448Y-112461271D01*
X70212778Y-112497009D01*
X70296443Y-112653534D01*
X70347963Y-112823373D01*
X70365359Y-113000000D01*
X70347963Y-113176627D01*
X70296443Y-113346466D01*
X70212778Y-113502991D01*
X70183448Y-113538729D01*
X70100186Y-113640186D01*
X69998729Y-113723448D01*
X69962991Y-113752778D01*
X69806466Y-113836443D01*
X69636627Y-113887963D01*
X69570443Y-113894481D01*
X69504260Y-113901000D01*
X69415740Y-113901000D01*
X69349557Y-113894481D01*
X69283373Y-113887963D01*
X69113534Y-113836443D01*
X68957009Y-113752778D01*
X68921271Y-113723448D01*
X68819814Y-113640186D01*
X68736552Y-113538729D01*
X68707222Y-113502991D01*
X68623557Y-113346466D01*
X68572037Y-113176627D01*
X68554641Y-113000000D01*
X68572037Y-112823373D01*
X68623557Y-112653534D01*
X68707222Y-112497009D01*
X68736552Y-112461271D01*
X68819814Y-112359814D01*
X68921271Y-112276552D01*
X68957009Y-112247222D01*
X69113534Y-112163557D01*
X69283373Y-112112037D01*
X69349558Y-112105518D01*
X69415740Y-112099000D01*
X69504260Y-112099000D01*
X69570442Y-112105518D01*
X69570442Y-112105518D01*
G37*
G36*
X139901000Y-105901000D02*
G01*
X138099000Y-105901000D01*
X138099000Y-104099000D01*
X139901000Y-104099000D01*
X139901000Y-105901000D01*
X139901000Y-105901000D01*
G37*
G36*
X54225442Y-102180518D02*
G01*
X54291627Y-102187037D01*
X54461466Y-102238557D01*
X54617991Y-102322222D01*
X54653729Y-102351552D01*
X54755186Y-102434814D01*
X54838448Y-102536271D01*
X54867778Y-102572009D01*
X54951443Y-102728534D01*
X55002963Y-102898373D01*
X55020359Y-103075000D01*
X55002963Y-103251627D01*
X54951443Y-103421466D01*
X54867778Y-103577991D01*
X54838448Y-103613729D01*
X54755186Y-103715186D01*
X54653729Y-103798448D01*
X54617991Y-103827778D01*
X54461466Y-103911443D01*
X54291627Y-103962963D01*
X54225442Y-103969482D01*
X54159260Y-103976000D01*
X54070740Y-103976000D01*
X54004557Y-103969481D01*
X53938373Y-103962963D01*
X53768534Y-103911443D01*
X53612009Y-103827778D01*
X53576271Y-103798448D01*
X53474814Y-103715186D01*
X53391552Y-103613729D01*
X53362222Y-103577991D01*
X53278557Y-103421466D01*
X53227037Y-103251627D01*
X53209641Y-103075000D01*
X53227037Y-102898373D01*
X53278557Y-102728534D01*
X53362222Y-102572009D01*
X53391552Y-102536271D01*
X53474814Y-102434814D01*
X53576271Y-102351552D01*
X53612009Y-102322222D01*
X53768534Y-102238557D01*
X53938373Y-102187037D01*
X54004558Y-102180518D01*
X54070740Y-102174000D01*
X54159260Y-102174000D01*
X54225442Y-102180518D01*
X54225442Y-102180518D01*
G37*
G36*
X139110443Y-101565519D02*
G01*
X139176627Y-101572037D01*
X139346466Y-101623557D01*
X139502991Y-101707222D01*
X139538729Y-101736552D01*
X139640186Y-101819814D01*
X139723448Y-101921271D01*
X139752778Y-101957009D01*
X139836443Y-102113534D01*
X139887963Y-102283373D01*
X139905359Y-102460000D01*
X139887963Y-102636627D01*
X139836443Y-102806466D01*
X139752778Y-102962991D01*
X139723448Y-102998729D01*
X139640186Y-103100186D01*
X139538729Y-103183448D01*
X139502991Y-103212778D01*
X139346466Y-103296443D01*
X139176627Y-103347963D01*
X139110443Y-103354481D01*
X139044260Y-103361000D01*
X138955740Y-103361000D01*
X138889557Y-103354481D01*
X138823373Y-103347963D01*
X138653534Y-103296443D01*
X138497009Y-103212778D01*
X138461271Y-103183448D01*
X138359814Y-103100186D01*
X138276552Y-102998729D01*
X138247222Y-102962991D01*
X138163557Y-102806466D01*
X138112037Y-102636627D01*
X138094641Y-102460000D01*
X138112037Y-102283373D01*
X138163557Y-102113534D01*
X138247222Y-101957009D01*
X138276552Y-101921271D01*
X138359814Y-101819814D01*
X138461271Y-101736552D01*
X138497009Y-101707222D01*
X138653534Y-101623557D01*
X138823373Y-101572037D01*
X138889558Y-101565518D01*
X138955740Y-101559000D01*
X139044260Y-101559000D01*
X139110443Y-101565519D01*
X139110443Y-101565519D01*
G37*
G36*
X55016000Y-101436000D02*
G01*
X53214000Y-101436000D01*
X53214000Y-99634000D01*
X55016000Y-99634000D01*
X55016000Y-101436000D01*
X55016000Y-101436000D01*
G37*
G36*
X140248254Y-90327818D02*
G01*
X140621511Y-90482426D01*
X140621513Y-90482427D01*
X140826871Y-90619643D01*
X140957436Y-90706884D01*
X141243116Y-90992564D01*
X141467574Y-91328489D01*
X141622182Y-91701746D01*
X141701000Y-92097993D01*
X141701000Y-92502007D01*
X141622182Y-92898254D01*
X141467574Y-93271511D01*
X141467573Y-93271513D01*
X141243116Y-93607436D01*
X140957436Y-93893116D01*
X140621513Y-94117573D01*
X140621512Y-94117574D01*
X140621511Y-94117574D01*
X140248254Y-94272182D01*
X139852007Y-94351000D01*
X139447993Y-94351000D01*
X139051746Y-94272182D01*
X138678489Y-94117574D01*
X138678488Y-94117574D01*
X138678487Y-94117573D01*
X138342564Y-93893116D01*
X138056884Y-93607436D01*
X137832427Y-93271513D01*
X137832426Y-93271511D01*
X137677818Y-92898254D01*
X137599000Y-92502007D01*
X137599000Y-92097993D01*
X137677818Y-91701746D01*
X137832426Y-91328489D01*
X138056884Y-90992564D01*
X138342564Y-90706884D01*
X138473129Y-90619643D01*
X138678487Y-90482427D01*
X138678489Y-90482426D01*
X139051746Y-90327818D01*
X139447993Y-90249000D01*
X139852007Y-90249000D01*
X140248254Y-90327818D01*
X140248254Y-90327818D01*
G37*
G36*
X116948254Y-90327818D02*
G01*
X117321511Y-90482426D01*
X117321513Y-90482427D01*
X117526871Y-90619643D01*
X117657436Y-90706884D01*
X117943116Y-90992564D01*
X118167574Y-91328489D01*
X118322182Y-91701746D01*
X118401000Y-92097993D01*
X118401000Y-92502007D01*
X118322182Y-92898254D01*
X118167574Y-93271511D01*
X118167573Y-93271513D01*
X117943116Y-93607436D01*
X117657436Y-93893116D01*
X117321513Y-94117573D01*
X117321512Y-94117574D01*
X117321511Y-94117574D01*
X116948254Y-94272182D01*
X116552007Y-94351000D01*
X116147993Y-94351000D01*
X115751746Y-94272182D01*
X115378489Y-94117574D01*
X115378488Y-94117574D01*
X115378487Y-94117573D01*
X115042564Y-93893116D01*
X114756884Y-93607436D01*
X114532427Y-93271513D01*
X114532426Y-93271511D01*
X114377818Y-92898254D01*
X114299000Y-92502007D01*
X114299000Y-92097993D01*
X114377818Y-91701746D01*
X114532426Y-91328489D01*
X114756884Y-90992564D01*
X115042564Y-90706884D01*
X115173129Y-90619643D01*
X115378487Y-90482427D01*
X115378489Y-90482426D01*
X115751746Y-90327818D01*
X116147993Y-90249000D01*
X116552007Y-90249000D01*
X116948254Y-90327818D01*
X116948254Y-90327818D01*
G37*
G36*
X54551000Y-86551000D02*
G01*
X54322735Y-86551000D01*
X54298349Y-86553402D01*
X54274900Y-86560515D01*
X54253289Y-86572066D01*
X54234347Y-86587611D01*
X54218802Y-86606553D01*
X54207251Y-86628164D01*
X54200138Y-86651613D01*
X54197736Y-86675999D01*
X54200138Y-86700385D01*
X54207251Y-86723834D01*
X54218802Y-86745445D01*
X54234347Y-86764387D01*
X54253289Y-86779932D01*
X54263802Y-86786233D01*
X54307600Y-86809644D01*
X54307602Y-86809645D01*
X54307601Y-86809645D01*
X54391501Y-86878499D01*
X54460357Y-86962400D01*
X54496995Y-87030945D01*
X54511521Y-87058121D01*
X54543027Y-87161985D01*
X54553666Y-87270000D01*
X54543027Y-87378015D01*
X54511521Y-87481879D01*
X54511519Y-87481882D01*
X54460357Y-87577600D01*
X54391501Y-87661501D01*
X54307600Y-87730357D01*
X54239055Y-87766995D01*
X54211879Y-87781521D01*
X54199131Y-87785388D01*
X54176504Y-87794760D01*
X54156130Y-87808374D01*
X54138803Y-87825701D01*
X54125189Y-87846075D01*
X54115812Y-87868714D01*
X54111031Y-87892747D01*
X54111031Y-87917251D01*
X54115811Y-87941285D01*
X54125188Y-87963924D01*
X54138802Y-87984298D01*
X54156129Y-88001625D01*
X54176503Y-88015239D01*
X54199131Y-88024612D01*
X54211879Y-88028479D01*
X54239055Y-88043005D01*
X54307600Y-88079643D01*
X54391501Y-88148499D01*
X54460357Y-88232400D01*
X54496995Y-88300945D01*
X54511521Y-88328121D01*
X54543027Y-88431985D01*
X54553666Y-88540000D01*
X54543027Y-88648015D01*
X54511521Y-88751879D01*
X54511519Y-88751882D01*
X54460357Y-88847600D01*
X54391501Y-88931501D01*
X54307600Y-89000357D01*
X54239055Y-89036995D01*
X54211879Y-89051521D01*
X54199131Y-89055388D01*
X54176504Y-89064760D01*
X54156130Y-89078374D01*
X54138803Y-89095701D01*
X54125189Y-89116075D01*
X54115812Y-89138714D01*
X54111031Y-89162747D01*
X54111031Y-89187251D01*
X54115811Y-89211285D01*
X54125188Y-89233924D01*
X54138802Y-89254298D01*
X54156129Y-89271625D01*
X54176503Y-89285239D01*
X54199131Y-89294612D01*
X54211879Y-89298479D01*
X54239055Y-89313005D01*
X54307600Y-89349643D01*
X54391501Y-89418499D01*
X54460357Y-89502400D01*
X54480454Y-89540000D01*
X54511521Y-89598121D01*
X54543027Y-89701985D01*
X54553666Y-89810000D01*
X54543027Y-89918015D01*
X54511521Y-90021879D01*
X54511519Y-90021882D01*
X54460357Y-90117600D01*
X54391501Y-90201501D01*
X54307600Y-90270357D01*
X54239055Y-90306995D01*
X54211879Y-90321521D01*
X54199131Y-90325388D01*
X54176504Y-90334760D01*
X54156130Y-90348374D01*
X54138803Y-90365701D01*
X54125189Y-90386075D01*
X54115812Y-90408714D01*
X54111031Y-90432747D01*
X54111031Y-90457251D01*
X54115811Y-90481285D01*
X54125188Y-90503924D01*
X54138802Y-90524298D01*
X54156129Y-90541625D01*
X54176503Y-90555239D01*
X54199131Y-90564612D01*
X54211879Y-90568479D01*
X54239055Y-90583005D01*
X54307600Y-90619643D01*
X54391501Y-90688499D01*
X54460357Y-90772400D01*
X54496995Y-90840945D01*
X54511521Y-90868121D01*
X54543027Y-90971985D01*
X54553666Y-91080000D01*
X54543027Y-91188015D01*
X54511521Y-91291879D01*
X54511519Y-91291882D01*
X54460357Y-91387600D01*
X54391501Y-91471501D01*
X54307600Y-91540357D01*
X54239055Y-91576995D01*
X54211879Y-91591521D01*
X54108015Y-91623027D01*
X54027067Y-91631000D01*
X53972933Y-91631000D01*
X53891985Y-91623027D01*
X53788121Y-91591521D01*
X53760945Y-91576995D01*
X53692400Y-91540357D01*
X53608499Y-91471501D01*
X53539643Y-91387600D01*
X53488481Y-91291882D01*
X53488479Y-91291879D01*
X53456973Y-91188015D01*
X53446334Y-91080000D01*
X53456973Y-90971985D01*
X53488479Y-90868121D01*
X53503005Y-90840945D01*
X53539643Y-90772400D01*
X53608499Y-90688499D01*
X53692400Y-90619643D01*
X53760945Y-90583005D01*
X53788121Y-90568479D01*
X53800869Y-90564612D01*
X53823496Y-90555240D01*
X53843870Y-90541626D01*
X53861197Y-90524299D01*
X53874811Y-90503925D01*
X53884188Y-90481286D01*
X53888969Y-90457253D01*
X53888969Y-90432749D01*
X53884189Y-90408715D01*
X53874812Y-90386076D01*
X53861198Y-90365702D01*
X53843871Y-90348375D01*
X53823497Y-90334761D01*
X53800869Y-90325388D01*
X53788121Y-90321521D01*
X53760945Y-90306995D01*
X53692400Y-90270357D01*
X53608499Y-90201501D01*
X53539643Y-90117600D01*
X53488481Y-90021882D01*
X53488479Y-90021879D01*
X53456973Y-89918015D01*
X53446334Y-89810000D01*
X53456973Y-89701985D01*
X53488479Y-89598121D01*
X53519546Y-89540000D01*
X53539643Y-89502400D01*
X53608499Y-89418499D01*
X53692400Y-89349643D01*
X53760945Y-89313005D01*
X53788121Y-89298479D01*
X53800869Y-89294612D01*
X53823496Y-89285240D01*
X53843870Y-89271626D01*
X53861197Y-89254299D01*
X53874811Y-89233925D01*
X53884188Y-89211286D01*
X53888969Y-89187253D01*
X53888969Y-89162749D01*
X53884189Y-89138715D01*
X53874812Y-89116076D01*
X53861198Y-89095702D01*
X53843871Y-89078375D01*
X53823497Y-89064761D01*
X53800869Y-89055388D01*
X53788121Y-89051521D01*
X53760945Y-89036995D01*
X53692400Y-89000357D01*
X53608499Y-88931501D01*
X53539643Y-88847600D01*
X53488481Y-88751882D01*
X53488479Y-88751879D01*
X53456973Y-88648015D01*
X53446334Y-88540000D01*
X53456973Y-88431985D01*
X53488479Y-88328121D01*
X53503005Y-88300945D01*
X53539643Y-88232400D01*
X53608499Y-88148499D01*
X53692400Y-88079643D01*
X53760945Y-88043005D01*
X53788121Y-88028479D01*
X53800869Y-88024612D01*
X53823496Y-88015240D01*
X53843870Y-88001626D01*
X53861197Y-87984299D01*
X53874811Y-87963925D01*
X53884188Y-87941286D01*
X53888969Y-87917253D01*
X53888969Y-87892749D01*
X53884189Y-87868715D01*
X53874812Y-87846076D01*
X53861198Y-87825702D01*
X53843871Y-87808375D01*
X53823497Y-87794761D01*
X53800869Y-87785388D01*
X53788121Y-87781521D01*
X53760945Y-87766995D01*
X53692400Y-87730357D01*
X53608499Y-87661501D01*
X53539643Y-87577600D01*
X53488481Y-87481882D01*
X53488479Y-87481879D01*
X53456973Y-87378015D01*
X53446334Y-87270000D01*
X53456973Y-87161985D01*
X53488479Y-87058121D01*
X53503005Y-87030945D01*
X53539643Y-86962400D01*
X53608499Y-86878499D01*
X53692399Y-86809645D01*
X53692398Y-86809645D01*
X53692400Y-86809644D01*
X53736193Y-86786236D01*
X53756563Y-86772625D01*
X53773890Y-86755298D01*
X53787504Y-86734924D01*
X53796881Y-86712285D01*
X53801662Y-86688252D01*
X53801662Y-86663748D01*
X53796882Y-86639714D01*
X53787505Y-86617076D01*
X53773891Y-86596701D01*
X53756564Y-86579374D01*
X53736190Y-86565760D01*
X53713551Y-86556383D01*
X53689518Y-86551602D01*
X53677265Y-86551000D01*
X53449000Y-86551000D01*
X53449000Y-85449000D01*
X54551000Y-85449000D01*
X54551000Y-86551000D01*
X54551000Y-86551000D01*
G37*
G36*
X74110443Y-88645519D02*
G01*
X74176627Y-88652037D01*
X74346466Y-88703557D01*
X74502991Y-88787222D01*
X74538729Y-88816552D01*
X74640186Y-88899814D01*
X74722697Y-89000356D01*
X74752778Y-89037009D01*
X74836443Y-89193534D01*
X74887963Y-89363373D01*
X74905359Y-89540000D01*
X74887963Y-89716627D01*
X74836443Y-89886466D01*
X74752778Y-90042991D01*
X74723448Y-90078729D01*
X74640186Y-90180186D01*
X74538729Y-90263448D01*
X74502991Y-90292778D01*
X74346466Y-90376443D01*
X74176627Y-90427963D01*
X74128053Y-90432747D01*
X74044260Y-90441000D01*
X73955740Y-90441000D01*
X73871947Y-90432747D01*
X73823373Y-90427963D01*
X73653534Y-90376443D01*
X73497009Y-90292778D01*
X73461271Y-90263448D01*
X73359814Y-90180186D01*
X73276552Y-90078729D01*
X73247222Y-90042991D01*
X73163557Y-89886466D01*
X73112037Y-89716627D01*
X73094641Y-89540000D01*
X73112037Y-89363373D01*
X73163557Y-89193534D01*
X73247222Y-89037009D01*
X73277303Y-89000356D01*
X73359814Y-88899814D01*
X73461271Y-88816552D01*
X73497009Y-88787222D01*
X73653534Y-88703557D01*
X73823373Y-88652037D01*
X73889557Y-88645519D01*
X73955740Y-88639000D01*
X74044260Y-88639000D01*
X74110443Y-88645519D01*
X74110443Y-88645519D01*
G37*
G36*
X74901000Y-87901000D02*
G01*
X73099000Y-87901000D01*
X73099000Y-86099000D01*
X74901000Y-86099000D01*
X74901000Y-87901000D01*
X74901000Y-87901000D01*
G37*
G36*
X106901000Y-72901000D02*
G01*
X105099000Y-72901000D01*
X105099000Y-71099000D01*
X106901000Y-71099000D01*
X106901000Y-72901000D01*
X106901000Y-72901000D01*
G37*
G36*
X91882151Y-58513111D02*
G01*
X92068888Y-58569757D01*
X92730407Y-58770426D01*
X93512162Y-59188283D01*
X93690658Y-59334771D01*
X94197377Y-59750623D01*
X94759718Y-60435839D01*
X94899003Y-60696423D01*
X95177574Y-61217592D01*
X95378243Y-61879111D01*
X95434889Y-62065848D01*
X95500000Y-62726932D01*
X95500000Y-68169068D01*
X95434889Y-68830152D01*
X95380147Y-69010611D01*
X95177574Y-69678408D01*
X94899003Y-70199577D01*
X94759718Y-70460161D01*
X94197377Y-71145377D01*
X93512161Y-71707718D01*
X93251577Y-71847003D01*
X92730408Y-72125574D01*
X92068889Y-72326243D01*
X91882152Y-72382889D01*
X91000000Y-72469773D01*
X90117849Y-72382889D01*
X89931112Y-72326243D01*
X89269593Y-72125574D01*
X88748424Y-71847003D01*
X88487840Y-71707718D01*
X87802624Y-71145377D01*
X87240283Y-70460161D01*
X86822428Y-69678410D01*
X86809753Y-69636625D01*
X86651074Y-69113532D01*
X86565111Y-68830152D01*
X86500000Y-68169068D01*
X86500000Y-62726933D01*
X86565111Y-62065849D01*
X86673057Y-61710000D01*
X86822426Y-61217593D01*
X87240283Y-60435838D01*
X87386771Y-60257342D01*
X87802623Y-59750623D01*
X88487839Y-59188282D01*
X88852485Y-58993375D01*
X89269592Y-58770426D01*
X89931111Y-58569757D01*
X90117848Y-58513111D01*
X91000000Y-58426227D01*
X91882151Y-58513111D01*
X91882151Y-58513111D01*
G37*
G36*
X140248254Y-66527818D02*
G01*
X140621511Y-66682426D01*
X140621513Y-66682427D01*
X140957436Y-66906884D01*
X141243116Y-67192564D01*
X141449987Y-67502167D01*
X141467574Y-67528489D01*
X141622182Y-67901746D01*
X141701000Y-68297993D01*
X141701000Y-68702007D01*
X141622182Y-69098254D01*
X141545503Y-69283373D01*
X141467573Y-69471513D01*
X141243116Y-69807436D01*
X140957436Y-70093116D01*
X140621513Y-70317573D01*
X140621512Y-70317574D01*
X140621511Y-70317574D01*
X140248254Y-70472182D01*
X139852007Y-70551000D01*
X139447993Y-70551000D01*
X139051746Y-70472182D01*
X138678489Y-70317574D01*
X138678488Y-70317574D01*
X138678487Y-70317573D01*
X138342564Y-70093116D01*
X138056884Y-69807436D01*
X137832427Y-69471513D01*
X137754497Y-69283373D01*
X137677818Y-69098254D01*
X137599000Y-68702007D01*
X137599000Y-68297993D01*
X137677818Y-67901746D01*
X137832426Y-67528489D01*
X137850014Y-67502167D01*
X138056884Y-67192564D01*
X138342564Y-66906884D01*
X138678487Y-66682427D01*
X138678489Y-66682426D01*
X139051746Y-66527818D01*
X139447993Y-66449000D01*
X139852007Y-66449000D01*
X140248254Y-66527818D01*
X140248254Y-66527818D01*
G37*
G36*
X116948254Y-66527818D02*
G01*
X117321511Y-66682426D01*
X117321513Y-66682427D01*
X117657436Y-66906884D01*
X117943116Y-67192564D01*
X118149987Y-67502167D01*
X118167574Y-67528489D01*
X118322182Y-67901746D01*
X118401000Y-68297993D01*
X118401000Y-68702007D01*
X118322182Y-69098254D01*
X118245503Y-69283373D01*
X118167573Y-69471513D01*
X117943116Y-69807436D01*
X117657436Y-70093116D01*
X117321513Y-70317573D01*
X117321512Y-70317574D01*
X117321511Y-70317574D01*
X116948254Y-70472182D01*
X116552007Y-70551000D01*
X116147993Y-70551000D01*
X115751746Y-70472182D01*
X115378489Y-70317574D01*
X115378488Y-70317574D01*
X115378487Y-70317573D01*
X115042564Y-70093116D01*
X114756884Y-69807436D01*
X114532427Y-69471513D01*
X114454497Y-69283373D01*
X114377818Y-69098254D01*
X114299000Y-68702007D01*
X114299000Y-68297993D01*
X114377818Y-67901746D01*
X114532426Y-67528489D01*
X114550014Y-67502167D01*
X114756884Y-67192564D01*
X115042564Y-66906884D01*
X115378487Y-66682427D01*
X115378489Y-66682426D01*
X115751746Y-66527818D01*
X116147993Y-66449000D01*
X116552007Y-66449000D01*
X116948254Y-66527818D01*
X116948254Y-66527818D01*
G37*
G36*
X106110442Y-68565518D02*
G01*
X106176627Y-68572037D01*
X106346466Y-68623557D01*
X106502991Y-68707222D01*
X106538729Y-68736552D01*
X106640186Y-68819814D01*
X106723448Y-68921271D01*
X106752778Y-68957009D01*
X106836443Y-69113534D01*
X106887963Y-69283373D01*
X106905359Y-69460000D01*
X106887963Y-69636627D01*
X106836443Y-69806466D01*
X106752778Y-69962991D01*
X106723448Y-69998729D01*
X106640186Y-70100186D01*
X106538729Y-70183448D01*
X106502991Y-70212778D01*
X106346466Y-70296443D01*
X106176627Y-70347963D01*
X106110443Y-70354481D01*
X106044260Y-70361000D01*
X105955740Y-70361000D01*
X105889557Y-70354481D01*
X105823373Y-70347963D01*
X105653534Y-70296443D01*
X105497009Y-70212778D01*
X105461271Y-70183448D01*
X105359814Y-70100186D01*
X105276552Y-69998729D01*
X105247222Y-69962991D01*
X105163557Y-69806466D01*
X105112037Y-69636627D01*
X105094641Y-69460000D01*
X105112037Y-69283373D01*
X105163557Y-69113534D01*
X105247222Y-68957009D01*
X105276552Y-68921271D01*
X105359814Y-68819814D01*
X105461271Y-68736552D01*
X105497009Y-68707222D01*
X105653534Y-68623557D01*
X105823373Y-68572037D01*
X105889558Y-68565518D01*
X105955740Y-68559000D01*
X106044260Y-68559000D01*
X106110442Y-68565518D01*
X106110442Y-68565518D01*
G37*
G36*
X129576564Y-66989389D02*
G01*
X129767833Y-67068615D01*
X129767835Y-67068616D01*
X129939973Y-67183635D01*
X130086365Y-67330027D01*
X130201385Y-67502167D01*
X130280611Y-67693436D01*
X130321000Y-67896484D01*
X130321000Y-68103516D01*
X130280611Y-68306564D01*
X130201385Y-68497833D01*
X130201384Y-68497835D01*
X130086365Y-68669973D01*
X129939973Y-68816365D01*
X129767835Y-68931384D01*
X129767834Y-68931385D01*
X129767833Y-68931385D01*
X129576564Y-69010611D01*
X129373516Y-69051000D01*
X129166484Y-69051000D01*
X128963436Y-69010611D01*
X128772167Y-68931385D01*
X128772166Y-68931385D01*
X128772165Y-68931384D01*
X128600027Y-68816365D01*
X128453635Y-68669973D01*
X128338616Y-68497835D01*
X128338615Y-68497833D01*
X128259389Y-68306564D01*
X128219000Y-68103516D01*
X128219000Y-67896484D01*
X128259389Y-67693436D01*
X128338615Y-67502167D01*
X128453635Y-67330027D01*
X128600027Y-67183635D01*
X128772165Y-67068616D01*
X128772167Y-67068615D01*
X128963436Y-66989389D01*
X129166484Y-66949000D01*
X129373516Y-66949000D01*
X129576564Y-66989389D01*
X129576564Y-66989389D01*
G37*
G36*
X127036564Y-66989389D02*
G01*
X127227833Y-67068615D01*
X127227835Y-67068616D01*
X127399973Y-67183635D01*
X127546365Y-67330027D01*
X127661385Y-67502167D01*
X127740611Y-67693436D01*
X127781000Y-67896484D01*
X127781000Y-68103516D01*
X127740611Y-68306564D01*
X127661385Y-68497833D01*
X127661384Y-68497835D01*
X127546365Y-68669973D01*
X127399973Y-68816365D01*
X127227835Y-68931384D01*
X127227834Y-68931385D01*
X127227833Y-68931385D01*
X127036564Y-69010611D01*
X126833516Y-69051000D01*
X126626484Y-69051000D01*
X126423436Y-69010611D01*
X126232167Y-68931385D01*
X126232166Y-68931385D01*
X126232165Y-68931384D01*
X126060027Y-68816365D01*
X125913635Y-68669973D01*
X125798616Y-68497835D01*
X125798615Y-68497833D01*
X125719389Y-68306564D01*
X125679000Y-68103516D01*
X125679000Y-67896484D01*
X125719389Y-67693436D01*
X125798615Y-67502167D01*
X125913635Y-67330027D01*
X126060027Y-67183635D01*
X126232165Y-67068616D01*
X126232167Y-67068615D01*
X126423436Y-66989389D01*
X126626484Y-66949000D01*
X126833516Y-66949000D01*
X127036564Y-66989389D01*
X127036564Y-66989389D01*
G37*
G36*
X125241000Y-69051000D02*
G01*
X123139000Y-69051000D01*
X123139000Y-66949000D01*
X125241000Y-66949000D01*
X125241000Y-69051000D01*
X125241000Y-69051000D01*
G37*
G36*
X132116564Y-66989389D02*
G01*
X132307833Y-67068615D01*
X132307835Y-67068616D01*
X132479973Y-67183635D01*
X132626365Y-67330027D01*
X132741385Y-67502167D01*
X132820611Y-67693436D01*
X132861000Y-67896484D01*
X132861000Y-68103516D01*
X132820611Y-68306564D01*
X132741385Y-68497833D01*
X132741384Y-68497835D01*
X132626365Y-68669973D01*
X132479973Y-68816365D01*
X132307835Y-68931384D01*
X132307834Y-68931385D01*
X132307833Y-68931385D01*
X132116564Y-69010611D01*
X131913516Y-69051000D01*
X131706484Y-69051000D01*
X131503436Y-69010611D01*
X131312167Y-68931385D01*
X131312166Y-68931385D01*
X131312165Y-68931384D01*
X131140027Y-68816365D01*
X130993635Y-68669973D01*
X130878616Y-68497835D01*
X130878615Y-68497833D01*
X130799389Y-68306564D01*
X130759000Y-68103516D01*
X130759000Y-67896484D01*
X130799389Y-67693436D01*
X130878615Y-67502167D01*
X130993635Y-67330027D01*
X131140027Y-67183635D01*
X131312165Y-67068616D01*
X131312167Y-67068615D01*
X131503436Y-66989389D01*
X131706484Y-66949000D01*
X131913516Y-66949000D01*
X132116564Y-66989389D01*
X132116564Y-66989389D01*
G37*
G36*
X110301000Y-65151000D02*
G01*
X108499000Y-65151000D01*
X108499000Y-63349000D01*
X110301000Y-63349000D01*
X110301000Y-65151000D01*
X110301000Y-65151000D01*
G37*
G36*
X109510443Y-60815519D02*
G01*
X109576627Y-60822037D01*
X109746466Y-60873557D01*
X109902991Y-60957222D01*
X109938729Y-60986552D01*
X110040186Y-61069814D01*
X110123448Y-61171271D01*
X110152778Y-61207009D01*
X110236443Y-61363534D01*
X110287963Y-61533373D01*
X110305359Y-61710000D01*
X110287963Y-61886627D01*
X110236443Y-62056466D01*
X110152778Y-62212991D01*
X110123448Y-62248729D01*
X110040186Y-62350186D01*
X109938729Y-62433448D01*
X109902991Y-62462778D01*
X109746466Y-62546443D01*
X109576627Y-62597963D01*
X109510443Y-62604481D01*
X109444260Y-62611000D01*
X109355740Y-62611000D01*
X109289557Y-62604481D01*
X109223373Y-62597963D01*
X109053534Y-62546443D01*
X108897009Y-62462778D01*
X108861271Y-62433448D01*
X108759814Y-62350186D01*
X108676552Y-62248729D01*
X108647222Y-62212991D01*
X108563557Y-62056466D01*
X108512037Y-61886627D01*
X108494641Y-61710000D01*
X108512037Y-61533373D01*
X108563557Y-61363534D01*
X108647222Y-61207009D01*
X108676552Y-61171271D01*
X108759814Y-61069814D01*
X108861271Y-60986552D01*
X108897009Y-60957222D01*
X109053534Y-60873557D01*
X109223373Y-60822037D01*
X109289557Y-60815519D01*
X109355740Y-60809000D01*
X109444260Y-60809000D01*
X109510443Y-60815519D01*
X109510443Y-60815519D01*
G37*
G36*
X109510443Y-58275519D02*
G01*
X109576627Y-58282037D01*
X109746466Y-58333557D01*
X109902991Y-58417222D01*
X109938729Y-58446552D01*
X110040186Y-58529814D01*
X110123448Y-58631271D01*
X110152778Y-58667009D01*
X110236443Y-58823534D01*
X110287963Y-58993373D01*
X110305359Y-59170000D01*
X110287963Y-59346627D01*
X110236443Y-59516466D01*
X110152778Y-59672991D01*
X110123448Y-59708729D01*
X110040186Y-59810186D01*
X109938729Y-59893448D01*
X109902991Y-59922778D01*
X109746466Y-60006443D01*
X109576627Y-60057963D01*
X109510442Y-60064482D01*
X109444260Y-60071000D01*
X109355740Y-60071000D01*
X109289558Y-60064482D01*
X109223373Y-60057963D01*
X109053534Y-60006443D01*
X108897009Y-59922778D01*
X108861271Y-59893448D01*
X108759814Y-59810186D01*
X108676552Y-59708729D01*
X108647222Y-59672991D01*
X108563557Y-59516466D01*
X108512037Y-59346627D01*
X108494641Y-59170000D01*
X108512037Y-58993373D01*
X108563557Y-58823534D01*
X108647222Y-58667009D01*
X108676552Y-58631271D01*
X108759814Y-58529814D01*
X108861271Y-58446552D01*
X108897009Y-58417222D01*
X109053534Y-58333557D01*
X109223373Y-58282037D01*
X109289557Y-58275519D01*
X109355740Y-58269000D01*
X109444260Y-58269000D01*
X109510443Y-58275519D01*
X109510443Y-58275519D01*
G37*
G36*
X70610442Y-57345518D02*
G01*
X70676627Y-57352037D01*
X70846466Y-57403557D01*
X71002991Y-57487222D01*
X71038729Y-57516552D01*
X71140186Y-57599814D01*
X71223448Y-57701271D01*
X71252778Y-57737009D01*
X71336443Y-57893534D01*
X71387963Y-58063373D01*
X71405359Y-58240000D01*
X71387963Y-58416627D01*
X71336443Y-58586466D01*
X71252778Y-58742991D01*
X71230261Y-58770428D01*
X71140186Y-58880186D01*
X71038729Y-58963448D01*
X71002991Y-58992778D01*
X70846466Y-59076443D01*
X70676627Y-59127963D01*
X70610442Y-59134482D01*
X70544260Y-59141000D01*
X70455740Y-59141000D01*
X70389558Y-59134482D01*
X70323373Y-59127963D01*
X70153534Y-59076443D01*
X69997009Y-58992778D01*
X69961271Y-58963448D01*
X69859814Y-58880186D01*
X69769739Y-58770428D01*
X69747222Y-58742991D01*
X69663557Y-58586466D01*
X69612037Y-58416627D01*
X69594641Y-58240000D01*
X69612037Y-58063373D01*
X69663557Y-57893534D01*
X69747222Y-57737009D01*
X69776552Y-57701271D01*
X69859814Y-57599814D01*
X69961271Y-57516552D01*
X69997009Y-57487222D01*
X70153534Y-57403557D01*
X70323373Y-57352037D01*
X70389558Y-57345518D01*
X70455740Y-57339000D01*
X70544260Y-57339000D01*
X70610442Y-57345518D01*
X70610442Y-57345518D01*
G37*
G36*
X65960442Y-57345518D02*
G01*
X66026627Y-57352037D01*
X66196466Y-57403557D01*
X66352991Y-57487222D01*
X66388729Y-57516552D01*
X66490186Y-57599814D01*
X66573448Y-57701271D01*
X66602778Y-57737009D01*
X66686443Y-57893534D01*
X66737963Y-58063373D01*
X66755359Y-58240000D01*
X66737963Y-58416627D01*
X66686443Y-58586466D01*
X66602778Y-58742991D01*
X66580261Y-58770428D01*
X66490186Y-58880186D01*
X66388729Y-58963448D01*
X66352991Y-58992778D01*
X66196466Y-59076443D01*
X66026627Y-59127963D01*
X65960442Y-59134482D01*
X65894260Y-59141000D01*
X65805740Y-59141000D01*
X65739558Y-59134482D01*
X65673373Y-59127963D01*
X65503534Y-59076443D01*
X65347009Y-58992778D01*
X65311271Y-58963448D01*
X65209814Y-58880186D01*
X65119739Y-58770428D01*
X65097222Y-58742991D01*
X65013557Y-58586466D01*
X64962037Y-58416627D01*
X64944641Y-58240000D01*
X64962037Y-58063373D01*
X65013557Y-57893534D01*
X65097222Y-57737009D01*
X65126552Y-57701271D01*
X65209814Y-57599814D01*
X65311271Y-57516552D01*
X65347009Y-57487222D01*
X65503534Y-57403557D01*
X65673373Y-57352037D01*
X65739558Y-57345518D01*
X65805740Y-57339000D01*
X65894260Y-57339000D01*
X65960442Y-57345518D01*
X65960442Y-57345518D01*
G37*
G36*
X138650443Y-57105519D02*
G01*
X138716627Y-57112037D01*
X138886466Y-57163557D01*
X139042991Y-57247222D01*
X139078729Y-57276552D01*
X139180186Y-57359814D01*
X139263448Y-57461271D01*
X139292778Y-57497009D01*
X139376443Y-57653534D01*
X139427963Y-57823373D01*
X139445359Y-58000000D01*
X139427963Y-58176627D01*
X139376443Y-58346466D01*
X139292778Y-58502991D01*
X139270765Y-58529814D01*
X139180186Y-58640186D01*
X139078729Y-58723448D01*
X139042991Y-58752778D01*
X138886466Y-58836443D01*
X138716627Y-58887963D01*
X138650442Y-58894482D01*
X138584260Y-58901000D01*
X138495740Y-58901000D01*
X138429558Y-58894482D01*
X138363373Y-58887963D01*
X138193534Y-58836443D01*
X138037009Y-58752778D01*
X138001271Y-58723448D01*
X137899814Y-58640186D01*
X137809235Y-58529814D01*
X137787222Y-58502991D01*
X137703557Y-58346466D01*
X137652037Y-58176627D01*
X137634641Y-58000000D01*
X137652037Y-57823373D01*
X137703557Y-57653534D01*
X137787222Y-57497009D01*
X137816552Y-57461271D01*
X137899814Y-57359814D01*
X138001271Y-57276552D01*
X138037009Y-57247222D01*
X138193534Y-57163557D01*
X138363373Y-57112037D01*
X138429557Y-57105519D01*
X138495740Y-57099000D01*
X138584260Y-57099000D01*
X138650443Y-57105519D01*
X138650443Y-57105519D01*
G37*
G36*
X136901000Y-58901000D02*
G01*
X135099000Y-58901000D01*
X135099000Y-57099000D01*
X136901000Y-57099000D01*
X136901000Y-58901000D01*
X136901000Y-58901000D01*
G37*
G36*
X109510443Y-55735519D02*
G01*
X109576627Y-55742037D01*
X109746466Y-55793557D01*
X109902991Y-55877222D01*
X109938729Y-55906552D01*
X110040186Y-55989814D01*
X110123448Y-56091271D01*
X110152778Y-56127009D01*
X110236443Y-56283534D01*
X110287963Y-56453373D01*
X110305359Y-56630000D01*
X110287963Y-56806627D01*
X110236443Y-56976466D01*
X110152778Y-57132991D01*
X110127693Y-57163557D01*
X110040186Y-57270186D01*
X109940449Y-57352037D01*
X109902991Y-57382778D01*
X109746466Y-57466443D01*
X109576627Y-57517963D01*
X109510442Y-57524482D01*
X109444260Y-57531000D01*
X109355740Y-57531000D01*
X109289558Y-57524482D01*
X109223373Y-57517963D01*
X109053534Y-57466443D01*
X108897009Y-57382778D01*
X108859551Y-57352037D01*
X108759814Y-57270186D01*
X108672307Y-57163557D01*
X108647222Y-57132991D01*
X108563557Y-56976466D01*
X108512037Y-56806627D01*
X108494641Y-56630000D01*
X108512037Y-56453373D01*
X108563557Y-56283534D01*
X108647222Y-56127009D01*
X108676552Y-56091271D01*
X108759814Y-55989814D01*
X108861271Y-55906552D01*
X108897009Y-55877222D01*
X109053534Y-55793557D01*
X109223373Y-55742037D01*
X109289557Y-55735519D01*
X109355740Y-55729000D01*
X109444260Y-55729000D01*
X109510443Y-55735519D01*
X109510443Y-55735519D01*
G37*
G36*
X71401000Y-56601000D02*
G01*
X69599000Y-56601000D01*
X69599000Y-54799000D01*
X71401000Y-54799000D01*
X71401000Y-56601000D01*
X71401000Y-56601000D01*
G37*
G36*
X66751000Y-56601000D02*
G01*
X64949000Y-56601000D01*
X64949000Y-54799000D01*
X66751000Y-54799000D01*
X66751000Y-56601000D01*
X66751000Y-56601000D01*
G37*
G36*
X109510442Y-53195518D02*
G01*
X109576627Y-53202037D01*
X109746466Y-53253557D01*
X109902991Y-53337222D01*
X109938729Y-53366552D01*
X110040186Y-53449814D01*
X110123448Y-53551271D01*
X110152778Y-53587009D01*
X110236443Y-53743534D01*
X110287963Y-53913373D01*
X110305359Y-54090000D01*
X110287963Y-54266627D01*
X110236443Y-54436466D01*
X110152778Y-54592991D01*
X110123448Y-54628729D01*
X110040186Y-54730186D01*
X109938729Y-54813448D01*
X109902991Y-54842778D01*
X109746466Y-54926443D01*
X109576627Y-54977963D01*
X109510443Y-54984481D01*
X109444260Y-54991000D01*
X109355740Y-54991000D01*
X109289557Y-54984481D01*
X109223373Y-54977963D01*
X109053534Y-54926443D01*
X108897009Y-54842778D01*
X108861271Y-54813448D01*
X108759814Y-54730186D01*
X108676552Y-54628729D01*
X108647222Y-54592991D01*
X108563557Y-54436466D01*
X108512037Y-54266627D01*
X108494641Y-54090000D01*
X108512037Y-53913373D01*
X108563557Y-53743534D01*
X108647222Y-53587009D01*
X108676552Y-53551271D01*
X108759814Y-53449814D01*
X108861271Y-53366552D01*
X108897009Y-53337222D01*
X109053534Y-53253557D01*
X109223373Y-53202037D01*
X109289558Y-53195518D01*
X109355740Y-53189000D01*
X109444260Y-53189000D01*
X109510442Y-53195518D01*
X109510442Y-53195518D01*
G37*
M02*
